<mxfile host="app.diagrams.net" agent="Mozilla/5.0 (Windows NT 10.0; Win64; x64) AppleWebKit/537.36 (KHTML, like Gecko) Chrome/133.0.0.0 Safari/537.36" version="26.0.16">
  <diagram name="Page-1" id="dggeakuQfhFm6x0Bgi0K">
    <mxGraphModel dx="2068" dy="1398" grid="1" gridSize="10" guides="1" tooltips="1" connect="1" arrows="1" fold="1" page="1" pageScale="1" pageWidth="850" pageHeight="1100" math="0" shadow="0">
      <root>
        <mxCell id="0" />
        <mxCell id="1" parent="0" />
        <mxCell id="RxBK489CV4HZndgK19Fy-8" value="ElasticSearch" style="shape=image;verticalLabelPosition=bottom;labelBackgroundColor=default;verticalAlign=top;aspect=fixed;imageAspect=0;image=data:image/png,iVBORw0KGgoAAAANSUhEUgAAAsIAAAMMCAYAAABZh8GpAAAAAXNSR0IArs4c6QAAAAlwSFlzAAAuIwAALiMBeKU/dgAAActpVFh0WE1MOmNvbS5hZG9iZS54bXAAAAAAADx4OnhtcG1ldGEgeG1sbnM6eD0iYWRvYmU6bnM6bWV0YS8iIHg6eG1wdGs9IlhNUCBDb3JlIDUuNC4wIj4KICAgPHJkZjpSREYgeG1sbnM6cmRmPSJodHRwOi8vd3d3LnczLm9yZy8xOTk5LzAyLzIyLXJkZi1zeW50YXgtbnMjIj4KICAgICAgPHJkZjpEZXNjcmlwdGlvbiByZGY6YWJvdXQ9IiIKICAgICAgICAgICAgeG1sbnM6eG1wPSJodHRwOi8vbnMuYWRvYmUuY29tL3hhcC8xLjAvIgogICAgICAgICAgICB4bWxuczp0aWZmPSJodHRwOi8vbnMuYWRvYmUuY29tL3RpZmYvMS4wLyI+CiAgICAgICAgIDx4bXA6Q3JlYXRvclRvb2w+QWRvYmUgSW1hZ2VSZWFkeTwveG1wOkNyZWF0b3JUb29sPgogICAgICAgICA8dGlmZjpPcmllbnRhdGlvbj4xPC90aWZmOk9yaWVudGF0aW9uPgogICAgICA8L3JkZjpEZXNjcmlwdGlvbj4KICAgPC9yZGY6UkRGPgo8L3g6eG1wbWV0YT4KKS7NPQAAQABJREFUeAHs3QuQXed9GPZz7r4A4rG7AEgQpCi8SCiWHRJx4riJHgTkiZtR1JKsp1Yp2SI4cTJuMqmgNKo704wNJZNWGTcRlU6S1rFNsDJfoiiCsTq1m1pYinbjpJkIlJuHbJFYyHyKBLALYIF93tNzdrEksLh73+fe8/jdGQq793zne/z+h+KfH7/zfUHgQ4AAAQIECBAgQIAAAQIECBAgQIAAAQLlEAjLMUyjJECAQPEFzp/cMxYEs/FftT+VYODWahBuqH21lW8XJ9crPRQszW4+/Pab6133PQECBLIkIBHOUjT0hQCBUgucP3nrniAYjP9KPtUkoT24/GP8P5X45ygIr0lyoz3x17tXr2f8z+kgCE9d28coiCbe+z2cjK/HfyWfaGr88GvXlV353v8SIECg+wIS4e6bqpEAAQLXCZw/eXuc0CZJbJK8LiewQRiEh1YKRfH3wT0rP/vfNQJnVhPk+B9Wp6pxkpwkykEwcCopN3741Yk15f1KgACBlgQkwi1xKUyAAIEbBc6ffN+hlW+ry39ek+Tee2Np36Qg8FKcME+9lywHcaJciRPmwVPjhyfjP30IECBQW0AiXNvFtwQIELhOYCXZXZnRfW+ZQnQwLjR6XUG/ZFAgfCHp1MpyjNVlGJLkDAZKlwj0XEAi3HNyDRIgkFWBlZfNFuPkdulgJajsiZbX6Ep2sxqv7vQrfCEMoslqEEzGs8gTQbA4OX74zfhnHwIEyiAgES5DlI2RAIEbBFZmeCW8N8D44qrA2gTZDLJHg0ARBSTCRYyqMREg8K7Ae7O81UMrSxqWd2LIy24L747DD5kQOJO8vHd1x4tT8c4e8Rpks8eZiIxOEGhTQCLcJpzbCBDInoCkN3sxKUGPlreGkxyXINKGWEgBiXAhw2pQBMohsLItWRCv540OrazntQ1ZOSKf+VGeif/hmmz3NpFs9Wabt8zHSwdLLCARLnHwDZ1A3gRW1vVWD61sT+YltrzFr9z9TdYcrybHwxO2dSv302D02RGQCGcnFnpCgMA1AivLHObjdb1hPNsbHYovOXTiGh8/5l7gpZXEOJyIdymJE2NrjXMfUQPIpYBEOJdh02kCxROQ+BYvpkbUkkCynGKiGkiMW1JTmECHAhLhDgHdToBA+wJrljo4ha19SncWTyCeMQ7jxDhZZ2wpRfHCa0RZEZAIZyUS+kGgBALnT966J95+6v6V5Q7BoXjIoyUYtiES6IJA+MLVk/FOjB9+Ld66zYcAgW4ISIS7oagOAgTWFTh/8rariW90f1zI/r3rSrlAoGmB6fgf3idWllEMxYnx5FTTdypIgMB1AhLh6zj8QoBApwIrs74D8Utu0f3xlmb3dVqf+wkQaCSQzBZXTyRHRJstbmTlOoHrBSTC13v4jQCBNgRW9vNd3tbsSHy73R3aMHQLgS4JxC/dhclscTxT/OpEl+pUDYHCCkiECxtaAyOQrkCS/MZHFh+J1y1a8pAutdoJtCtwdQlFECfFr8czxj4ECKwVkAivFfE7AQLrCqys9w2SJQ+H4kLW+64r5QKBzAlYV5y5kOhQFgQkwlmIgj4QyLDANclvMvNrl4cMx0rXCDQrEP/D//lk+UQQeNmuWTPliikgES5mXI2KQEcC1yx7OBJXJPntSNPNBDItYPlEpsOjc2kLSITTFlY/gZwIXJP8WvObk5jpJoEuC0iKuwyquuwLSISzHyM9JJCawOoBF/Fb5kfiRuz2kJq0ignkTuDq7hPBcVuy5S52OtyCgES4BSxFCRRFIJ79PWKf36JE0zgIpC7wUrw7zPEgGImTYod3pK6tgZ4KSIR7yq0xAv0TWFn6EB2Nd3zw0lv/wqBlArkWiJOG+CW7ZJbYdmy5DqTOvysgEX6Xwg8Eiidw/uSesSCYOxIvfTgaj852Z8ULsRER6JdAvJ44PF4Nlh4ZP/zmZL86oV0CnQpIhDsVdD+BDApcs+XZQxnsni4RIFAogeSI5+W1xMcLNSyDKYWARLgUYTbIMgiY/S1DlI2RQKYFzBJnOjw6V0tAIlxLxXcEciRw/uT7DlWCanzUcWD2N0dx01UCxRYwS1zs+BZndBLh4sTSSEoksDL7u3B/GETH4mHvLtHQDZUAgXwJnEmWTQRBNX7BzlrifIWuHL2VCJcjzkZZEIFk399KMBDv/BAdiYfkxLeCxNUwCJRBIE44HqsGlTghfnWiDOM1xnwISITzESe9LLnA1eUPydZn95WcwvAJEMi/QLwvcRjvNvHa8fwPxQjyLiARznsE9b/QAsnBF5Y/FDrEBkegzAJXl00Mx0mxgzrK/CD0c+wS4X7qa5tADYGV9b/zR+O/OY/El63/rWHkKwIECiUQ7zYRnKgG1WPWERcqrrkYjEQ4F2HSyTIIrKz/rRyLlz84+a0MATdGAgRuEIiTEuuIb1DxRZoCEuE0ddVNoAmBaxLgh5oorggBAgRKIJBsvxbGM8RerCtBsPs6RIlwX/k1XmaB5AW4lfW/0b1ldjB2AgQI1BHwYl0dHJc6F5AId26oBgItCUiAW+JSmAABAolA/GJdMkP82vHkFx8C3RKQCHdLUj0EGghIgBsAuUyAAIHGAhLixkZKtCAgEW4BS1EC7QicP3lbfAJceDQILIFox889BAgQqCEgIa6B4qvWBSTCrZu5g0BTAiszwNVH4sL3NHWDQgQIECDQqoCEuFUx5a8TkAhfx+EXAp0LWALRuaEaCBAg0KKAhLhFMMVXBCTCngQCXRKQAHcJUjUECBBoX0BC3L5dKe+UCJcy7AbdTQEJcDc11UWAAIGuCEiIu8JY/EokwsWPsRGmJHD1IIxH4pPg7kupCdUSIECAQEcCDuboiK8EN0uESxBkQ+yugJPguuupNgIECKQvICFO3zifLUiE8xk3ve6DwPmTe8aCYP5o/DdNvBVaMNqHLmiSAAECBDoQiP//+7FqUI0P5nhzsoNq3FogAYlwgYJpKOkJnD+5K06Aw2NxCxLg9JjVTIAAgZ4IxEvavhAEw4+MH56c6kmDGsmsgEQ4s6HRsSwIrByGESR7Ae/OQn/0gQABAgS6JjAdBVE8O/xG8v/xPiUVkAiXNPCGXV/g/MnbD8Z/c8T/5+g0uPpSrhIgQCD3AvEOE8HR8cOvn8j9SAygZQGJcMtkbiiyQLIOuBLMJztBPFTkcRobAQIECKwVSF6oSxLi106tveL34gpIhIsbWyNrQeDbjx4c2z42fXzr2Nyh+DbrgFuwU5QAAQJFEojfB/lyNRiKl0xYP1ykuK43FonwejK+L43Ay88c+OLCbOXzURRWhkcWg/Edl4NKJZ4X8CFAgACBsgpYP1ySyEuESxJow7xRYPJr+z6+uDD42MLCwI5rrw4MVpeT4aGhpWu/9jMBAgQIlE/gpSioxMslXp0o39DLMWKJcDnibJTXCCTLIEY3zfzW3Ozgj1/z9Q0/bh2bDTZtmbvhe18QIECAQLkE4mQp3n94OE6ILZcoWuQrRRuQ8RCoJ5Asg9g4OHu2URKc1HFhakMwdW5jUK3698V6pq4RIECg6ALJC9RhMD+Z7Clf9LGWbXz+CV+2iJd0vGe+vu/DC3ODz61dBtEMR7JEYnT7lcBSiWa0lCFAgEDhBeLlEuERu0sUI84S4WLE0SjWEUiWQYxtuvTU7OzQf7pOkaa+DuOX58a2XQk2bFxoqrxCBAgQIFBsAbtLFCO+EuFixNEoaghMPnPnz83PD/zjpaXKcI3LbX21eetcsGV0tq173USAAAEChRNwGEfOQyoRznkAdf9Ggdef3bv78uLg/xkvhfihG692/k0yKzwazw7bYq1zSzUQIECgCAJxMvV8NajGL9O9OVmE8ZRpDF6WK1O0SzDWyWfv+tsXLo+8klYSnBDOXhkKzv1gUxCvNy6BqCESIECAQCOB+GW6+8KgcsrLdI2ksnfdjHD2YqJHbQi88rW9d1cXh76xMD9wRxu3t3VLsm54W3z4RnIIhw8BAgQIEFgRSI5qXopfpjM7nIcnwoxwHqKkj3UFTj9z16/Nz46c6mUSnHQoirdVOxvPDM9cHKnbPxcJECBAoEwC0b0rs8O3HSvTqPM6VjPCeY2cfgfLs8ALQ7/TzpZo3ebbuGl+eVeJbterPgIECBDItYCt1jIePjPCGQ+Q7tUWeHcWeM3xyLVLp//tlZnh4J03Nzt8I31qLRAgQCBPAveEQfTt8yfNDmc1aGaEsxoZ/aopkKVZ4FodHBisBuPxumGHb9TS8R0BAgRKLWB2OIPhNyOcwaDoUm2BZEeI5bXAGZkFrtXLpcXK8rrhZGcJHwIECBAgcI1AMjs8YWeJa0Qy8KMZ4QwEQRfqCyzvC7ww9M34Zbh99Utm62pyEl2ydtiHAAECBAhcL2Bnies9+vebGeH+2Wu5CYF39wXOWRKcDG3q3Mblv5oYpiIECBAgUCqB1Z0lbj9SqmFncLBmhDMYFF0Kgm8/enBsdNPMb83NDv543j2cRJf3COo/AQIE0hOIE7H4VLrheN/hyan0WlHzegIS4fVkfN83gcmv7fv4wvzQ1xYXKxv71okuN5y8PLftlhnHMnfZVXUECBAoiMB0FFTuHz/86kRBxpObYVgakZtQlaOjp5/Z/8SVyyP/R5GS4CRyyXHM77y12bHM5XiMjZIAAQKtCoyGQfXk9MnbH2n1RuU7EzAj3Jmfu7sksPxC3PzQv8nC4RhdGlLNapJjmbfHM8O2V6vJ40sCBAgQCIJ4m7VqPDvsiOZePAxmhHuhrI26Ai8/fefnLlweeaXoSXCCkBzLnBy8kRzA4UOAAAECBGoIxNusVU6dP+lFuho2Xf/KjHDXSVXYisArX73r94vwQlwrY14ta3u1VQl/EiBAgEAtgThJeyx+ke6oF+lq6XTnO4lwdxzV0qJAckLc0vzw78VrgTe3eGuhim/aMhdsHZst1JgMhgABAgS6KuBEuq5yXl+ZpRHXe/itBwKrJ8SVPQlOqGcujthruAfPnCYIECCQY4HkRLpvWyqRTgTNCKfjqtZ1BMq8FGIdkuWvkxPokpnhSvwynQ8BAgQIEKglYKlELZXOvpMId+bn7iYFLIVoDGWv4cZGShAgQIBAsqtEGB/A8dopFp0LWBrRuaEaGghMPnPnz81fGfm2pRD1oZK9hs/9YFNQjXeW8CFAgAABAusIJEslJiyVWEenxa/9E7dFMMVbE3jlqwdOzM0O3NfaXeUuncwMj++4HAwMVssNYfQECBAgUFcgWSoxevj1I3ULuVhXQCJcl8fFdgWWD8hYGHpxYX7gjnbrKPN9Dt4oc/SNnQABAi0JxEslhg/ZYq0ls3cLWxrxLoUfuiUw+bV9H780O/yHkuD2RZODN87GyySS5RI+BAgQIECgjkC8VGJ+8vzJ9x2qU8aldQQkwuvA+Lo9gZefOfDF2dnhbywtVRyd1h7hu3dJht+l8AMBAgQI1BcYDYPqyfMndx2tX8zVtQKWRqwV8XvbAi8/fdcL83ODH227AjfWFLBMoiaLLwkQIECghkCybthpdDVg1vlKIrwOjK+bF0jWA8/MD/2rxYWBnc3fpWQrAkkynBzJvGHjQiu3KUuAAAEC5RSwbrjJuEuEm4RSrLbAK08e+MhSFP52vDXaxtolfNtNgSQZTg7f8CFAgAABAg0EpuP9huOX6Ow3XM/JGuF6Oq7VFXj56Ts/N79UeUESXJepqxenzm0MrsxYft1VVJURIECgmALxumFHMzcKrRnhRkKu1xQ4/cz+J2avDD9Y86IvUxcwM5w6sQYIECBQGIEwCL88evg1L9LViKhEuAaKr+oLfO/pu/79wtzgD9Uv5WraApLhtIXVT4AAgeIIxAnf8/FLdPHRzJNTxRlV5yORCHduWJoavBSXvVBLhrMXEz0iQIBAhgXil+iq948ffnMyw33sadckwj3lzm9jXorLbuwkw9mNjZ4RIEAggwJeorsmKF6WuwbDj7UFvn9i/ye9FFfbJgvfeoEuC1HQBwIECORGIHmJbuL8yduP5KbHKXZUIpwibhGqTk6Km7kw/FR8ypn/epDhgEqGMxwcXSNAgED2BJJk+FEn0QWB5CZ7D2dmemRniMyEoumOWCbRNJWCBAgQIBALxIngY6OHXz9SVgyJcFkj32DcLz994NT83MA9DYq5nEEByXAGg6JLBAgQyLBAnAyWdkcJiXCGH8x+dO3bjx4c27Lx8ncW5gfu6Ef72uxcIDmOefstM8HQ0FLnlamBAAECBMoiUMpjma0RLsvj3cQ4k+3RNo9c+WNJcBNYGS4Sr+cOzv5gU7CwMJDhXuoaAQIECGRM4J4wmE9eojuYsX6l2h0zwqny5qfyV7629+6l+eHfd1xyfmLWqKdmhhsJuU6AAAECNQRKtb2aGeEaT0DZvlreHu3KyL+VBBcr8maGixVPoyFAgECPBK5ur/a+Qz1qr6/NSIT7yt//xpMk+PKloSejKPTf0fsfjq73QDLcdVIVEiBAoAwCcTJcPVmGvYYlwmV4nNcZ48tfvfMXl5NgewSvI1SMr5NkePrsxqAa/+lDgAABAgSaFVjZa7jYB2/4J2OzT0PByk0+c9c/unJl8G8UbFiGU0cg2UViW7ybRCXeVcKHAAECBAg0KxAF0efGD7/xSLPl81ROIpynaHWpr99/dt+vzsyM/OUuVaeaHAlIhnMULF0lQIBAhgTihLGQB29IhDP0kPWiK06L64VyttvYsHEhGN9xOdud1DsCBAgQyJxAEZNhiXDmHrP0OvS9Jw/8bry37IfSa0HNeRHYuGk+SE6g8yFAgAABAq0IFC0Zlgi3Ev0cl3Vkco6Dl1LXJcMpwaqWAAECBRcoUjIsES74w5oM7/RX7/re7Ozg/hIM1RBbFEhmhZOE2IcAAQIECLQoUIgjmSXCLUY9b8UlwXmLWO/7KxnuvbkWCRAgUBCB3CfD9hEuyJNYaxiS4FoqvlsrMHVuYzA/N7j2a78TIECAAIFGAveEwfzE+ZN7xhoVzOp1iXBWI9NhvyTBHQKW7PZz79wUxC9SlmzUhkuAAAECXRDIdTIsEe7CE5C1KiTBWYtI9vuzehSz0+eyHys9JECAQAYFcpsMS4Qz+DR10iVJcCd65b43SYbP/WCTo5jL/RgYPQECBNoVyGUyLBFuN9wZvE8SnMGg5KxLyfKI8/EyCR8CBAgQINCGQO6SYYlwG1HO4i2S4CxGJZ99Sl6cS16g8yFAgAABAm0I5CoZlgi3EeGs3SIJzlpE8t+fKzPDwczFkfwPxAgIECBAoB8CuUmGJcL9eDy62KYkuIuYqrpO4MLUhiBJiH0IECBAgEAbArlIhiXCbUQ2K7dIgrMSieL2YzpOhm2rVtz4GhkBAgRSFlhOhlNuo6PqJcId8fXv5pefPnDKscn98y9Ly7ZVK0ukjZMAAQKpCdwzffK246nV3mHFEuEOAftx+/eePPC783MD9/SjbW2WT8C2auWLuRETIECgmwJREDyU1WRYItzNSPegrtPP7H8i/k/VH+pBU5og8K5AsjwiWTPsQ4AAAQIE2hHIajIsEW4nmn265/vP7vvV2SvDD/apec2WXCB5ce7itGS45I+B4RMgQKBtgSwmwxLhtsPZ2xsnn7nrH83MjPzl3raqNQLXC1y6MBLMXhm6/ku/ESBAgACBJgWSZPj8yduONVk89WJh6i1ooGOBl7965y/Ozw59oeOKVECgCwJhJQq23zITDA0tdaE2VRAgQIBAGQWiIHx4/PBrx/s9dolwvyPQoP3vn9j/ycuXhp6MX1gSqwZWLvdOYGCwGuzYeSmoxEmxDwECBAgQaEcgC8mw5KqdyPXonsmv7fv47OzwNyTBPQLXTEsCwyOLyzPDLd2kMAECBAgQuEYgCiqHxw+/OnHNVz39USLcU+7mG3vla3vvnr8y8m+jKBxo/i4lCfRWYNOWuWDr2GxvG9UaAQIECBRJYDqeGT4UL5M41Y9BeVmuH+oN2nz92b27l+aHf18S3ADK5b4LzFwccQxz36OgAwQIEMi1wGgYRBPnT95+sB+jMCPcD/U6bX770YNjm0auTC4tVkbrFHOJQGYEvDyXmVDoCAECBPIscCYKhg+OH56c6uUgzAj3UruJtrZsvPwdSXATUIpkRiA5eW767MagGv/pQ4AAAQIE2hTYHQbz8czwnrE272/rNolwW2zp3PTy0wdOLcwP3JFO7WolkJ5AcvLc9LmN6TWgZgIECBAog8A9lWD+eC8HKhHupXadtpKjk+fnBu6pU8QlApkWSA7acPJcpkOkcwQIEMi8QLwp533TJ2873quOSoR7JV2nnZefOfBFRyfXAXIpNwLJyXPzc4O56a+OEiBAgED2BOJkOD59btfRXvTMor5eKNdpIzkwY+bC8FN1irhEIFcCyctzt+y66LCNXEVNZwkQIJA9gV4cuCER7mPcX3nywEfmFysT8TZpZub7GAdNd1/AYRvdN1UjAQIEyigQJ8N/Ks09hiVgfXqqlvcKjsLflgT3KQCaTVUgWR5xYWpDqm2onAABAgSKL7Cyx/Cte9IaqUQ4LdkG9c7MD/2rxcWK1+wbOLmcX4HksI3kBTofAgQIECDQgUB84EblRFrbqkmEO4hMu7cm26QtLgzsbPd+9xHIi8BUvKVavC92XrqrnwQIECCQTYF7wmDhRBpd80+oNFTr1GmbtDo4LhVOIDlsI0mGfQgQIECAQGcC0b1pbKsmEe4sKi3dPfnMnT9nm7SWyBQugECyXtj+wgUIpCEQIECgzwIr26rdfqSb3bBrRDc169S1vEPEUuWFeIaMeR0nl4orsP2WmSDZTcKHAAECBAh0IhAFlcPjh1+d6KSO1XvNCK9KpPjnuztESIJTVFZ11gXOvXNTUI2XSvgQIECAAIFOBMKgGr88152dJCTCnUSiyXsvLwy9aIeIJrEUK6xAsl542nrhwsbXwAgQINBDga7tJCERTjlqLz991wsL8wN3pNyM6gnkQiDZTi3ZVs2HAAECBAh0KHBPJZh/pMM6Aolwp4J17n/5mQNfjF8U+midIi4RKJ1ActDGwsJA6cZtwAQIECDQXYGVl+duO9ZJrRbsdaJX597Jr+37+Ozs8De8HFcHyaXSCgwNLQXb4pfnKpX4/8Z8CBAgQIBABwKdvDwnEe4Afr1bk5fjZuaG/4N1wesJ+Z5AEGzaMhdsHZtFQYAAAQIEOhWYjoLqwfHDb062WpGlEa2KNVHey3FNIClSeoFkrXCyx7APAQIECBDoUKDtl+ckwh3Kr739la8eOOHluLUqfidQW8CWarVdfEuAAAECLQu09fKcRLhl5/VvSE6Om5sduG/9Eq4QIHCtgC3VrtXwMwECBAh0ItDOyXPWCHcifs29r3xt793zV0a+HUWhf7m4xsWPBJoRGN9xOdiwcaGZosoQIECAAIF6AtMXRyq77vjzr16pV2j1mqRtVaLDPxfnh78lCe4Q0e2lFZiKD9pYWvR/R6V9AAycAAECXRKIgvBQs0lw0qR/8nQB/pWv3vX78T/ER7tQlSoIlFIgWSKRJMM+BAgQIECgXYE4CX54/PBrp1q5XyLcilaNspPP3vW352YHf7zGJV8RINCCQLKDhFPnWgBTlAABAgTeFYjXB38hToKPv/tFkz9YI9wkVK1iy+uCZ0dOOTSjlo7vCLQuEMYHbNy881IwMFht/WZ3ECBAgEApBeJk9rHRw68faWfwZoTbUbt6z9L88O9JgjsAdCuBNQKWSKwB8SsBAgQI1BWIk+Dn202Ck4olwnV517/48tN3vRCfHLd5/RKuECDQjoAlEu2ouYcAAQKlFHipGgwf6WTkEuE29JL9guN/WH+0jVvdQoBAEwIXL4zYRaIJJ0UIECBQYoGXomD40PjhyalODAY6ubmM977+7N7dM1eG/+8gCK2vLuMDYMy9EYjCYGFhILhpk72FewOuFQIECORKoCtJcDJiM8Itxv3y/NC/sV9wi2iKE2hDwBKJNtDcQoAAgeILTEdB9f5OZ4JXmSTCqxJN/Hn6mf1PxLNUO5ooqggBAl0QsESiC4iqIECAQHEE4iQ4jJdDvDnZrSFJhJuUnPzavo/PXhl+sMniihEg0AWBZBeJC1MbulCTKggQIEAg5wJXk+DWDsxoNGZrhBsJxde//ejBscGw+q+q1XCoieKKECDQRYHFxYFgaLgaDA7ZW7iLrKoiQIBAngRSSYITADPCTTwGo5tmfiveKs35r01YKUIgDYHk+OX4X0TTqFqdBAgQIJBtgdSS4GTYEuEGwU+2SnOEcgMklwmkLGCJRMrAqidAgEA2BVJNgpMhWxpRJ/C2SquD4xKBHgssxtupjWxYcvxyj901R4AAgT4JnIlfjPuL44e7uyZ47VjMCK8Vueb3ywtD37RV2jUgfiTQZ4FkiYQPAQIECBRe4KX4sIyDaSfBiaJEeJ1nafLZu/72wvzAvnUu+5oAgT4ILC1WgovTdpHoA70mCRAg0CuBJAnu+MS4Zjvr7ZMaUsmSiAuXR14xG1wDx1cEMiBwy66LlkhkIA66QIAAge4KhC9EwVDXDstopm+DzRQqWxmnx5Ut4sabN4FkicT2W2by1m39JUCAAIF1BOKZ2cdGD792ZJ3LqX1tacQa2tPP3PVrTo9bg+JXAhkTSI5fnr1iW++MhUV3CBAg0JZAGIRfHj38+pG2bu7wJksjrgF85Wt7756fHTkVb9XE5RoXPxLIokBYiYJkiUQl/tOHAAECBPIpEO8M8XD8UtzxfvXejPA18tWFod+RBF8D4kcCGRZI9ha+dGEkwz3UNQIECBCoIxDvERw80M8kOOmbRPhqhCafuesfWRJR53F1iUAGBWYujgTx37cZ7JkuESBAgEAdgWSP4HhniNdP1CnTk0uWAMTMy7tEXBk5bTa4J8+cRgh0VWB4ZNGLc10VVRkBAgRSFejp9miNRmLXiFho+eAM64IbPSuuE8ikQPLi3JWZ4WDjpvlM9k+nCBAgQGBFYGVniP68FLdeDEq/NMLBGes9Gr4nkB+Bi/Fa4Wq8ZtiHAAECBLIpkLwU16+dIeqJlPqfHA7OqPdouEYgXwKbt84FW0Zn89VpvSVAgEDxBeKX4pL1wK+dyuJQSz0jPLs0+LTT47L4WOoTgdYFkh0kkiOYfQgQIEAgKwLJSXHDe7KaBCdKpV0jPPnMnT935crgj2flUdEPAgQ6F7gwtSEY33G584rUQIAAAQIdCcRbo30hToCPdVRJD24ubSI8Nz/4v/TAVxMECPRQIDltLnl5LtlJwocAAQIE+iIQL4Wo3D9++NWJvrTeYqOl/O+Ip796529Vl8INLVopToBADgQunPe3dg7CpIsECBRQIH7x7PmVpRD5SIKTEJTuZbnkGOW5yxteKuDzZ0gECFwVGNt2xXZqngYCBAj0TiCeBY6OjR9+45HeNdmdlkq3NCI5Rrk7dGohQCCrAtPxWuGRjQtBpRKvUvMhQIAAgTQFXop3hTgSnxKXyV0hGg28VIlwsmfwlZmBHY1QXCdAIN8C8SmRQXL8su3U8h1HvSdAINsCKy/EvX4s272s37vSLI349qMHxzYNX3l7aalSquS/fvhdJVBsgVt2XQwGBqvFHqTRESBAoPcCV2eBs7k3cCscpUkKxzZfOhG/UV6a8bbyEChLoKgCyYlzyXphHwIECBDojkARZoGvlSjFrhFnvr7vw3ESfO+1A/czAQLFF7gyMxwsLAwUf6BGSIAAgdQFksMxwj8VrwU+lnpTPWygFDOkC3ODz/XQVFMECGRIINlObfstMxnqka4QIEAgVwJXd4R4PXc7QjSjXPgZ4eQFuXhGyAtyzTwNyhAooEBywEbylw8BAgQItCbw3r7A+dsWrdmRFvplOS/INfsYKEeg2AJDQ0vBjlsvFXuQRkeAAIHuCZyJT4eLt0R7daJ7VWazpkJPk4xtuvTU7KwX5LL56OkVgd4JJOuEk/XCGzfN965RLREgQCB/Ark9GKNd6sIujVg+QW5+8CfbhXEfAQLFEkh2kPAhQIAAgdoC8RKBx1aORy7uMohaIy/sjHBYHfx6vKl+oZd+1Aqo7wgQqC2wtFgxK1ybxrcECJRaINkNYunI2OE3J8vIUMhEePKZO3/uypXB/WUMqDETILC+gKOX17dxhQCBsgksb4d2rAzrgOtFtpCJ8OJS5ZfrDdo1AgTKKeDo5XLG3agJELhOIH4RLjg6fvi1E9d9W9JfCpcIv/zMgS/OXxkYK2k8DZsAgQYCM5eGg01b5oJKJf5HgQ8BAgTKIxAnwGE8A/za8fIMufFIC7WG1nZpjQOuBAECQbB561ywZXQWBQECBMogIAGuE+VCzQiPbrp8fG52oFBjqhM7lwgQaFPArHCbcG4jQCBHAska4OC4GeD6ISvMjPDrz+7dfeHKyGk7RdQPuKsECKwImBX2JBAgUEwBL8G1EtfCzJ7OLg0+LQluJfTKEii3gFnhcsff6AkUTSDZB7gahI/EM8Cnija2NMdTiBnh5cMzLm94KU0odRMgUDwBs8LFi6kRESiZQLIDxPEgGI4T4Mmpko29K8MtxIxwcnhGVzRUQoBAqQTMCpcq3AZLoEAC1v92K5i5T4Qnv7bv41cuOzyjWw+EegiUScC+wmWKtrESyL3AdBiEx6vBUjz7W85T4NKIYO4T4YWFwV9PA0adBAiUQ8CscDnibJQE8ioQr2F9vrq8+8PrDsBIIYi5ToTPPLvv6OWZgZ0puKiSAIGSCJgVLkmgDZNAvgReioLoeBCMHB+z9jfVyOU6EY5ng38pVR2VEyBQCgGzwqUIs0ESyLrA1eQ3OmHpQ+9CldtE+OpssKOUe/esaIlAYQXMChc2tAZGIOsCkt8+Ryi3ifD83NDf7bOd5gkQKJCAWeECBdNQCGRYYGXNbzQRBGZ+sxCmXCbCLz9z4IvzVyqbswCoDwQIFEMgmRW+MjMcbNoyV4wBGQUBAlkROBPv9nCiGkQT44e98JaVoKz2I5eJ8OJ85bOrA/AnAQIEuiWwOivcrfrUQ4BAKQXixDeYiE95mwiCpTj5tdVZlp+C3CXCK7PB4YYso+obAQL5FFharCzPCm/cNJ/PAeg1AQL9EHgpTnxPSXz7Qd95m7lLhM0Gdx50NRAgsL7AxQsjgUR4fR9XCJRcIJntjZPe4FQQVCaCYPCUo43z/UTkKhE2G5zvh03vCeRBIJkVnr0yFGzYuJCH7uojAQKpCYQvhEE0Ga/tjZPegfgvSW9q1H2sOFeJsNngPj4pmiZQIoGZi8MS4RLF21BLKzAdBOGpONmdWpnhDSfj3+O/JLxleiJykwibDS7TY2msBPorMD83GCwsDARDQ0v97YjWCRBoQyB8YfWmlRndYPLq78lyhql427Kp8cOvxT/7EIj/1ScvCOdP3n4w7u5YXvqrnwQIECBAgEC6AuOHX51ItwW1EyBAgAABAgQIECBAgAABAgQIECBAgAABAgQIECBAgAABAgQIECBAgAABAgQIECBAgAABAgQIECBAgAABAgQIECBAgAABAgQIECBAgAABAgQIECBAgAABAgQIECBAgAABAgQIECBAgAABAgQIECBAgAABAgQIECBAgAABAgQIECBAgAABAgQIECBAgAABAgQIECBAgAABAgQIECBAgAABAgQIECBAgAABAgQIECBAgAABAgQIECBAgAABAgQIECBAgAABAgQIECBAgAABAgQIECBAgAABAgQIECBAgAABAgQIECBAgAABAgQIECBAgAABAgQIECBAgAABAgQIECBAgAABAgQIECBAgAABAgQIECBAgAABAgQIECBAgAABAgQIECBAgAABAgQIECBAgAABAgQIECBAgAABAgQIECBAgAABAgQIECBAgAABAgQIECBAgAABAgQIECBAgAABAgQIECBAgAABAgQIECBAgAABAgQIECBAgAABAgQIECBAgAABAgQIECBAgAABAgQIECBAgAABAgQIECBAgAABAgQIECBAgAABAgQIECBAgAABAgQIECBAgAABAgQIECBAgAABAgQIECBAgAABAgQIECBAgAABAgQIECBAgAABAgQIECBAgAABAgQIECBAgAABAgQIECBAgAABAgQIECBAgAABAgQIECBAgAABAgQIECBAgAABAgQIECBAgAABAgQIECBAgAABAgQIECBAgAABAgQIECBAgAABAgQIECBAgAABAgQIECBAgAABAgQIECBAgAABAgQIECBAgAABAgQIECBAgAABAgQIECBAgAABAgQIECBAgAABAgQIECBAgAABAgQIECBAgAABAgQIECBAgAABAgQIECBAgAABAgQIECBAgAABAgQIECBAgAABAgQIECBAgAABAgQIECBAgAABAgQIECBAgAABAgQIECBAgAABAgQIECBAgAABAiURCLs5zlsf/G//WhREw92sU10ECBDIk8D0x//GqTz1V18JvCswGEzOPrh38t3f/UCgBAJdS4R3Pvg3j27+f77+pRKYGSIBAgTWFXj9F/95UN2wed3rLhDIkcALV/s6FQbRqSiqTIVRcCqQMOcohLraSGCwUYFmrw+ce/OhZssqR4AAgaIKjLxyKrjywQ8XdXjGVS6Be1eHGwXhfUGcBUfJ9Fk1CEYefyUIwuClKAhOVaJoMqhWJmYX4yT54b1Tq/f4k0AeBLo2I7z7T3/k8uA7f7wxD4PWRwIECKQlcOnP/1Qw9Ym/nlb16iWQdYEzcbI8EVbDU9X4z4VP77VUKOsRK3n/upII3/yZX/jw1heefrHkloZPgACBYGHX/uCtv/HPSBAgsCIwHf8xEQbhiaASTFiD7LHImkBXlkYMXrpwJGsD0x8CBAj0Q2DojZeDyuwl64T7ga/NLAqMxp26L15Ucd/ykoonXnkpiKKJalA5brY4i+EqX58q3RjywNlX/1I36lEHAQIEiiCQrBP2IUCghkAU3BMvLv5sJYi+Ha8znhx5/OVHhh4/fbBGSV8R6IlAV5ZG7D3wwWpl7nJX6urJqDVCgACBFAWsE04RV9VFFTgTv4n3SDgQnLB8oqghzua4Op4R3vnpz39SEpzN4OoVAQL9ERg5bUa4P/JazbHA7nhXii9F1eh0PFN8YviJ0/fneCy6niOBjtcID06//V/naLy6SoAAgdQFrBNOnVgDxRa4L4yi++KEeHmWeG4hOG5btmIHvJ+j63hGeODsa/F6Hx8CBAgQuFZg6PXvXfurnwkQaF1geZZ4ZDiaHH7ileMbnjy9p/Uq3EGgvkDHifDQ6380Vr8JVwkQIFA+gZHTL5Vv0EZMIB2B0fgsj4eSZRMS4nSAy1xrR4lwcqxymfGMnQABAusJ2DliPRnfE2hfQELcvp07awt0lAgPXjxnMXttV98SIFByATPCJX8ADD9VAQlxqrylqryjRNj64FI9KwZLgECLAkNvWCfcIpniBFoSuJoQn9rw+MvHgkdPW6rZkp7CiUBHibD1wR4iAgQIrC8wEh+i5UOAQOoCo1EQ/lL8Ul2cEJ8+knprGiiUQNuJsPXBhXoODIYAgRQEhs0Ip6CqSgLrCuyOj3J+NN52bcJpdesaubBGoO1E2PrgNZJ+JUCAwBoBL8ytAfErgd4I3Jsc4Wy5RG+w895K24mw9cF5D73+EyCQtsDA1FtBZfZS2s2onwCBGgLvLpf4yulDNS77isCyQNuJsPXBniACBAg0FnCwRmMjJQikKLA7qkQnRx5/+REv06WonOOq20qErQ/OccR1nQCBngrYRq2n3BojsI5A+NmRkcja4XV0yvx1W4mw9cFlfmSMnQCBVgRsodaKlrIEUhSIgnuStcMjv3HaYWApMuet6rYS4fDi2Q/kbaD6S4AAgX4IeGGuH+raJFBHIIy+FO8sccJSiTpGJbrUViI89MbLO0tkZKgECBBoW6AyOxMMnn+z7fvdSIBAKgL3JfsO22YtFdtcVdpyInzzZ37hw5W5y2GuRqmzBAgQ6KOA5RF9xNc0gfUFdsdLJSYcwrE+UBmutJwID166cKQMMMZIgACBbgnE/xWtW1WphwCB7grEp9Ilh3DEu0r4lFKg5UQ4nJn+06WUMmgCBAi0KWBGuE04txHomUC8q4R1wz3TzlJDLSfCQ+/8sRflshRBfSFAIPMCw69/L/N91EECBIL7ki3WvERXrieh5UR48J0/3lguIqMlQIBAZwJOmOvMz90EeiYQb7HmJbqeaWeioZYSYQdpZCJmOkGAQA4FnDCXw6DpclkFll+is6NEOcLfUiJcuXzx3nKwGCUBAgS6K+CEue56qo1AygKjyY4SkuGUlTNQfWuJ8My5P5mBPusCAQIEcidgL+HchUyHCUiGS/AMtJQID751ZncJTAyRAAECXRcYcKhG101VSKAHApLhHiD3s4nWEuEL7wz2s7PaJkCAQF4FLI3Ia+T0m0AgGS7wQ9B0IuxFuQI/BYZGgEBPBOwn3BNmjRBIQ0AynIZqBupsOhH2olwGoqULBAjkWsA64VyHT+cJSIYL+Aw0nwh7Ua6A4TckAgR6KeCo5V5qa4tAKgLLyfCGJ0/vSaV2lfZcoOlEePD8D27ree80SIAAgQIJWBpRoGAaSpkFRqMoOuEEumI8As0nwk6UK0bEjYIAgb4JWBrRN3oNE+iuQHICXXIcs0/uBZpKhHd++vOfzP1IDYAAAQJ9FrA0os8B0DyBbgrEyfDwE68c72aV6uq9QFOJcOXKpb/Q+65pkQABAsUTsDyieDE1ovIKhFHw0MhvnD5aXoH8j7y5RHj+yp35H6oRECBAoP8C8cRC/zuhBwQIdE8gjL40/MTp+7tXoZp6KdBUIjxw9rV7etkpbREgQKCoAg7WKGpkjavMAmEUHbeTRD6fgGYT4dF8Dk+vCRAgkC0BL8xlKx56Q6BLAis7SXSpMtX0TqBhIrzrL/8Puytzl8PedUlLBAgQKK7AwPk3izs4IyNQZoFkJ4nHX36kzAR5HHvDRLh6+coDeRyYPhMgQCCLAl6Wy2JU9IlAtwTCz1ov3C3L3tTTMBF2tHJvAqEVAgTKIVCZnSnHQI2SQEkFkvXCDtvIT/AbJ8JLC+P5GY6eEiBAIPsCI6+cyn4n9ZAAgXYFRkeG45PnfHIh0DARtmNELuKokwQI5EigMmsLtRyFS1cJtCNwr/2F22Hr/T0NE+Hw0vnNve+WFgkQIFBcASfMFTe2RkbgXYEwOmZLtXc1MvtDw0R48MI7g5ntvY4RIEAghwK2UMth0HSZQOsCo1E1Xi/sk2mBuonwzk9//pOZ7r3OESBAIIcCtlDLYdB0mUB7AvduePz0kfZudVcvBOomwpXFuYO96IQ2CBAgUCYBM8Jliraxll0gCqJH7CKR3aegfiI8c+HPZbfrekaAAIF8CgxMvZXPjus1AQLtCMS7SFSPtXOje9IXqJsIB7MX35d+F7RAgACB8gmYFS5fzI24zALhZ4ceP+2/smfwEaibCA/MXNiewT7rEgECBHIvYJ1w7kNoAARaEqgkSyR8MidQPxE++9po5nqsQwQIECiAwODUmwUYhSEQINCCwL2OX25Bq0dF6ybClbnLYY/6oRkCBAiUSmDgvHXCpQq4wRKIBeLjl80KZ+xJWDcRtnVaxiKlOwQIFEqgcsXpcoUKqMEQaE5gt+3UmoPqVal1E+GgurSrV53QDgECBMomMPTG98o2ZOMlQCAWiLdTOwYiOwLrJsKVyxfvzU439YQAAQIECBAgUAgBs8IZCuP6ifDSwniG+qkrBAgQKJTAyOmXCjUegyFAoHkBs8LNW6Vdct1EOLx49gNpN65+AgQIECBAgEAJBcwKZyTo6ybClfnZDRnpo24QIECgkALWCRcyrAZFoCkBs8JNMaVeaN1EeMAewqnja4AAgXIL2Dmi3PE3+tILmBXOwCOwbiJsD+EMREcXCBAotEBl1hZqhQ6wwRFoIBDPCh9pUMTllAVqJsI3f+YXPpxyu6onQIBA6QWG3ni59AYACJRc4N4NXzl9qOQGfR1+zUS4srDwZ/raK40TIECAAAECBEogUB0wK9zPMNdMhPvZIW0TIECgLAKD598sy1CNkwCBdQTCKHgoePT02DqXfZ2yQM1EePDiuftTblf1BAgQKL3AgES49M8AAAKJwMhQcIREfwRqJsL96YpWCRAgQIAAAQIlFAijoyUcdSaGXDsRnr34vkz0TicIECBQYAH7CBc4uIZGoDWB3UOPnz7Y2i1Kd0OgZiI8MHNhezcqVwcBAgQIrC9QmZ1Z/6IrBAiUSqASVI+UasAZGWzNRDgjfdMNAgQIECBAgEBJBMIjJRlopoZZMxEeev2PvL2YqTDpDAECRRWwc0RRI2tcBFoWGB1+4rTNClpm6+yGmolwZ1W6mwABAgSaFbBzRLNSyhEog0AkEe5xmCXCPQbXHAECBAgQIECglkC8p/ChWt/7Lj2BGxLhnQ/+zaPpNadmAgQIECBAgACBdQTsHrEOTFpf35AIp9WQegkQIEDgRoGR0y/d+KVvCBAorYDdI3obeolwb721RoAAAQIECBBYXyAMD61/0ZVuC9yQCFcuX7y3242ojwABAgQIECBAoAmBKLgnePS03buaoOpGkRsT4aWF8W5UrA4CBAgQaCxQuXKpcSElCBAolcCG4cDuET2K+A2JcI/a1QwBAgQIxAKOWfYYECCwVqAaRofWfuf3dARuSISjhfnRdJpSKwECBAgQIECAQCMB26g1Eure9RsS4cELb+/pXvVqIkCAAAECBAgQaFFgt3XCLYq1WfyGRLjNetxGgAABAgQIECDQJYHhkeBQl6pSTR0BiXAdHJcIECCQtsDg+TfTbkL9BAjkUKASVQ/msNu567JEOHch02ECBIokMDD1VpGGYywECHRJIArsJ9wlyrrV3JAID73+R/auq0vmIgECBAgQIEAgdQEzwqkTB8ENiXAP2tQEAQIECBAgQIBAfYHRDU+e3lO/iKudCkiEOxV0PwECBAgQIEAgDYHFYE8a1arzPQGJ8HsWfiJAgAABAgQIZEegUj2Unc4UsycS4WLG1agIEMiRgNPlchQsXSXQQ4FqGO7pYXOlbOq6RPjmz/zCh0upYNAECBDoo0DlyqU+tq5pAgSyKhCfMLcnq30rSr+uS4QrCwt/pigDMw4CBAgQIECAQM4F7ByRcgCvS4RTbkv1BAgQIECAAAECzQuMNl9UyXYEJMLtqLmHAAECBAgQINADgaHHT5sVTtFZIpwirqoJECBAgAABAp0IDFQDB511AtjgXolwAyCXCRAgQIAAAQL9EqgOSITTtJcIp6mrbgIECBAgQIBABwKVqGppRAd+jW6VCDcScp0AAQIECBAgQKCQAhLhQobVoAgQIECAAIEiCESBpRFpxvG6RLhy+eK9aTambgIECBC4UWDk9Es3fukbAgQILAuElkak+CRcnwgvLYyn2JaqCRAgQIAAAQIECGRG4LpEODO90hECBAgQIECAAAECKQtIhFMGVj0BAgQIECBAgEA2BSTC2YyLXhEgQIAAAQIECKQsIBFOGVj1BAgQIECAAAEC2RSQCGczLnpFgAABAgQIECCQsoBEOGVg1RMgQIAAAQIECGRTQCKczbjoFQECBAgQIECAQMoCEuGUgVVPgAABAgQIECCQTQGJcDbjolcECBAgQIAAAQIpC0iEUwZWPQECBAgQIECAQDYFJMLZjIteESBAgAABAgQIpCwgEU4ZWPUECBBoJFDdsLlREdcJECBAIAWB6xLhxS3bTqTQhioJECBAoI7Awq79da66RIBAmQWiMJgs8/jTHvt1iXDajamfAAECBAgQIECgeYFKFE02X1rJVgUkwq2KKU+AAAECBAgQIFAIAYlwIcJoEAQIECBAgEAxBSqTxRxXNkYlEc5GHPSCAAECBAgQIHCjQNUa4RtRuveNRLh7lmoiQIAAAQIECBDIkYBEOEfB0lUCBAgQIECgXAKzP7t3olwj7u1oJcK99dYaAQIECBAgQKBZgelmCyrXnsD1iXBl4I32qnEXAQIECBAgQIBAlwVOdbk+1a0RuC4RfuvxX356zXW/EiBAgAABAgQI9EHAYRrpo1+XCKffnBYIECBAYK3A3L6Da7/yOwECBAKHaaT/EEiE0zfWAgECBAgQIECgZYFqWLE0omW11m6QCLfmpTQBAgQIECBAoCcClTCQCKcsLRFOGVj1BAgQIECAAIF2BGYf3DvZzn3uaV7ghkR44ba7ppq/XUkCBAgQIECAAIEUBF5IoU5VrhG4IRFec92vBAgQIECAAAECPReILIvogblEuAfImiBAgMB6AnN771nvku8JECixQBRWJko8/J4NXSLcM2oNESBAgAABAgSaE/CiXHNOnZa6IRFe3HrzZKeVup8AAQIECBAgQKBtgTNelGvbrqUbb0iEw6Fh51q3RKgwAQIECBAgQKB7AvGJchPdq01N9QRuSITrFXaNAAECBLorUN24ubsVqo0AgdwLVKJwIveDyMkAJMI5CZRuEiBQTIGFXXcWc2BGRYBA+wIVM8Lt47V25w2J8OKWbSdaq0JpAgQIECBAgACBLglYH9wlyGaquSERbuYmZQgQIECAAAECBNIQiExIpsG6Tp0S4XVgfE2AAIFeCFQ3WCPcC2dtEMiLgP2DexupGxLhyk0bn+ttF7RGgACB8gos7Npf3sEbOQECawWm5z+114zwWpUUf78hEX7j1/7emRTbUzUBAgQIECBAgEANgXjbNElwDZc0v7ohEU6zMXUTIECAAAECBAisJxBKhNejSen7monwwm13TaXUnmoJECBA4BqBhdtsn3YNhx8JlFnAsog+RL9mItyHfmiSAAECpRTwslwpw27QBG4QsCziBpKefFEzEa4Ob5jtSesaIUCAAAECBAgQCCpL4XEMvReomQhHW7Z/t/dd0SIBAgTKJbA0trNcAzZaAgTWEzgz+7N7J9a76Pv0BGomwuk1p2YCBAgQWBVYHL919Ud/EiBQYoEwiI6XePh9HXrNRLi6aeu/7GuvNE6AAAECBAgQKItApXK8LEPN2jhrJ8KVwbey1lH9IUCAQNEElswIFy2kxkOgHYHnZx/cO9nOje7pXKB2Ijw09G86r1oNBAgQIFBPwNKIejquESiHQFgNHynHSLM5ypqJ8Nv/+9//3Wx2V68IECBAgAABAoUR8JJcn0NZMxFO+lQduSnqc980T4AAgUILLOzaX+jxGRwBAvUFwiA8Vr+Eq2kLrJsIL22/fTrtxtVPgACBMgs4TKPM0Td2AsH07Kf3HufQX4F1E+H+dkvrBAgQIECAAIHiCsRbplkbnIHwrpsIxzPCL2Wgf7pAgACBwgrM7TtY2LEZGAECdQWmZ+crEuG6RL25uG4i3JvmtUKAAAECBAgQKJfA8mzww3unyjXqbI523UR4ccu2E9nssl4RIEAg/wJelMt/DI2AQJsCZoPbhEvjtnUT4TQaUycBAgQIrAh4Uc6TQKCcAmaDsxX3dRPht578h9auZCtWekOAQIEEqhs3F2g0hkKAQJMCZoObhOpVsXUT4aQD9hLuVRi0Q4BA2QQWdt1ZtiEbL4HSC8T7Bh8NrA3O1HNQNxG2l3CmYqUzBAgQIECAQH4Fztg3OHvBq58Ib9p6Nntd1iMCBAjkX2Bu7z35H4QRECDQtEBYDY80XVjBngnUTYSDDVte7VlPNESAAAECBAgQKKbA87M/u3eimEPL96jqJsLVTVv/Zb6Hp/cECBDIpoDDNLIZF70ikILAdFiJ1wb7ZFKgfiJcGXwrk73WKQIECBAgQIBADgSS7dJmH9w7mYOulrKLYaNR79+9J2pUxnUCBAgQaF4gWR/89l/5UvM3KEmAQD4FwuCluU85Sz3Lwas7I5x03BZqWQ6fvhEgQIAAAQJZFahG4ZGs9k2/VgQaJsK2UPOoECBAoLsC1gd311NtBLIoEC+J+MLCp/eeymLf9Ok9gYaJ8OLWmyffKxttAVcAADEvSURBVO4nAgQIECBAgACBugLxkojZT+8/VreMi5kQaJgIRxs2TWaipzpBgACBggjYQ7gggTQMAusIWBKxDkwGv26YCFdv2vJCBvutSwQIEMitQHXj5tz2XccJEGggEIWfsySigVGGLjdMhCs3bXwuQ/3VFQIECOReYGHXnbkfgwEQIFBT4Pm5n9n7SM0rvsykQMNE+I1f+3tn7ByRydjpFAECORSobtiUw17rMgECTQicmZsPjzRRTpEMCTRMhJO+2jkiQxHTFQIEci1gNjjX4dN5AusKVIPw/uDhvVPrFnAhkwJNJcJ2jshk7HSKAIEcCiyN35rDXusyAQL1BMIgfNi64HpC2b3WVCJs54jsBlDPCBDIl8CiRDhfAdNbAg0EojB4bPbTe483KOZyRgWaSoTtHJHR6OkWAQK5E7B1Wu5CpsME6gm8MP+pfUfqFXAt2wJNJcJvPfkPvQGZ7TjqHQECORGwdVpOAqWbBBoJxIdmxC/H3d+omOvZFmgqEU6GsLjjjivZHoreESBAIPsCXpbLfoz0kEATAtPLh2Z4Oa4JqmwXaToRXto8Np3toegdAQIEsi2wNLYz2x3UOwIEmhGYjneIOOTluGaosl+m6UQ42rL9u9kfjh4SIEAguwJelMtubPSMQLMCURgekQQ3q5X9ck0nwotbtp3I/nD0kAABAtkVmNt3MLud0zMCBBoKJNukzX9qr3yooVR+CjSdCDtqOT9B1VMCBLIpsDRuaUQ2I6NXBBoLJEmwbdIaO+WtRNOJcHLU8uLWHYt5G6D+EiBAICsCi2MO08hKLPSDQCsCkuBWtPJVtulEOBnW0rZd7+RreHpLgACB7AhYGpGdWOgJgWYFJMHNSuWzXEuJsBfm8hlkvSZAoP8Cdozofwz0gECrApLgVsXyV76lRNgLc/kLsB4TIJANATtGZCMOekGgWQFJcLNS+S7XUiLshbl8B1vvCRDon4BlEf2z1zKBFgWSfYL/lBfjWlTLafGWEuHlF+acMJfTUOs2AQL9FLBjRD/1tU2gaQGHZTRNVYyCLSXCyZAXx295vRhDNwoCBAj0TmB+1529a0xLBAi0LhAGL83Nh3scltE6XZ7vaDkRrm7a9gd5HrC+EyBAoB8CCxLhfrBrk0CzAs/PzYWHgof3TjV7g3LFEBhsdRjVzWNPxffc3+p9yhMgQKCsAgu79pd16MZNIPMCYRB9YfbT+49lvqM6mIpAyzPCbz3+y0+n0hOVEiBAoKACZoMLGljDyrvAdBSGD0iC8x7GzvrfciKcNLdw213+00Fn7u4mQKBEAtYHlyjYhpoPgXg9cFgJD85/au+JfHRYL9MSaCsRXtp++0tpdUi9BAgQKJqApRFFi6jx5Fsg+nKyHnj2wb2T+R6H3ndDoOU1wkmjVw/WuLcbHVAHAQIEii6wcJsdI4oeY+PLhUCyFOLI/Kf2mQXORbh608mw3Wb2794TtXuv+wgQIFAWgeRo5Tf+uyfLMlzjJJBVgefjrdGO2BUiq+HpX7/amhFOursYH6wx+M4fb+xf17VMgACB7AvMmw3OfpD0sMgC00EUHpv7mb2PFHmQxta+QFtrhJPmFnbc8d32m3UnAQIEyiFgx4hyxNkoMymQzALvkQRnMjaZ6VTbM8LR2I7fikdxMDMj0RECBAhkUGBu7z0Z7JUuESi0wJl4LfBRO0IUOsZdG1zbM8LB5i3/a9d6oSICBAgUVMCLcgUNrGFlUiA5HCOeBbYtWiajk81Otf2yXDKc3X/6I5etE85mYPWKAIH+C3hRrv8x0INyCERh8FglDI/ZEq0c8e7mKNteGpF0IlknHCfClkd0MyLqIkCgMAJz+/zfY2GCaSBZFXghrMYvw/3s3omsdlC/si3QUSJsnXC2g6t3BAj0V8CJcv3113qhBZYT4FkJcKGD3IvBdZQIX10n/N/3oqPaIECAQN4EnCiXt4jpbw4EJMA5CFKeutjRGuFkoNYJ5ync+kqAQC8FXv0fv9nL5rRFoMgCEuAiR7ePY+tsRjju+OKu/f86XifsuOU+BlHTBAhkT8C2admLiR7lT8BLcPmLWd563HkivGXbiXjQEuG8RV5/CRBIVcBBGqnyqrzYAmfi0+AemVsIjjsSudiBzsLoOl4akQxi/+49URYGow8ECBDIisDZn/k7wZUPfjgr3dEPAlkXmI5nf09UlsLjXoDLeqiK1b+OZ4QTjrk9f/LNkck/uLVYNEZDgACB9gXMCLdv585SCTwfBuGJ2fnghNnfUsU9M4PtSiK8NHbr7wfBH9yfmVHpCAECBPookByksThubqCPIdB0dgWm465NSH6zG6Cy9awrifDi6LZ/EMNJhMv29BgvAQI1BeZvu7Pm974kUEqBMHgpiKKJsFo5YdlDKZ+ATA+6K2uEkxHu/pN/ZmHwwjtdSawzLaZzBAgQaCAw9Zf+enDpQz/VoJTLBAoqcDXxjcLKxPxcMGHJQ0HjXJBhdS1xXbjtwP8XJ8LOEy3Ig2EYBAi0LzC37572b3YngXwJvBC/5DYZH3N8KoyCU2Z88xU8vQ2CriXCjlv2OBEgQCAIqhs2BV6U8yQUSCBZ03sqGU8YRBNRVJlKEt44e5icfXDvZPK9D4E8C3RtaUSCcPsnjkzkGUPfCRAg0KnAwujNUxc+/vPLiUOndbmfQC8EqmHlVGUpmLq2LTO712r4mQABAgQIECBAgAABAgQIECBAgAABAgQIECBAgAABAgQIECBAgAABAgQIECBAgAABAgQIECBAgAABAgQIECBAgAABAgQIECBAgAABAgQIECBAgAABAgQIECBAgAABAgQIECBAgAABAgQIECBAgAABAgQIECBAgAABAgQIECBAgAABAgQIECBAgAABAgQIECBAgAABAgQIECBAgAABAgQIECBAgAABAgQIECBAgAABAgQIECBAgAABAgQIECBAgAABAgQIECBAgAABAgQIECBAgAABAgQIECBAgAABAgQIECBAgAABAgQIECBAgAABAgQIECBAgAABAgQIECBAgAABAgQIECBAgAABAgQIECBAgAABAgQIECBAgAABAgQIECBAgAABAgQIECBAgAABAgQIECBAgAABAgQIECBAgAABAgQIECBAgAABAgQIECBAgAABAgQIECBAgAABAgQIECBAgAABAgQIECBAgAABAgQIECBAgAABAgQIECBAgAABAgQIECBAgAABAgQIECBAgAABAgQIECBAgAABAgQIECBAgAABAgQIECBAgAABAgQIECBAgAABAgQIECBAgAABAgQIECBAgAABAgQIECBAgAABAgQIECBAgAABAgQIECBAgAABAgQIECBAgAABAgQIECBAgAABAgQIECBAgAABAgQIECBAgAABAgQIECBAgAABAgQIECBAgAABAgQIECBAgAABAgQIECBAgAABAgQIECBAgAABAgQIECBAgAABAgQIECBAgAABAgQIECBAgAABAgQIECBAgAABAgQIECBAgAABAgQIECBAgAABAgQIECBAgAABAgQIECBAgAABAgQIECBAgAABAgQIECBAgAABAgQIECBAgAABAgQIECBAgAABAgQIECBAgAABAgQIECBAgAABAgQIECBAgAABAgQIECBAgAABAgQIECBAgAABAgQIECBAgAABAgQIECiBQJibMf7TL+0JBoM9uemvjhIgUFyBv/K5ieIOzsgIECBQHoHBvAx1386xnz99duoX8tJf/SRAoJgCoxs3BHd/80QxB2dUBHIuEAXBmTAIJ98bRnUqiIJTye/xtamBysrP8a+nJg4/MPVeOT+VVSA/M8JxhEa/8k+uXJid21DWYBk3AQL9Fzhwy83Bzi2b+98RPSBAoBsC00EQxonySsIcVYLJgSCYjCuWKHdDNwd15CoR3vf1R79oVjgHT5UuEiiowMjgYPBnd99R0NEZFgECNwqEL8RJ8mQ8nTxZqQQT8fXJeCZ58sZyvsmrQK4S4QTZrHBeHzX9JpB/gfePjwW7t43nfyBGQIBAJwIrs8hRdSKeQT4VzyAns8eTnVTo3v4J5C4RNivcv4dFywTKLvBj8WzwhnhW2IcAAQJrBOLkOJpI1iMnM8dxYjyx5rpfMyqQu0Q4cTQrnNGnSbcIFFggWRecrA/2IUCAQHMC8bKKeNZYYtycVr9K5TIRNivcr8dFuwTKK3D3bbuCZMcIHwIECLQnED0fRcFEvHNFMmO8vJNFe/W4q5sCuUyEE4BbnvyVi29fmvHqdjefBnURIFBTYNPwcPCjd9xe85ovCRAg0KrA8jZvUXQiXmM88eLhB060er/y3RPIbSL8I9948m/9uzfe/OXuUaiJAAECtQVsmVbbxbcECHRFYHl9cRQGJ+IX707Es8X2N+4Ka3OV5DYRToa344n/7c2zM5d3NjdUpQgQINC6wGC8wO/P7d3d+o3uIECAQFsC8RIKSXFbcu3cVGnnpqzcc/OmzUez0hf9IECgmAK3jW4t5sCMigCBjAqE94VR+Gg1Cs9/9JvPHf/Iyefuz2hHC9GtXM8IJxEwK1yI59AgCGRWIJkNTmaFfQgQINBHgekgio7H/1d03It23Y1C7hPhH/3tpz7xB6++9ZuL1Wp3ZdRGgEDpBWyZVvpHAACBzAmEQfhSNaoej3efSJJi64k7jFDuE+Fk/Lc9/av/8Y0LFz/QoYXbCRAgcJ2AAzSu4/ALAQKZE4geq4TBI2aJ2w9MIf5735YNN/20/3TZ/kPgTgIEbhTYvukmp8jdyOIbAgQyJRA+FK8l/va933z+VLyW+EimupaTzhRiRjixft9Xf/1fvzY9/WM5cddNAgQyLuAAjYwHSPcIEKglkKwlfiReS5zMEls2UUtozXeFmBFOxnTnzeM/OTI4aKHwmgD7lQCB1gWSE+ScIte6mzsIEOi7wGgQhr+0uuPEoZPP7el7jzLegcLMCCfOe5999KnJc1OfzLi57hEgkHEBB2hkPEC6R4BACwLL64iTF+smWripNEULMyOcRGz3trGf37phZLY00TNQAgS6LhD/l6Ug2S3ChwABAsUQWF5HfPKj33x+Ip4hPlSMMXVvFIWaEU5Y9n390S+ePjv1C90jUhMBAmUSMBtcpmgbK4EyCoQvVMLqMTPEK7EvXCKcDOuWJ37l7NszM9vK+HgbMwEC7Qsks8F/dvcd7VfgTgIECORGQEKchKpQSyNWn73tmzb9dduprWr4kwCBZgUsiWhWSjkCBPIvEN0bv1QXL5l47niZX6or5Ixw8nA6ZCP/f4saAYFeCiT/8pwcoOFfonupri0CBDIjEEVfjv9vMFkyUapt1wo5I5w8VMkhG8l/5vQhQIBAMwK3jW6VBDcDpQwBAsUUCMPPxjPEkx/9neeOFXOAtUdV2BnhZLh3PPPrJ16dmr6v9tB9S4AAgRUBs8GeBAIECLwnEAXBmSCMjr54+IET731bzJ8KOyOchGv/jvEjtlMr5oNrVAS6KWA2uJua6iJAIO8C8Szp7jAKn7u65dqevI+nXv8LnQgn61x2btn6P9UDcI0AgXILJLPBt4+NlhvB6AkQIFBTYPmFutPJcon4hbqxmkVy/mWhl0asxmbnU//s1R9cvHT76u/+JECAwKrA+8fH4sN4xld/9ScBAgQI1BAo6nKJQs8Ir8Zx5+bND3oTfFXDnwQIrAqYDV6V8CcBAgTqC7y3XOK5E0WaHS5FIvydTzz44q6tW/9F/RC7SoBA2QSsDS5bxI2XAIHOBcL7kt0lPvI7zx3tvK7+11CKRDhh3rdj7Ke3btiw2H9yPSBAIAsCZoOzEAV9IEAgpwKjYRh+qQgv05UmEV55cW7L383pA6fbBAh0WcBscJdBVUeAQAkFll+mO5Xn2eFSvCx37ZPpxblrNfxMoJwCyWywU+TKGXujJkAgLYHo+UoYHMnbyXSlmRFeDfvYxk0f9+LcqoY/CZRTwGxwOeNu1AQIpClwde3wyefuT7OVbtdduhnhBHDvs48+NXlu6pPdxlQfAQLZFzAbnP0Y6SEBAjkXiKIvx//h7VgeZodLNyOcPFq7t439vBPncv43me4TaFPAbHCbcG4jQIBAswJh+NkoqkzE26wdbPaWfpUrZSKc/BvKbVtHH7ZEol+PnXYJ9Ecg+XveKXL9sdcqAQLlEoiC6J54m7WJj5x87kiWR17KpRGrAXnfV3/9X782Pf1jq7/7kwCBYgscuOXmYOeWzcUepNERIEAgcwLRY/GLdEezuFSilDPCq8/HnTeP/+Sm4eGl1d/9SYBAcQVGBgclwcUNr5ERIJBpgfChq0sl9mStm6VOhJN/M7l1dMvnsxYU/SFAoPsCu7eNd79SNRIgQIBAUwJXl0qcipdKZGpXiVInwknkvnf/Z74UvzxzpqkoKkSAQC4F4v/yYzY4l5HTaQIECiYwGkbhcx/9neeOZWVcpU+Ek0DcdfO2Q/F/Nq1mJSj6QYBAdwX279je3QrVRoAAAQLtC4ThL330m88dj3eVGGu/ku7cKRGOHeMlEpPvGx/9p90hVQsBAlkSGN24IUj+8iFAgACBLAm8u264r8lwqXeNWPs4OH55rYjfCeRf4O7bdkmE8x9GIyBAoLgC05UwOhRPSp7qxxDNCF+jnhy/bInENSB+JJBzgWSrNLPBOQ+i7hMgUHSB0X7uNywRvubx+u59n/qOJRLXgPiRQM4F3m+niJxHUPcJECiJQPIS3aP9OHzD0ogaT5glEjVQfEUgZwLvHx+Lj1O3ZVrOwqa7BAiUXiB67Fsfe+BIrxjMCNeQTpZIOGijBoyvCOREwFHKOQmUbhIgQOAGgfChZEeJG75O6QszwuvAHjjxG7/4R2+//YV1LvuaAIEMCzhKOcPB0TUCBAg0JRA9Hx/LfCTtY5klwnWCcdvTv/of37hw8QN1irhEgEDGBJLDM370jtsz1ivdIUCAAIFWBcIgfCkMq8mOElOt3ttseUsj6kgduGX7f2KJRB0glwhkUMDhGRkMii4RIECgDYHkWOYoqkykefCGRLhOYJJ/A9m9feyvJesNfQgQyL7A9k032S4t+2HSQwIECDQtkHYyLMNrEIp/94lP/8rNWzZ/q0ExlwkQyIDAPkcpZyAKukCAAIHuCqSZDEuEm4jVgZu33Td+08bLTRRVhACBPgkk26VtGBzsU+uaJUCAAIE0BdJKhiXCTUQtWSLxvtHRv2iJRBNYihDog0B8ImRw+9hoH1rWJAECBAj0SiCNZFgi3GT0vvOJB1/cu23bY00WV4wAgR4KJC/I+RfVHoJrigABAn0S6HYybPu0FgPp1LkWwRQnkLLA6MYNwd237Uq5FdUTIECAQJYEurW1mhnhFqP6Qzt3fNiWai2iKU4gRYH927enWLuqCRAgQCCLAt2aGZYItxjdeL3w5K2jWz7vP8O2CKc4gRQEbh/dGmwaGU6hZlUSIECAQNYFupEMS4TbiPL37v/Ml3Zt3fov2rjVLQQIdEkgeUHu/dvGu1SbaggQIEAgjwJJMlyNgkfa7bs1wu3Kxffd8sSvnH17ZmZbB1W4lQCBNgU+eOvOIDlAw4cAAQIECARB9Ni3PvbAkVYlzAi3KnZN+fFNmw9bL3wNiB8J9EggeUFOEtwjbM0QIEAgFwLhQx/9nedanhmWCHcQ3O/e96nvWC/cAaBbCbQpcOCWm9u8020ECBAgUFiBMPzsR04+d6SV8UmEW9GqUdZ64RooviKQooAT5FLEVTUBAgRyLhBG4aNxMnx/s8OwRrhZqQblrBduAOQygS4IJC/I/dndd3ShJlUQIECAQIEF/vjsO/N3/ruf/un5RmM0I9xIqMnr1gs3CaUYgQ4EPmBJRAd6biVAgEA5BKIw+m+aSYITDYlwl56JZL3w7u1jf83+wl0CVQ2BNQLJnsHJS3I+BAgQIEBgXYEo+sKLhx84se71NRcsjVgD0umve5999KnJc1Of7LQe9xMg8J5A8i+YPxYvifAvmu+Z+IkAAQIE1gqEL3zrY/cdWvttvd/NCNfTaePa6Z96+L+6Zcvm19q41S0ECKwjkOwSIQleB8fXBAgQIBBEQXCmElabfklulUwivCrRxT9/aOeOH9m6YWS2i1WqikBpBZL9gu0ZXNrwGzgBAgSaEhgIo/snDj8w1VThawpJhK/B6NaPSSB2j4//ZPyGe7VbdaqHQBkFkllgewaXMfLGTIAAgeYF4pfjHo5zr1PN3/FeSYnwexZd/ek7n3jwxfePj3/Bf87tKqvKSibw/m3jlkSULOaGS4AAgdYEosfil+OOt3bPe6W9LPeeRSo/vf+ZR/+vP56a+gupVK5SAgUWSHaIuPu2XQUeoaERIECAQCcCYRC+9MLH7jvYSR1mhDvRa+Le7/+XD/+kl+eagFKEwDUClkRcg+FHAgQIEKglMB2G1UO1LrTynUS4Fa02y3p5rk04t5VWIFkSsSE+Rc6HAAECBAjUEJiuhNGhdl6OW1uXRHitSAq/r748t2l4eCmF6lVJoFACyZKI5PAMHwIECBAgUEsgfjnuaLsvx62tTyK8ViSl35OX524d3fJ5L8+lBKzaQghYElGIMBoEAQIE0hOIoi938nLc2o5JhNeKpPj79+7/zJf2btv2WIpNqJpArgUsich1+HSeAAECKQtEz3/rJx442s1GJMLd1Gyirj984GeP7Nk2/ntNFFWEQKkELIkoVbgNlgABAi0JJDtEVMLgSEs3NVHY9mlNIKVR5JYnfuXs2zMz29KoW50E8iaQLIn4sd132DM4b4HTXwIECPRGIHk57mC8Lniy282ZEe62aJP1fXDXzfsdw9wklmKFF0hOj7N+vvBhNkACBAi0I7C6Q8RkOzc3ukci3Egopet2kkgJVrW5E9i+6aYg+cuHAAECBAisFejmDhFr605+lwjXUunRd8lOEneMjf2MmbAegWsmcwIj8V7ByWywDwECBAgQWCsQRdHnurlDxNr6k98lwrVUevjdf7jv00/t3b79lyTDPUTXVGYEPmBJRGZioSMECBDIlkD02Is/8cAjaffJy3JpCzdZ/51ff+w3Xz577hNNFleMQO4FkkMz9u3YnvtxGAABAgQIdFsgfOFbH7vvULdrrVWfGeFaKn347nv/xUP/mW3V+gCvyb4IxKcsSoL7Iq9RAgQIZFtgZZu06v296qUZ4V5JN9nOzqf+2as/uHjp9iaLK0YgdwLJMqC7b9sVbBoZzl3fdZgAAQIE0hOIguDMwMo2aVPptXJ9zWaEr/fo+28/tHPHj9y8adO5vndEBwikJJCcHicJTglXtQQIEMivwHScBN+f7KrVyyFIhHup3URbyQNgj+EmoBTJpUCyTVqyNtiHAAECBAhcI7C6V/Cpa77ryY8S4Z4wt9aIPYZb81I6HwK2SstHnPSSAAECvRZIe6/geuORCNfT6eO1ZI/hfdu3HY5fKlrqYzc0TaBrArZK6xqliggQIFAYgTgJfjjtvYLrYUmE6+n0+ZoDN/ocAM13TeD942PB6MYNXatPRQQIECCQf4FeHJjRSEki3Eioz9cduNHnAGi+Y4EkAd4dvyDnQ4AAAQIE3hPozYEZ77VX+yeJcG2XTH37h/f/zN9x+lymQqIzTQokW6V98NadTZZWjAABAgTKIRA99q2PPXAkC2OVCGchCk30IUmG99+8439uoqgiBDIjkCTBjg/PTDh0hAABAhkQyE4SnGA4UCMDj0QrXdj77PHfnTx3/kOt3KMsgX4IJOuCLYnoh7w2CRAgkE2B5NS4Fz5238Es9c6McJai0URfTv/UkQ87irkJKEX6KmBdcF/5NU6AAIHMCSRJcBhWD2WtYxLhrEWkif5IhptAUqRvAsl+wdYF941fwwQIEMicwGoS3OtT45qBkAg3o5TBMpLhDAZFl5YFfti6YE8CAQIECFwVyHISnHRRIpzjR1UynOPgFbTr+3ZsDzaNDBd0dIZFgAABAq0IZD0JTsYiEW4lohksu5wM79j27Qx2TZdKJrBzy+bg9tGtJRu14RIgQIBALYE8JMFJvyXCtaKXs+92j2392M2bNp3LWbd1t0AC8VHgQTIb7EOAAAECBPKSBCeRsn1aQZ7XQyefG/v3b7z98tszM9sKMiTDyIlAsk/w3bftsiQiJ/HSTQIECKQsMF0Joz1ZfDGu1rjNCNdSyeF3yQP3wV037zcznMPg5bzLB265WRKc8xjqPgECBLokkCTBh/KSBCdjlgh3KfJZqEYynIUolKsPyaEZ2zfdVK5BGy0BAgQI1BJYTYJP1bqY1e8kwlmNTJv9kgy3Cee2lgWSBNjJcS2zuYEAAQKFE0jWBF9dDpGrJDgJhES4cI9jEKwmw3vsJlHA6GZjSMnLccmSCB8CBAgQKLdAnl6MqxUpL8vVUinQd3ufPf67k+fOf6hAQzKUPgt4Oa7PAdA8AQIEMiKQ9yQ4YTQjnJGHKa1uOHQjLdny1pscn+zQjPLG38gJECCQCBQhCU7GIRFOFAr+kQwXPMA9HF6yV/Doxg09bFFTBAgQIJA1gaIkwYmrRDhrT1dK/ZEMpwRbomqdHFeiYBsqAQIE1hEoUhKcDFEivE6gi/i1ZLiIUe3NmLwc1xtnrRAgQCDLAkVLghNrL8tl+YlLqW9/4p8//ssvv/3O31qsVlNqQbVFEkiS4Ltv3xUkL8n5ECBAgEBZBaLHvvWxB44UbfT+yVa0iDYxnv/4n3/683u3b/8liU0TWCUvkjwjH4i3SfOslPxBMHwCBEouUMwkOAmqRLikj/Yf3v8zf0cyXNLgtzBsO0S0gKUoAQIECilQ3CQ4CZelEYV8aJsf1A9/4/G/eubs1D+ZmZ8faP4uJcsgkByYkbwg50OAAAEC5RSIouhzL/7EA48UefQS4SJHt8mx3f2NJz/yytlzJyXDTYKVoNjto1uDZKs0HwIECBAop0AURg+/ePiB40UfvaURRY9wE+P7zicefHHf9m2Ht27YsNhEcUUKLpDMAkuCCx5kwyNAgMD6AtNlSYITAjPC6z8Ipbty6ORzY//+jbdffntmZlvpBm/AywJ2iPAgECBAoNQC05UwOjRx+IFTZVEwI1yWSDcxzvjBn/rgrpv337p1yztNFFekYAKS4IIF1HAIECDQgkAUBGfKlgQnPGaEW3hIylR077PHf3fy3PkPlWnMZR5rsj3a3bftCjaNDJeZwdgJECBQSoEiHpTRbCDNCDcrVbJyySl0+7dv+4b9Y4sfeElw8WNshAQIEFhfIHwhDKvJcoip9csU94oZ4eLGtisjO3DiN37x9NmzX3AKXVc4M1lJslfw9k03ZbJvOkWAAAECaQoUe4/gZuQkws0olbyMvYaL+wDYK7i4sTUyAgQI1BMowx7B9ca/ek0ivCrhz7oCyV7DZ85PffPC7Oxg3YIu5kYg2SIt2S/YhwABAgRKJZBsj3a0DHsENxNViXAzSsosC9herTgPQrJXcDIb7EOAAAECpRIo3fZojaLrZblGQq6/K7C6vdqebeO/9+6XfsidgCQ4dyHTYQIECHQskOwMEW+PdrBMewQ3g2ZGuBklZW4QOPDcV46fPnfuIS/R3UCT6S+Sl+KSl+N8CBAgQKBMAtHzlTA4UtadIepFWiJcT8e1ugLJjhKvT0//4sz8/EDdgi5mQsCBGZkIg04QIECgtwJR9OVv/cQDR3vbaH5akwjnJ1aZ7KmX6DIZlhs6JQm+gcQXBAgQKLqAl+KaiLBEuAkkReoLJC/RffcHZ//ozQsXd9Qv6Wo/BCTB/VDXJgECBPoq4KW4Jvklwk1CKdZYIDmW+dWp6Q9ZN9zYqlclklPjfmz3HYETAnslrh0CBAj0V6DMxyW3Iy8RbkfNPesKJOuGv3/+/BfmFhfXLeNCbwQcndwbZ60QIEAgOwJOims1FhLhVsWUbyhg3XBDotQLSIJTJ9YAAQIEMiUQH5LxsEMyWg+JRLh1M3c0IWDdcBNIKRWRBKcEq1oCBAhkUCAKgjMDYXS//YHbC45EuD03dzUpcOfXH/vN+GjmT1g33CRYh8UkwR0Cup0AAQK5EghfqITVJAmeylW3M9RZiXCGglHUrthvuDeRlQT3xlkrBAgQyIRAFH0h3h/4WCb6kuNOSIRzHLw8dT1ZNxxvr3bi7ZmZbXnqd176KgnOS6T0kwABAh0LJPsDH4nXA5/ouCYVBBJhD0HPBJJ1w2fOTX/DFmvdJZcEd9dTbQQIEMiqwNWt0ZKlEJNZ7WPe+iURzlvECtBfSyW6F0RJcPcs1USAAIFMCzgqOZXwSIRTYVVpIwFLJRoJNb4uCW5spAQBAgQKIGApRIpBlAiniKvq+gKWStT3qXdVElxPxzUCBAgUQ8BSiPTjKBFO31gLDQQslWgAtOayJHgNiF8JECBQRAG7QvQkqhLhnjBrpJFAPDu857s/OPv/xjtL7GhUtszXJcFljr6xEyBQEoHpysoBGRMlGW9fhykR7iu/xtcK7H320adenbrwSQdwrJUJAknwjSa+IUCAQLEEoucrYXDEARm9i6pEuHfWWmpS4Ed/+6lPTL4z9fT5y1duavKWwheTBBc+xAZIgEC5BaajKDr24k888Ei5GXo/eolw78212IRA8iLdK29Pv/jGxekfKfvssCS4iQdGEQIECORU4OoLccks8KmcDiHX3ZYI5zp8xe982V+kkwQX/xk3QgIESizghbi+B18i3PcQ6EAjgeRFuj96+9zE69MXdjcqW6Trm4aHgw/ccnOwaWS4SMMyFgIECJReIAqCMwPxMcnxLPBE6TH6DCAR7nMANN+8wJ/454//8qvnpz43Mz8/0Pxd+SyZJMF3375r+QW5fI5ArwkQIECgpkB8QlylEhzzQlxNnZ5/KRHuObkGOxFITqR7e2bm60XeZk0S3MkT4l4CBAhkU8AscDbjIhHOZlz0qoHAgee+cvz7U1MPzS0uNiiZr8uS4HzFS28JECDQnED0WLwt2lGzwM1p9bKURLiX2trqqkDRZod3btkcHIjXBPsQIECAQDEEklngIIyOvnj4gRPFGFHxRiERLl5MSzeiIswOS4JL99gaMAECRRewFjgXEZYI5yJMOtlIIM87S9w+ujXYt2N7oyG6ToAAAQI5ELAWOAdBuqaLEuFrMPyYf4G87SyRLIVIZoN9CBAgQKAAAmaBcxdEiXDuQqbDjQSS2eE//MHZ33r70swHsnwqnSS4USRdJ0CAQD4Erp4Ol7wMN5GPHuvlqoBEeFXCn4UT+OFvPP5XXz1/4R9fmJ0dzNLgnBaXpWjoCwECBDoSmA6i6JFv/cQDxzqqxc19E5AI941ew70QiGeHx+Jk+Ctnzk99IguzwyODg8EP37rTaXG9CL42CBAgkKpA+EIlrCanw02m2ozKUxWQCKfKq/KsCPzobz/1iTemLj3az4M47BGcladBPwgQINCRwHQUH49sS7SODDNzs0Q4M6HQkV4I9Otluu2bblreIzhZFuFDgAABAjkV8DJcTgO3frclwuvbuFJQgWS5xCtvT7/4xsXpH+nFcgl7BBf0QTIsAgRKJLC8DCJ5Ge5UiQZdiqFKhEsRZoOsJZAsl3j17IXH3p6Z2Vbreje+S/YHTvYJ9iFAgACBXAokyyCSk+GO57L3Ot1QQCLckEiBogskyyXemL5wtJu7SyRLIJIk2B7BRX96jI8AgcIKWAZR2NBeOzCJ8LUafi6tQLJc4sy56W+8ceHih+YWFztysD1aR3xuJkCAQJ8FLIPocwB62rxEuKfcGsu6wN3fePIjZy9f/srr0xd2t9NXO0O0o+YeAgQI9F8gORo5WFkGcaL/vdGDXglIhHslrZ1cCSSHcbx9ceYfxKfTNX3+cbIMIlkOYWeIXIVaZwkQIOBQjBI/AxLhEgff0BsLHHjuK8ffunTp043WD79/fCzYvW28cYVKECBAgECGBKLHKmGQ7AYxlaFO6UoPBSTCPcTWVD4Flrdbe2fqqz+4dOkvrF0/7KW4fMZUrwkQKLuAU+HK/gSsjl8ivCrhTwINBOKEeE+8//Bvru4/7LjkBmAuEyBAIHMCywnwsXgGeCJzXdOhvghIhPvCrtE8CyT7D5+9eOWR28dG91sPnOdI6jsBAmURuPoi3DH7Af//7d3NcdtGGAbgBZxDbvYxN6sDqwHHTAVRKohKcAlKBy5BHVg55JgxPWlA6YDHHJVbJhMB+RYkRdmWZFIiQPw8nrFHIsH9eT5Z887OYjGVim8/T0F4eytXEvhEIFaIZ9d1cR7/iR51wsQnjfmGAAECBNoQ8ECMNlRH1KYgPKJimsphBF5/eH+a6uJMID6Mv14JECBwh0BzEkQ82+idG+Hu0PHSjYAgfEPhCwJPExCIn+bn0wQIENiDgAC8B8QpNSEIT6na5tqJwPe/vz9LRfE2OnveSYc6IUCAAIGU6voXK8B+EHYVEIR3FXM9gS0E8pFrVZXeCsRbYLmEAAECTxJozgLOJ0EsntSMD09SQBCeZNlNuisBgbgraf0QIDA9AQF4ejXf/4wF4f2bapHAFwIC8RckXiBAgMBjBPIe4PPVFojFYxrwGQK3BQTh2xq+JtCBgJvqOkDWBQECYxNwE9zYKtqT+QjCPSmEYUxPQCCeXs3NmACBnQUE4J3JfGAXAUF4Fy3XEmhBIAfioi5P45bnNy00r0kCBAgMTqB5Elxdv3tWpnPnAA+ufIMasCA8qHIZ7JgF8pPqqro8E4jHXGVzI0DgIQGPQn5Ix3ttCAjCbahqk8ATBCIQH1V1Okup+PkJzfgoAQIEBiRQfCyLKh+BNh/QoA11BAKC8AiKaArjFGgCcZVOnUU8zvqaFQECWaA5Ai0/BvmSB4FDCAjCh1DXJ4EdBPLRa9cpnaS6OIv/sC93+KhLCRAg0EeB9Q1wef/voo8DNKbpCAjC06m1mY5AYLmPOJ5Yl4ofRzAdUyBAYEICRSr+rIrq3R8//HQ+oWmbas8FBOGeF8jwCNwlsNo2kR/hfBrvP7/rGq8RIECgHwLN9oe8+jvvx3iMgsBGQBDeWPiKwOAE1tsmyrp8W6f61eAmYMAECIxSIJ/+UCyfAGf7wygrPJ5JCcLjqaWZTFwgQvFxnDaRt004bWLiPwumT+BwAvWvdZHOY/vDxeHGoGcC2wsIwttbuZLAIASaVeI4baIsylOrxIMomUESGLSA1d9Bl2/ygxeEJ/8jAGDMArdWiU9invYSj7nY5kagcwGrv52T63DvAoLw3kk1SKB/Auu9xB7l3L/aGBGBIQnk1d+0fPTxhaPPhlQ5Y71PQBC+T8brBEYqEKH4qIqtE3WcOBG/AF6OdJqmRYDA/gT+jgdfXJRF8uCL/ZlqqScCgnBPCmEYBA4hEKF4FjfYncYNdrZOHKIA+iTQawFbH3pdHoPbi4AgvBdGjRAYvsDrD+9PimUo9rCO4ZfTDAg8SmD90ItnKeWtD1ePasSHCAxIQBAeULEMlUAXApv9xPFYZ0+w64JcHwQOKtCE37o6f1Y24Xdx0MHonEDHAoJwx+C6IzAkgU0oLk9jj+CbIY3dWAkQuF9A+L3fxjvTEhCEp1VvsyXwaIF8k911SrPYPmGl+NGKPkjgcALC7+Hs9dxfAUG4v7UxMgK9FdisFAvFvS2SgREIAeHXjwGBhwUE4Yd9vEuAwFcEVqF4vVLs9ImveHmbQPsCzWkPF3HD29xZv+1r62HYAoLwsOtn9AR6JxDBeBbnFJ/EOcUn8QvGOcW9q5ABjVCgOee3LtI6/DrtYYRFNqV2BAThdly1SoBACDT7iiMUF0WaOYHCjwSB/QnkLQ91XV2Uy5MeLvfXspYITEtAEJ5Wvc2WwEEFmrOKqzSzWnzQMuh8gAL50cZFquex6jt3xu8AC2jIvRUQhHtbGgMjMG6BZrV4cwrFLGb7fNwzNjsCuwrEXt86gm/Z7PW16rsrn+sJbCEgCG+B5BICBNoXiGB8fB2rxattFLPoUTBun10PvRIoPqa6msd2h3yT27xXQzMYAiMVEIRHWljTIjB0AcF46BU0/q8LCL5fN3IFgXYFBOF2fbVOgMCeBG4F4+M6FbP45eVEij3ZaqYTgXyywzzV6dKKbyfeOiGwlYAgvBWTiwgQ6JvAao/xcRHbKVJRHnsEdN8qNO3xNKc6pOpydXPbZWx1sMd32j8SZt9TAUG4p4UxLAIEdheIcDyLfcbHsc/4uEhlrBzXr3ZvxScI7CawOtHh0mrvbm6uJtAHAUG4D1UwBgIEWhMQjlujnWTDn4feQMirvVeTxDBpAiMQEIRHUERTIEBgN4Fmv3GKVeMqHcW2illsq4itFU6p2E1xClc3N7NdRvhdxBFmOfDOpzBrcyQwJQFBeErVNlcCBO4ViHD8It7MR7jFtoomIEc4FpDvBRvVGxF4U7WIrQ2LfCNbTG0RoXcxqimaDAECdwoIwneyeJEAAQIbgWZ7RYTj5QpyioBcRmiu32yu8FXfBZY3r6WrfE5vrPBe5RXeGLNtDX0vnPERaFlAEG4ZWPMECIxX4GYVOaUXEZIjIKcX+QSL+MX6wo163dZ9uXe3WKxXdusytjPEym6Mwuput6XQG4FBCQjCgyqXwRIgMCSBdVDOY15tuYignI5iRTn+5j9WlZcOD/97s5qbqljRbVZy02oLQ/6gVd2H+bxLgMADAoLwAzjeIkCAQBcCnwTmzerysuuinK3HEL+wB7/SvFm5Xc2qrvIWhav83a1V3Pytldys4A8BAq0KCMKt8mqcAAEC7QrMPvz2XUr/fntHL0d3vNbiS9/8ldJ//3zegZvOPhfxPQECBAgQIECAAAECBAgQIECAAAECBAgQIECAAAECBAgQIECAAAECBAgQIECAAAECBAgQIECAAAECBAgQIECAAAECBAgQIECAAAECBAg8TeB/BpaYUQW/wmcAAAAASUVORK5CYII=;" vertex="1" parent="1">
          <mxGeometry x="1100" y="630" width="135.77" height="150" as="geometry" />
        </mxCell>
        <mxCell id="RxBK489CV4HZndgK19Fy-9" value="Redis" style="shape=image;verticalLabelPosition=bottom;labelBackgroundColor=default;verticalAlign=top;aspect=fixed;imageAspect=0;image=data:image/png,iVBORw0KGgoAAAANSUhEUgAAAgAAAAIACAYAAAD0eNT6AAAABHNCSVQICAgIfAhkiAAAAAlwSFlzAAALEwAACxMBAJqcGAAAIABJREFUeJzs3Xd8XGeVP/7P89w2M+rdVbIcS7Kd2E7iBFhI4vRqAml2nARSbNhdFli2wvKDBZayBdhlWXaXH3EaSRZCem8QklDTY8exLbk7buoa9bnlOd8/7siRbdlWmZk7c+e8Xy9eNpI8OlG599znOc85AGOMMcYYY4wxxhhjjDHGGGOMMcYYY4wxxhhjjDHGGGOMMcYYY4wxxhhjjDHGGGOMMcYYY4wxxhhjjDHGGGOMMcYYY4wxxhhjjDHGGGOMMcYYY4wxxhhjjDHGGGOMMcYYY4wxxhhjjDHGGGOMMcYYY4wxxhhjjDHGGGOMMcYYY4wxxhhjjDHGGGOMMcYYY4wxxhhjjDHGGGOMMcYYY4wxxhhjjDHGGGOMMcYYY4wxxhhjjDHGGGOMMcYYY4wxxhhjjDHGGGOMsVwigg6AMZZ9CJDvLlwYU5pm6BFHWsp2ZYeXmLNrV0IAFHR8jLGp4wSAsTxDgNh06vxp0lELoaGJlJgnBNUpJWZJqBpIVACycMx/rJSrIHskqBUC+0iI3URimwC1gLBh/vzmreJ+eBn+T2KMTQInAIyF3MbT51eIBH1YgD4IwukK4lQpUZmOz6UUhqSgtyHoVUD8nqT47YK3mvel43MxxqaGEwDGQmbDwoXlUldnC9C5guhsSHFisBGpFkC8AOBZaakXGl/d2htsPIwxgBMAxnIeAbL55MalROIyABcTcLoEZNBxjUkpV0n5slB4DBKPLljXvDPokBjLV5wAMJaDdtTVRexS8zwF+XEBtRyQ04KOaXLoTUXyAaXJ+096a+PWoKNhLJ9wAsBYjnh78eKCiExcSoSrBNRlRy3Uy1n0JpH4me659zW8u+29oKNhLOw4AWAsi+3+0KzowGDBpQJYqQjLpUQ06JjSTQEklXoJQtxjGO4DJ7yxPR50TIyFEScAjGWZ15cuNYq83gs8T66SUn08fE/646eAYQE8IojuampqeZ6PGDKWOpwAMJYFCBAtixs+QBA3KBIrpURV0DFlHaX2kZQ/hcKdC95pbg46HMZyHScAjAWoeVHDXBLiBhDdACkbgo4nZxD9QQi6Q1h0Hx8rZGxyOAFgLMO2LZ1b4rraCg/ykxI4I+h4cplSGBISDwC4ff665pcFoIKOibFcwQkAYxlA10Db3Nx0PgRuIuDjEogEHVPYKGC7AG7XlHdX4ztb9wQdD2PZjhMAxtKo+ZSGBcqTNwpSn4CUM4KOJx8ofxXgOSlwu+z3HmvcujURdEyMZSNOABhLsR1L6kqHKXItBG4SwAeDjievkeokyLsJ4raF6zdvCDocxrIJJwCMpQBdA21Ty/zzJNRNCuIKXuLPPkrhVSHFbZrl/pwLBxnjBICxKdlwysJ5uufepIS4UQKzgo6HjYOiQQj8AsBtTetbficACjokxoLACQBjE7SpqakIFq5JLvGfGXQ8bCpUM0He5njGTxdv2NAadDSMZRInAIyNAwGiZVHDmSTEzRB0DSALgo6JpZBSLkE+LjW1trFhy7PccZDlA04AGDuGlkXzZnlSu1EQ3QQh5gUdD0s/pbBXCroDwO3z17fsCDoextKFEwDGDtMyb56lCrXLFeEWABdKQAYdEwsGEX4pQGvloHqEjxOysOEEgLGk5iUNJxPELQBdD8jyoONh2UR1Ecmf8nFCFiacALC8tmHhwnLdcFcRxGoBnBJ0PCz7EfCKULSWbHHfgubmvqDjYWyyOAFgeYcAuenk+ecJolsIuEICVtAxsVykBgjy56TE2gXvbH6FjxOyXMMJAMsbm5Y0zQFwkyC6GULUBh0PCxFF70JiLXTcM/+Nlo6gw2FsPDgBYKG2o64uYpeYH1eQq0ngPMk/8yytlE2QD0uh1ja+veUFnk7IshlfDFkotSyed4oHbTUI1wuJ0qDjYXlIqZ0k5W0S6o6mdVv2Bh0OY4fjBICFxoaFC8uloa4TilYLiZODjmcyzNo62Hv2AIr70ISFApQEPQWBtftLpj95zksvuUHHxBjACQDLcWEr6Cs44yxM++o/If7oQ4g/8iCcffzgGCpK7YcUd0pX3db47tZtQYfD8hsnACwnvXvKgjrN824C0c2Qsi7oeFJGCMz+yZ2Inf5BgAgDr/wB8YfuR/+LvwLZdtDRsVRS6tcK2q3R3qGH63ftGg46HJZ/OAFgOaNl3jxLxeTHAaxWQpwf1oK+yImLUHfv/Ye8zYv3oPfxR9Dz0AOwt28NKLLMMmvrIKIxJJo3BR1KmqkuQNyjSN7KTYZYJoXyAsrCZfNJjYuhYTVAN+RLh74Z//YfKLrwkjHfN7T+bcQf/AX6nn8GanAww5Gllzl3HorOvxBF518Eq7EJO6+5HIktLUGHlTEEvCKIbnVd/b6TNm7sDzoeFm6cALCstG3p3BLbMVYJqNUQ8rSg48k0c3Yt5jzyNISmHfVj1MAAep95EvGH7sfwxg0A5WAfGiFgNTSi6PyLUHTBRTDrTzj4rqE3X8fuW24IMLggqX4i+TMp1NrGdVte4yZDLB04AWBZgwCx6eT5Zwmi1aRwtZSIBh1TkKq/9FWUXXv9uD420dKM+MP3o/epx+HF42mObIqEQGTBQhSel7zp145dwrHvS3+DvmeezHBw2Ui9QyRv9Vzt3pM2buwKOhoWHpwAsMBtOqVpBnniRgl1C4/cfZ9WXoG5TzwPGYuN+9+QbaPvV88h/tD9GHzjNUBlSR8aIRA5afHBJ31jxsxjfrjb2YntF58NcpwMBZj9FJCQpB4gIdfOX9f8Eq8KsKniBIAF4vWlS41Ct+8yAKuVEpdIiaOvdeexik9/BpWf+fyk/q3z3m7EH3kA8UcfhtvRnuLIxkFKRJec4t/0z7sA+rTp4/6nnT/5H3T8zw/TGFyOU2oLpLjN9sw7F2/Y0Bp0OCw3cQLAMmrToqYmCNwiBN0IiJqg48l2MhpF/ePPQ6+snPyLKA/9L7+E+MP3Y+C3L4O8NDYZkhpipy5F0QUXofC8C6FXVk38NZSHbZecB7f1QOrjCxulXIJ8XIBubZrf8py4H9xBio0bJwAs7d5evLjAEolrCFgtgTOCjifXlF69EjVf+UZKXsvtaEf8kYcQf/RBOO/tTslrCl1H7LQPoPCCi1F07vnQyqZ2UKPvV89j3998LiWx5RMC3gNwu6drt5/0xsbUfHNZqHECwNKCANGypOF0IrEaglYBsijomHKV0HXMefAJmHVzUvq6g6/+EfGH70ffC78EJRITi8kwEPvgh1F0/oUoPOd8aCUlKYvrvU/fhMFX/5iy18s3yq8NeBYkbh00Ch4/7Y03uJCCjYkTAJZSG0+fXyGG6QYh1RpAnhR0PGFRdN4FmPH9/0rLa3u9veh94lHEH77/mGfuhWWh4E8+gqLzL0Lh2edCFqY+p7N3bMeOKy/LzSONWUgBbZLoLgW5duH6zfnTUIGNCycAbMoIkJuWzD8filZLqT4OSDPomEJHCNTe9TNEF6d3xtHwhvXoeegB9D37JNTAAGQkgoIzzkLR+Reh4KxzJnQiYTLa/vVb6P7ZPWn9HPmKgJcF6NZYdPDB2j/uGQo6HhY8TgDYpG1YurBWd9ybQ9ePP0tFT1mK2jvuzcjnUkNDGF7/NiJLToGMRDL2ObddcBZUf19GPl++IoUeIegeIWlt09tb1gUdDwsOJwBsQjYsXGhqmne5kGqNgrwwrP34s9XMH/wPCs8+N+gw0qLn/p+j9dtfDzqMvKIUXhNSrMUw/WxBczNnXnmGL95sXFpOnrfQI201KXxSSkzhTBqbCnPuPNQ/8BggZdChpFy+9f3PLmqAIH8uSd3auH7Lq9xkKD9wAsCOasPChYW67q4EsBpC/EnQ8TDftH/8JkquvCboMFIqv/v+Zxu1Idl6+B5uPRxunACwQxAgNi2a/0EhaY2AWgnIwqBjYofSq2sw9/FnIazM7M1nwr4v/jX6nn0q6DDYKH7rYXqQhLiVWw+HEycADACweWljJVx8AgqrIcWJQcfDjq3yc3+NitWfDjqMlHA7OrD9knO47382I9oKgbWuo9910saN3KIxJDgByGOHHN+DugJSGkHHxMZHFhZh7pPPQyspDTqUKeO+/7lDKXhC4HEp1a2NDVue5dbDuY0TgDy05cQTZnuadjOIbuHjezlICESXnILqv/sHRE5cFHQ0U6M8bLv4XLhtPM8m1yhgjwBuV1LefuJbm3YFHQ+bOE4A8sSGhQtNTfc+SgKrAVzMx/dyjzmnHsWXfhTFl10OY+asoMNJib5fPod9fzu5aYcsOyiAJNRzpORaz9MeO2njRjvomNj48E0g5JpPaVhASqxWSnxSSkxiNBsLklZegeKLL0XxZZfn/tP+GLjvf7gohXYp6E4icduCd5qbg46HHRsnACG0YeHCQk33Vgio1RDyw0HHwyZGRiIoPOc8FF92OQo+fAYgtaBDSgt7xzbsuHI59/0PKQJeFkRrY7HBB7j1cHbiBCAkCBAtixs+oIRcI6Cu5eN7OUZqiJ3+QRQvvxxF512Y9p772YBsG/0v/grxxx7G4B9+B/K4niyMlEJcCNwjpbqVWw9nF04Aclzy+N4NAK3m6Xs5RghYDU0ovuxyFF+6HHpVddARBcbtaPcnEj72COztW4MOh6ULqddJaLdqlvvzxle39gYdTr7jBCAHESBbTm44V5FcI6Cu4Ol7uUWvmXawmM+a1xB0OFln+N13EH/0YfQ9+yS8eDzocFg6KBqEwH1Kk7cueGvzH7nJUDA4AcghLYvmzVJCjhzfmxN0PGz8ZGERis6/EMWXXY7YaR8ABP/qHQ85jr9F8OjDGPzDb3mLIKwUvQuJtcqUdy98bXNn0OHkE74KZbnXly41itze5YrkGhK4WALhmwITUkLXUfCRM1F82eUoXHYuhGUFHVLOcjs60Pvko+h97GEktvEWQTgpGxAPgrC2aX3LiwJQQUcUdpwAZKmNi+c3CtBqErhJAvm7OZxrhEB00WIUX3Y5ii6+LBSd+rLN8MYN/hbBM0/wFkFIKWAbSNwGHXcufHPz/qDjCStOALLI60uXxoqc3qv9Sn6cGXQ8bPzM2bUouuxyFF92OczZtUGHkxf8LYIX/FMEv/8NbxGEkFLwIPAEINa2ltU8c85LL7lBxxQmnABkgY2L5p8KSWugcL2UKA46HjY+WmkZii68BMXLP4bo4iVBh5PX3M5O9D75GHofewiJrVuCDoelgVLYKwXdAeD2+etbdgQdTxhwAhCQHUvqShPCuo5IrBHAKUHHw8ZHWBEULjvHb9JzxlkQWjib9OSy4Y3vovexh9D79JPw4j1Bh8NSTAEkiX4JgbVyQD3auHVrIuiYchUnABlEgGhZ1HCmknINAddIIDwD3cNMCERPPQ0lH/04ii64CLKAeyzlAnJd9L/0a/Q+9hAGfvcbkMurx2GjFDqExE814d3W+PbWjUHHk2s4AciA9SedVGNq9o3JZj2NQcfDJk5oGrSyMmjlldArKqBVJP8c6/+XlwOSD2tkE6/L3yKIP/4IEi3coj6USP2ehFybIOsXJ69fPxB0OLmAE4A0oWugtWxpuEh5co2A+iik1IOOiWWIlNBKSkclBpXvJwgVldDLKw7+XSuv4G2EDEts3oj4Yw+j96kn4PV0Bx0OSznVByX+j3Sxdv5bzW9wk6Gj4wQgxTYvbqwHcIsicbOUmBl0PCzLSQmtqPjQBGHUysLopEGrqIQwjKAjDgVyHDj79iL+4H3oeeA+qMHBoENiaaAI66SgW21l/d/id97hbO8wnACkQMu8eZaKyY8TxBohcH7Q8bCQEgKysGjMlYQjtyMq87bxkNfVCbe9DW5bK5y2toN/d9tG/mz1iwN5CmHeUMAwFB6AJtYueHvzy7wq4OMEYAreXbLgRElqjYD6BISsCDoexg4SAjJWcESCUHzpckRPPjXo6CZFDQ0dvIG/f1NP/r01+ffODpDjBB0qy2ZKbYEUa23PvGvxhg2tQYcTJE4AJmjDwoWFuu6uhMAaQHwo6HgYmwhj5izUP/Rkdq0OKA9ue/vBm7kz8qR+2JO7GugPOlIWJkq5BPm41NTaxoYtz4r7kXedpDgBGAcCRMuShtMV5KcE1LWA5HNgLGdV/OlfoPLPP5eRz+XF40c+tR/+Z1c3oPLu2suyiAL2COAOALcvWNe8M+h4MoUTgGPYsHBhuaZ7Nwih1gByUdDxMJYKwrJQ/+ATMGbNTsvrD77yexz45tfgtreBEtyjheWOg02GgNvkoHok7E2GOAE4DAGyeXHj2RBYoyCulEAWrZUylhoFZ56NWf/147S89p7P/ikGfvtSWl6bsYwh1UmQdxPEbQvXb94QdDjpwAlA0qZTmmbAxU0ksVoCc4OOh7F0m/mD/0bh2eel9DWdvXuw/aMXAoonuWYSAejzCN2uwtaBATTEIphtGRCCL/GpQMArQtFassV9C5qb+4KOJ1Xy+qfj18uW6dO6D1wihFqjlLxMSnBHFpY3jBkzUf/wUyktCGz/j++i667bUvZ67NhsRej2CN0u4BFBCOC1bn/+QVSTmBe10FgQQaHGnSlTQw0AuE9Jbe2Ctzb/MdePE+ZlApBs1rMaRDdDyhlBx8NYUCo+/RlUfubzKXktsm1su3AZd9dLMwLQ6xG6XcKAd+j9Z3QCMNoMy0BDLILaiAHJqwIpoQibBHCbAefueeu3twUdz2TkzU8CN+th7EjCslD/wOMwZtdO+bXijz+CA1/9UgqiYmNJKKDbU+hxCd5RnjuPlgCMiEiBE6IRNBZYKNZ5wTMllHIhxWNC0G25dpww9AnAxsXzTxKg1UKoTwKyPOh4GMs2BWechVk/+smUX2fXDSswvGF9CiJiIxQBvYrQ7RAG1fFXmwWA13rGNwJ5mqmjIRZBXczivc8UUQp7paA7BdHtTe9s2R50PMcTygSAm/UwNjEz/+NHKDxn8gtjwxs3YNd1V6cwovw2TIRuB4h76qhP+2OZSAIwwpQSJ0RNNBZYKNV5ZlnKKPVrkvK2gujAQ7V/3DMUdDhjCU0CcLBZD8k1QqhV3KwnA4SAjEYhC4sgYzEIXQd0A0LXD/4Pmg4oD+S6/jx21zn4dxoagtffDzU4wFXjAfMLAp+EsCKT+vcHvvZlxB99KMVR5RcFIO76lfxDk/x1mEwCMFqlYaCpwMKcqAmdawVSQinEIfF/Qonb5r+z+c1sKhzM+e8wN+tJMSmhV1bBmDETelUV9Kpq6JX+n1pVNfSyMv+GX1gEragQkClYPCSCGuj3k4G+PnjxHrjt7fA6koNc2tv9FrGtB+Du2wvycmaLLadUrPkzVH72CxP+d15vL7ZfeBbU8HAaogq/YUXocoG4qzDVNHiqCcAIQwrMjVhoLLBQbvCqQKooYL1QuF2YdO/8N1o6go4nJxMAAuTmJU3LBNEaJcRV3Kxn4mQ0CquhEea8Jph1dTBn18KYXQeztnbST4GZQJ4HZ+8eOLt3wX5vN5zdO5HYthWJ5s3+hDc2acI0MefBJ2BOsCCw66d3oP3f/zVNUYWTR0DcI/RM4Wl/LKlKAEYrN3Q0xSzURy0YMidvGdlHKSdZOHj7vpIZz53z0ktuEGHk1Hdz0ylNM8gTN0LQagmcEHQ8uUIWFCC6aAkiJy2C1TgfVtMCmLV1fslwiLitBzDcvBmJls1IbHoXQ2+/CbezM+iwckrBR87ErP++dUL/ZsdHL4T93u40RRQuQx6hyyPEPYDSNI749RQnACM0IVAfNdFUYKHCMHLr5pHNlNpPQt4tNXVn01tbNmXyU2f995Cb9UycVlaO2GmnI3ryUkRPWYrI/PmpWarPQfaunRh66w0MvfUGBt98HQ7fqI5rxvf/C0XnXTCujx34/W+x5zNr0hxRbvPg7+13uYTEOCr5pypdCcBopbqOxgILJ0RNmJKbDKUKAa8Iortssn6++J130t5QI2sTAG7WMwFSIrLgRBScuQyFZ5yFyImLQvd0nyr2rp0Y+O1LGPjNSxh883WQbQcdUtYxpk1H/aNPj2sraO9f/jn6X/p1BqLKPYPJp/1elzJa9ZWJBGCEBqAuaqGhIIIaU8/eG0rOUTZIPiqkujOdWwRZ9f3iZj0TICWipyxF8SXLUXTu+dDKK4KOKOeooSEM/O436Hv6cfT/9mWeXDdKxepPo/Jzf33Mj3H278P2yy7gUb6juOQf3et2CImAar0zmQCMVqxraIpZmBuLIMK1Aqmj1H5IcQcIa+evb9mRypfOiu/Su0sWnChJrRFQn4CQfCc7BmteA4qXfwzFF18Gfdr0oMMJDTXQj75fPofeJx/D4Ouv5v2xRGGamHP/YzDr5hz1Y9p/+O/oun3qDYRyHQEY8IAeT2X8aX8sQSUAI6QQqI34rYenW1wrkCoKIKHwlAD9d9M7Lc8KTPnQSHDfm7cXLy6wkFgpQGsgxJ8EFUcuELqOwnPOR9mqGxA99bSgwwk9e9dO9Pz8HsQfewRqoD/ocAJT8Ccfwaz/HXuwDzkOtl10Nryu/C2ydMm/6Xc7BDvou/4oQScAoxVpEg0FEcyLWojyQKKUUYRNEvR9Oajuady6ddJLlxlNAAgQm09pWio8+hQErQJkUSY/f66RsRhKr70BZddeD726Juhw8o4aHET80YfQdedauK0Hgg4nEDO++58ouuCiI97e+9Tj2P/lvwsgomARAf2K0OMS+hQhTYX8U5JNCcAIKYBZlomGWAQzLAO8Q5AaCtgDiH/VB9xbJ5MIZOTbsH7RojJdOteDaI0UWJKJz5nLhBVB6TXXomL1p6GV8fiCoJFto+f+n6Hztp/k3ROvPm066h95GjJyaEHg7k9ei6H1bwcUVeY5BHS7/rl9Jwtv+qNlYwIwWoEmMS8WQUPMQgGvCqSGUrtIk1+e/3bzzybSaTBtCQABomVRwxlKyk8RcI0Esre7TLYQAsWXLEfVF/6Wn/izkBoaQteda9F1x615dXqg/JZPo+rz7xcEJpo3Yee1VyIrH39TrM8ldHsK/V4W9W89jmxPAEYIADOTtQKzLB5TnAoK+K0m1afH208g5V/xlg/MK1YJ+QlS4jNCYmGqXz+sjBkzUfOVb6Dgw2cEHQo7DnvHNhz4+lcwtO6toEPJCGEYfkHgnHoAwIF/+iriD90fcFTpYxPQ7RB6PAU3V+76o+RKAjBaVCZXBQosFPGqwBQpGxBfbFrX8p/HWw1IWQKwcfH8k6RQfwHQJwBZkKrXzQclV1yN6i9+5YhlVpbFiNB9711o/8H3/CFHIVfwoQ9j1o9vh+rvw7YLzoIaysrhZpNG8J/2uzzCwETG72WhXEwARpth+asCtRFeFZgKpfCLwoKBm441iXDKX91NJzd9GB6+LCQum+pr5RthGKj+u39A6Yrrgg6FTdLg669i3999AV53V9ChpN2M7/4Ablsb2r77naBDSRmbKLm3Tzn5tD+WXE8ARkSkwNxYBE0xC8V6fnYynSoFvFAYHVh+tCRg0glA88kN5yuSXxXAWZMPL3/JgkLM+uH/Irr09KBDYVPkHNiPPX92C+ydKe3RkXX0mmmQlgV7966gQ5kShfef9gdz/Gl/LGFJAEabZupoKIigNmJB50WBiSF17/z1W24Y610T/lJuXDz/JAj6rgQunnpk+UlGIpj137fyzT9E3NYD2H3z9XD27Q06FHYUCfX+036Yexe+0dOTMwWLE2VKgblRC40FEZTxqsC4kcLHFrzT/Njhbx93ArB+0aIyUyT+RQmxRgJcpTFZUsOsH/4vCs7ghZOwcd7bjV03rsq7o4LZjMifvNcd0qf9sYQ5ARit0jDQVGBhTtSEzrUCx0bq9/PXb/nI4W8e11dt0+KmiwSp23koz9SV33gLqv7q74MOg6VJ36+ex76//XxeHJHLZsMK6PYU4i4hT+77B+VLAjDCEAL1MQtNMQvlhh50OFlJASSGUbKgublv9NuP+dX69bJl+vSe/d8H8HkIfuifKnNOPSr/4gtBh8HSqOi8C1B0wcXoe+7poEPJOwr+2N1ulzCUgbG7LDs4RGgZGEbLwDDKDX9M8dyIBYPbDR4kARGXbi2Ad0e//agJwNuLFxdEevb/HBDL0x5dnqj4089CmGbQYbA0q/rLv0HfL5/N+4FCmTKkCN0OIe7R1KejsJzW5bj4Y4+L18Qg6qMmGmMWKk0eSEQA9iSMI74MYz7Wb1i40DRF4hm++aeOVlKKovMvDDoMlgHGzFmInf6hoMMINY+ALpewbdjD9mGFbr75H8RrH4BHhK2DCfyyqw9bBnjMd79HGHa9wcPfPuYKgG64/wkIbkmXQoXnXQBhGEGHwTKk+NLlGHzl90GHETqDitDtAr2eAq/yj02Ak4Ca5LHBOj42CABoSyiMVfJ3RAKwaUnTOQD+LAMx5RWzrj7oEFgGjbTNZVPnEdDj+q15h/kxnx3FSOOgxpiFEj4ieFCvS+h2FQSO/JockQAQ8PecMKWeMWNm0CGwDDJmzg46hFDwCDjg+NX8+f5Uy8Y23TTQWBDB7Kg5xi0uvzmKsGP46F0vDkkAfr1smY6uAxfwKf/UI9cJOgSWQWTzvmMqaAKYaUrUGP4qQLdHsHnt/5jyYQuAhwcdn0fAliEXzjFWzQ5JAGZ07aslKTmJSgNnz3tBh8AyyNm7J+gQQkUXQKUhUGkIDHp+G99eXhXIKzw+ePxc5d/8B4/T8vKQBKB5UJU2FnI2lQ6Jls1Bh8AyiL/f6RPTBGKagGcmVwVcQoJXBUKrQJNoiFmYF7VQwHv7x5VQhC2DHobH8TtxSALQ57qDQ56OKH+NU67/5RfhxePQSkqCDoVlQPzRh4IOIfQ0ABW6QIUuMJRcFYh7fvtfltukAGZZJhpiEcywDHBPn/GJuwrbhxS8cf4OHFEE2O54qNU4A0g1SiTQ+/jDKLvhpqBDYWk2/M46JFqagw4jr0Q1gZmawDQC4h6hx1UY4hMDOadIk2gosDAvGkGU9/bHjQDsGVZos72xbtUjAAAgAElEQVQJbYsdmQDYCjWmhMUpV8p13vq/KLp4OfTKyqBDYemiFFr/5VtBR5G3NAGU6wLluoZhRehyCXE3z5oECZFTsyikEKiN+JX807hr34QNeoQdQ96k2l8fkWIRgG2DXn79wmSIF4+j9VtfCzoMlkZdd67F8LvvBB0Gg38ufIYp0RTTMMOUiOXJA2Wu1MYV6xpOL47hmpoyLCsrwnS++U8IAdib8LBpwJ307IsxOwEOKsLOIQ9zuRgg5fpf/BW6bv8Jym/5dNChsBQb+MPv0PHjHwUdBjuMBFCmC5TpGhJE6HKAuKfybkpgNtAAzIlaaCiIoNrU+YY/Sb2uwq5hNeXi16MOA+pKHh7kJCD12v/rPyALC1G64rqgQ2EpMvT2m9j3158F2XbQobBjsITAdBOoIQ29yVqBAV7uTLsyXUNjQQRzoyZMmSdLMWmQUIQ9CQ/dTmqy12OOA+5y/GrCE6Ian7lMJSK0/su3QI6DsutvDDoaNkWDr/wee//mL6GGhoIOhY2TFECpLlCqa0gQ0O34rYZ5VSB1dCFQHzXRUBBBpcFP+1PhEbDf9tCWUCndnj9mAgD487U3Dng4IaYhyoWBqaMU2r77zxjevAnTvvpPPCY4R3XddTs6fvh9kHecjhssa1kCmGYK1EBDr0vocQn9OdxXgALuBVhh6GiMWaiPWjD4njElBL8wf1/Cg5uGb+lxEwAAGFaETf0uZkU0VJu8fJNKvY8/AnvbFkz/9r/BrD8h6HDYOHnxHrR++xvoe+7poENhKSIAlOgCJbqAfXBVgODmUEV9UAwpMDfi7+1XGLxtPFUEoNMh7Et4aW19Pa4EAAAUgN3DHnpchbqoDosTu5QZ3vgudq68AuW3fBoVa/4MQh/3t4UFoPfJx9D2vX+B190VdCgsTUwB1JgC1RDo8wjdTm6vCqRLlamjKRZBXdSEztvEU0YAuh2FfQk1rk5+UzXhO02vS3i338F0S2K6yZleqpBto/PHP0Lfc8+g+q/+FgVnnh10SOwwiZZmtP/Hv2HgD78LOhSWIQJAsSZQrAk4yl8R6HYJKarBykmmlDghaqKxwEIpP6ykBJFfc7ffzsyNf8SkvnuKgL3DCp02YVZEolTnbYFUsbdvxZ7P/RmiS05B5We/gNjpHww6pLxn79qJjv/5IfqefwZQXDKerwwpUCUFKnWgX/mTCfs9yr6eO2mKZ5ploDFqoTZm8djdFCEAHbbCAXvqR/omY0rp27AibB30UKQrzI5oiHHBR8oMrXsL733qRsRO+wDKbrgRhcvOzZ0OHyExvGE9uv/vbvQ9+xQX+bGDhACKNIEiTcAloMdT6HYIdpYkAqm8SkSkwLxYBI0xC0U8iCdlPADtCYVWR8EJcGspJes3fa5fJFimS8yISEQ4EUiZwddfxeDrr8KYOQulK65DyRVXQysuDjqs0CLXRd9zT6P7Z/dg+J11QYfDspwugEpdokIHBjw/Gcj1McUCwHTLX+KfzWN3U8ohoC2h0O6kp6p/og75zt5bVzefpLZpSi8o4CcCFicC6SCsCArPPAtFl3wUhWedDWEYQYcUCkNvvIbep59A3/PPwov3BB0Oy2Eu+Z0GuxzADmB/4K14Lzya+FZVTJOYF7PQEIugkAfxpFRCEfbbCl12as/xT4TwtBOu371l++i3pbyCY6SYodtVKNMlppsSUY0TgVShxDD6fvkc+n75HGRRMYrOuwCF516Agg9+CMKKBB1e7lAKQ+veQv+LL6Dv2afgHNgfdEQsJHQBVIysCiigx1WIZ+mqgAAwM2KiKWZhpmVA8NN+Sg14hP0Jhbinsq9WBGlIAEYcTAQchRJDYLopUcBZZUqpvl7EH3kQ8UcehLAsxJaejoIzlqHwzGUwZtcGHV7W8bq7MPC736D/ty9j8A+/hRePBx0SC7kCCRSYEtNMv6lal0tpL/YS40g1CjQNDTEL82IWX5fToNshtNoe+rOotaSHxBHBpHwL4FiKNIEaU0OpwVlmuuk10xA9ZSlip5yK6ClLYTU05V0RobPnPQy99QYG33oTQ2+9Dnvnjpwak8rCaWhkTLEHUBp+Ht+Ox8dsXiSEQK31/thd3qFNLQWg01ZozfBRvvHSlFe/ateunaPfltFDnH0eoW/IRSQhUGNKVBiSfwjTxG09gL5nnkTfM08CAGRhESILFsJqWoBI03xYTQtgnjAPQgtHZa/93m4kNm9ConkThps3I7HpXbgd7UGHxdgRolJgpikwjYBez08G0nnDKNI1NCaf9iM8iCflHALabQ9ttsqKwr6JCKSLw7Ai7Br2sNf2UKVrqDYF94xOM9Xfh8HXXsHga68cfJswTZhz5sKsrYUxuw5mbR2M2jqYs2uhV9cEGO3YvHgPnN27YO/eBfu93XB274KzZzcS27ZBDfQHHR5jE6KJkTHFAsMjqwIupaRITAqBuoiJxpiFGsvgQTxpMOQBrbaHLie4wr6pCrSNk6v8CUcHbKDckKixJPcSyCCybSRaNiPRsvmI9wnDgFZRCb2qGnpllf9nVRW0snJohYWQhUWQRUXQior8v8digG5AGMaxVxWUB3JckOtCDQ1B9fdB9ffB6/P/VH198HrjcNvb4La1we1oh9vRDq+9DWp4OI1fDcaCE5ECM0xxsFag2yUMTWJVICKBpcVR1EctWPy0nxa9rr/MH8+1x/0xZEUfR3/wgUKno1CoCdRYfndBTgWCQ44D98B+uJOpjhcCQtP8mQa6AXj+DZ88jzvpsakRItR1HBLvrwokiNDlEHo8QB3jv1kIgRINKNdE8sRVNGPx5ouRe1RrQk0qMctWWZEAjNbvEfoHPZhSodqQqDIFtDwrXst5RP4N33UB8FM7mzituBjmnHp/i2pOvf+/+rno+O//RN8vnws6vIywhMB0U6AmWSvQ4yoMjMqfo9JPFIo1AT5pnR4uAW22h3ZbhXL+Q9YlACNsRdiT8LDPFqgwBKpNiShvDzAWGkLTYMycBbM+eZOvqz/4d62s/IiP73v+WfT96vkAIg2WFECpLlCqa0iQ33m1UBOI8Ap/2gwpQmtC5fT+/nhkbQIwQhGh3Sa02wpFukCNwccIGcslWknJoU/yySd7Y3btuEdfe12daP3210O9/D8elgAsvv6lTdz1z+/3hmB/fzyyPgEYrc8l9LkurIRAtSlQYWjQ+XeBscAJXX//ab7u/SV7c049tNKyKb/+gX/6Krye7hREytihFAGdrr+/n43n99MppxKAEQlFeG+YsDdBKDf8ngK8PcBY+mklpe8v2Y/aozdm16atp0T8sYfR/+ILaXltlr/sg/v7BC9PV5ZyMgEYoYjQYRM6RrYHTIkSPj3A2JQIXYcxu/b9J/nRT/MlpRmNxT2wH23/9p2Mfk4Wbv0eodX229Tnu5xOAEbztweSpwdMgUreHmDsmLTSsrGf5mfNzpoOkfu/9mWo/r6gw2A5jgB0O/75/YEs6s8ftNAkACNsRdgzTNg3rFBmStSY3FyI5S9hGDBm1R7xJG/W1UMrKQk6vGPq/vm9GHzlD0GHwXKYf4xPod1RcPJsf388QpcAjBgZzNBpKxRoEjWmQJnB2wMshISAVlb+/k1+1HE6c9YsQGbH0/xE2Lt3oeMH3w06DJajBj1Cmx3+Y3xTFdoEYLQBT2H7EKAPK1SZAlWGBpPP0LIcIwzDn9kw+mk+uU+vFRcHHV7qKIUDX/kit35mE9bjEFodD315coxvqvIiARjhEmF/gnAgoVCq+6sChTpnAiyLCAG9vBzGHP/mbtX7N3hjzlyYM2fm5NP8RHXduRZD698OOgyWIzwC2h2Fdlshwcv8E5JXCcAIAtDtKnS7QFQqVJsSFYaA5JbDLEOEacKcXXtEAZ45px6yKERP8xOUaGlGx49/FHQYLAcMK3+Zv8PmZf7JyssEYLSh5GjiPQmgwpCoNiUiXDTIUkEI6BUVRzTGMevqYcycBfC0tkOQ62L/V74Isu2gQ2FZbGQaX69L4Of9qcn7BGCEN1ItaisU6RLVhkSJIbhokB2XsKxRT/OHtryVhUVBh5czOn/8ozFHUzOmiNDh+E/8+datL504ATgMwc8we10FMyFQZUpUGZJ7CuQ7IaBXVI5ZgGfMmMlP81M0/M46dN1xa9BhsCxjK0KrTeh0PHBdX+pxAnAMtiLsHfawf9hDmSFRZUoU8tzNUBOWBbO2buyn+YLCoMMLJUoksP+rXwJ5XtChsCzR5xLaHA89LuX7/Ke04gRgHBSATkeh01GISYFqS6LckOBnvhwlBPTKqiOe5A8+zXMxaEa1//D7sHfuCDoMFjAFoMtRaLMVBrlbX0ZwAjBBg4qwc8jDnoSHCl1DtSlhcSaQtcz6ubDmNR7a8rauHrKgIOjQGIDB115B98/uCToMFiCbgPaEh3ZH8TJ/hnECMEmuAlptD222h2JdoMrUUMqFAllH9fXCnFOP0qtWQK+ZFnQ4bBQ1MIADX/syoPgQVz7q8whtCYVul7//QeEEYIoIQNwlxF0XlgSqDA2VhgT3F8oObkcHOm/9X3Td/hMULDsXZStXIfbBDwcdFgPQ9r1/hrNvb9BhsAwiAF22QqvDy/zZgBOAFEooYE/Cwz7bLxqsNiQKuGgwK5Dnof+F59H/wvP+isA116LkY1fyMb2ADPzmRcQfeTDoMFiGOIrQ5hA6bA8O3/cD4Wja4OFvO+TudG9d3XyS2qbMhRR+BZpAtSFRbvIgomwjo1EUXbIcZSuvg9W0IOhw8oYXj2PnVcvhdrQHHQpLswHX783f7XDTnkAp1Xb9rp3TBA79NvAKQJoNeIQdnof37JGiQQGLOw1mBTU0hPhD9yP+8AOILlqM0hXXoeiiSyEMI+jQQq31O9/gm3+IEYBux+/WN8DL/FmBBB48/OYP8ApAxgmAiwazmFZWjpKPXYnSFav8I4EspfqefQr7vvjXQYfB0sAlSnZTJTh8eD97KOVohr5g1dat2w5/FycAAbKkQJUhuWgwG0kNBR85E2UrV6HgI2dxb4AUcDs6sPOq5fDiPUGHwlJowCO02grdjuJl/mxE+PoNO7d/Y6x38RZAgBKK/KLBBHcazDrKw8BvXsTAb16EMWs2Sq9eiZIrroZWUhp0ZDnrwDe+wjf/EOlyFVoThAGPj/FlLVK/mllX923s3D7mu3kFIMsc7DSoS3CpQHYRloWiCy5G2crrEFm0JOhwckr84Qdw4BtfCToMNkXuyNA0R8HhoTzZbp2jvLNv3rXrqFk3JwBZShMClYZIdhrkTCDbRBaeiNJrVqH40uUQViTocLKas38fdl59OdRAf9ChsEka9Ahttocuh8DP+7mA3hSGcdH1LS0dx/qoQ+4sd9TVTTOktj+9gbGJEACPJ85iWnExij96BUpXXgezti7ocLLSe2s+icHXXw06DDZBREC36/fm7+dq/txB6slhy1q1prm573gfesj9hABxT/3c7QKYk7bg2KSZUqDaFKg0NB5PnG2kROz0D6Hs2utQuOxcHg+c1H3vT9H23e8EHQabAFcBHa6HtoSCzff93EL4jrlz+z+uAMY1WvOI28jd9fX/n4D4VuojY6kiAL/TIBcNZiV92nSUXrUCJVeugF5REXQ4gbF37sDOlVeAEsNBh8LGwV/mV+hyFXh7P8co1QbIm27Ytf3pifyzI+4eP62pKZCR6EZIWZu66Fi6xDT/KGGFISD5qFpWEYaBwnMvQNmKVYguPT3ocDJLKez65LUY3rA+6EjYMRABPcll/j5e5s9R9IgS4k8/uX1720T/5Zh3jHvnzj2DPPUCpOSWaDlCE0CF4XcajHDRYNaxGhr9osHlH4OMxYIOJ+061/4YHT/6QdBhsKPgZf4QUKqNNPmFG7Zv//lYXf7G46h3invr66/3IO6Wx/gYlp2KdP/0QKkmuX9NlpEFhSi+7HKUrrwO1gnzgg4nLRLNm7DrhhUgxwk6FHaYIUVoTfAyfy5TAEnQTwzH+fLKPXu6pvJax7w93F1ffwMpukNKyQ2DcpApgUpDQ5UhYPCqQHYRAtFTT0PZilUoPP8iCE0LOqKUINfFrlVXIrGlJehQWJI/slyhNcHL/CHwR0/gczdu3/56Kl7suHeFe+vrzyeI+wFwC7QcJQCU6n7RYBEfH8g6emUVSq68BqVXr4ReXRN0OFPS/sN/R9ftPwk6DAbAI0K7TWhzFGx+3M9pCtglBP5h6/bt930DqWvFMK67wU9ra+sh5f1SyKWp+sQsGFENftGgqSEcz5zhITQNBcvORdnKVYh98MNBhzNhQ+vfxu6brgfUuE4gsTQZUn5v/i6HoHgoT05TQLck9R2H6Ec379qV8uM0434c/MXChWZicPjrQuCLAPiQc46TACpMf1UgytsDWcecU4/Sa1ah5GNXQBYWBR3OcanhYexa8THYu3cFHUre6nEIrY6HPpdv+rlOKdUvhfyhQ953j9XKd6omfOW/u77+dCixVkgsTkdALPMKNb9osMyQXPGZZWQ0iqJLlqNs5XWwmhYEHc5Rtf7zN9Fz371Bh5F3PAI6HA9tNiHBy/xhMECgH0nD+N7x2vimwqSu9///0qVGrKvrc6ToG1LKwlQHxYKhC7+nQJUpYPKqQHYRAtFFi1G64joUXXQphJE9J3QHX/kD3vvz1YDiLvGZMpys5u90FPfmDwOlEqYm1zq6/vVM3PhHTOkqf3dt7XQh9W8pgZv5uGB4CAGUaBLVpkCxzrs92UYrK0fJx69C6TXXwpgxM9BY1EA/dlz1UbgHeIRIJvS4fre+Xpdv+2GgC6DG1FBlSr+9O9FLJMRdGMYDC8bRy3+qUnLT/umcOUsgxD9LiEtS8Xose1gH5w9IaNxUILtIDQUfORNlK1eh4CNnIYimDwe++iXEH38k4583nygAHbZCq614mT8kTCkwzZSoPFoHV0WDJMWDgujOpvUtL4oUVv6PltIrxr1z5iwjkt+ExJmpfF0WPCmS8wcMiQKeP5B1jFmzUXr1SpRccTW0ksyc2O1/8QXs/au/8PvJspRLENCW8NDhKPDx/XCISIFploaKiUx2VWoXSblWQt3RtG7L3lTGk/IrOQHi7vr684WifxRSnpHq12fBK9AEqg2JMlPycZAsIywLRRdegrIVqxBZtCRtn8fr6cbOq5bD7exM2+fIV72uf4yv11WT6+/Ksk6hLjHdlCiZQh8WpeBJSY8QxI/mr2t+abLtf0dL26McAeKeuhOWCeF9BUKel67Pw4KjS6BC11BtSVi8KJB1IgtP9OcPXLocwoqk9LX3/d1fou/5Z1P6mvlMEdDpKLQ5Hoa4jUJolOoS06zUT20l4C0IfO9AybRfnPPSS+5kXycjl+17TzhhqVL0RQKu5mLB8BEAipPzB0q4aDDraMXFKP7oFShdeR3M2ropv17v009g/z/8bQoiY7byO/W12wSPt1JCQQq/ZqomAw9GCtguCN8+UDbtp5NJBDJyM96wcGGhrrsrhwmfbbPVyR3coSq0TClQZUpUGcmqVpY9pETBBz6E0pXXoXDZuYCceLLmtrdh51XL4fX2piHA/NHv+cf4urmaPzR0IVBjClQZGjL/HKSaAfGlpnUtj05kayCtWwDNJzeeRkp8Sgi1Cni/X4CrgPZk8wqHE4FQEvCLBmsMiQLOBLKOPm06Sq9agZIrV0CvqBj3v9vzF5/CwO9+k8bIwosAdDqENtvDIFf1hUZUCtRYEhXZ0EhN0XMC9OdN72zZPp4PT3m8ry9dGit0+lZB4DOAOPVYH8u/EPkhpgFVhl/5OuaRFxYYYRgoPO9ClK1Yheippx3zY3seuA+t3/pahiILD5f8s/ttNsHlB57QKNYlpmVjrxRFg0LSFxrXbVl7vNWAlF2N3z15QYNU6jMg3CTkxCcH9rl+H+seh39BwkoX/vyBKkMiwp0Gs47V0OgXDS7/GGQsdsj7nL17sHPFx6AGBgKKLvcMekCr46HL5mr+sBAAKpL7+1k/Q4XoTtfV//SkjRvto33IlP8LNi6af6qU3j8oyKtSUeCXIKDN9tCRUOBi2PAq1v29stKJnIdlGSELClF82eUou/Y6mHPnAUTYvfoTGHozJSPIQ40AxF2F1oRCH69qhoYugOrk8DQ9h1YxifCUNuhd2bh1a2Ks90/6v2Tz4sYzQPgqpLhw8uEdnQegk7tfhZ4pgCpTQ5UpcuoXKy8Igeipp8GsrUP84QeCjiarjQzlabUJNl+vQiOq+a16y43c7XlCwNoF65o/Ndb7JnzF3bh4fqMA/asQ+PjUQzs+gt8Yo832EOcxl6HlFw0KVJtays/MMpYuCeU37em0ecUyTEp0gRpTZt/+/mQRXTJ/fcszh7953Ffalg/MK1YJ+U0o+gyk1FMb3fgMK7+YpsPmCVhhFpV+TwEuGmTZqjd5jI+79YWHFP7+frUhEQ3ZQwgBLy9Y17zs8LeP679y05Kms4VSd0LKqXcRSQEv2TWLtwfCTRv5hTS5aJAFzz+1pNBmKz61FCJGcuBZlR7E+f3MUAApRys+aePG/tFvP+aTPAFy8+KmfxbA30+maUi6aMmCjCpT8vZAiHmE5PEphWJNoNqSKNFkEEPvWB5zCGi3PT7GFzIFmr/MX5YN5/fTTAJiSDizAWwa/fajJgC7PzQr2jwUu1sAV6U9ukkS8PdqSnT94PYA78WFU69H6B30YAqPiwZZRgwpf5m/y+Etx7AQAijTBWoMLe8alB0YPHLrfswE4PWlS43+of4nJHBu+sNKjYgUqI1omBnR0GkrtDsKQ7xMFzo2AXsTHvYlgDJdojoNgzZYfhs5xtfL14/Q0IRAlekXGZt5eLkYcAk9Hh3RxGPMBKDQ7fseIHLm5j+ahvfPa/Z6ye0Bh7hQJ2QIQJer0OUqxDSBKoOLBtnkKQI6kzf+Ya4rCo2oBtQYGsrz/NrQaiuMVfJ3RALQvKjhTIL4fCaCSrdiTaA4qsO2/IlbHY4Cz94In0GPsMvzsDfhdxqsNiQsLhpk4+AoQptNaHc9vjaESGlyOmlojvFNQZ9HyaFT2hHvOyIBICn+PhNBZZIpBWZZGmaYGrodhVaHq3jDyCWgNaHQllAo0iVqTMHjidmYBj3//H6Xw8f4wsIfwyv41NAoLgE7hjwQxj7yd0gCQNdAa95MFyOkXzyZ7EVfYUoMeAqtNqGbLwCh4zePUuh1AVMqVBsSVaaAlsdLgMwXdwmtCY/390PESvYNqTQkuBzofYoIWwbVMTtTHpIANDc31kKKQJr8ZFqBJjE3CrgRifZk0aDNS4ChYyvCnoSHfXZyPLEpEQtpgsvGRgA6HIU228MQHxEKjaJkNX+JLvho8GE8ArYOehg4TqJ7yM3+XVvVnGgduU8QZroQmG5pmG5p6Hb9M+d93FMgdBT5syU6bYVCTaDKlCjPg/O/+cwjQqvtHw/m8/vhIAGU58o0voDYirB1yBvXNvchCcCArfqH83hUa5kuUaZLbjkccv0eoX/Iw55hD5WGhipL5uXRoLDy+/MTOhwFxTf+UDAlksv8GvLs+P6E9LmEbUPeuBPeI5b7222F2ZH8WgU43MGeApaGTsfvAMZHg8LHIWC/7WG/7fk9BUyJIr665KwBj3DAVuhxFfi+Hw6Fmn92v4zHhh8TEbDfVthvexP62R8zAaix8rNZwuH8lsMaqk2/E11bQiHu8cUljLpdhW5X8SCiHBR3CQdsj7fuQkLAX+avNiUKuKrvuIYVYeeQh/5JFLYekQAoANsGPcwv0DjjGqVYEyiOabBJQ7vtoZ37gofSkCLsGvawJzFypEiDxScJsw6R3wjqQEJhiFfnQkEXIjnjRcDg5Pu4iPwGP/tsD5P9FRiz4n/AU9g1BMyJ5vdWwFhMAcy0NMyw/KfGtoSaVObFstvoArISXaDK9KuNWbAUgA5b4YB97ONNLHcUaP6Nn4tyx6/fI+wa8qac/B71yF+H45e/1UV5JWAsAkC5LlGuSwx6fqfBLoe46ChkCECPS+hxXURGzhubErwokFkeAe2OhwMJXnkLi3LDn8ZXoPFv03g5irAnodDppKY8/Zhn/jscBQ+E+qjOF7xjiGkCczQNsyx/Xni7zf3Ew2hYEXYPe9ib8FCR7CnALYfTyyO/sK/dVuAt/tynC/jTPA0Jk28q46YIOGArtCa8lE67PW7Tn26HMOy5OCGm5e3xwPHSBVBj+jeGXpfQ7njo4UFEoeMR0Ja8KRXr/lMM9xxPLZeAA7aH9gSP9w6DWHIoTxmvnk0IwX+o3Jfw0tKoblxd/4YUYWO/i7qIhgpO28alWBco1nXYEf9kRYftweFMIFQIfgV63PUQ1ZR/ekDn0wNT4SrgQPLoLW+n5TYhgFLdfyDikd0T1+Mq7E2kd6z9uNv+KgA7hj10u4TaKB8THC+/aFBihiW5aDDEhpJFOXvyfO74ZPlL/YS2FC9xsszTRn4HDAmTV40nrMch7LPH18lvqibc97/HVejrU5gR0VBtctXmeHHRYH7wiHAgQWhNKJQljxHy08/RecmjTK22B86Lc1tUCtRY/jWO7/sT1+0q7E94GMxgBjypwT8egPeGPXQ6HmZFdBTzBW5CRooGZyeLBtu4aDB0CECXQ+hyXBRqAjXJbmbM5x+zVMk+/UFHwyZLAChJLvNzF82JIwDdjt/BL4hBVVOa/DfoAS0DLkp0gVmWDm4bMDF+p0G/4xV3Ggwvf/aACyshMC15jDBfL5WO8pf6O2xe6s9lugAqTcnL/JM00s+i1faQCHDgTEpG//qFUA6qTInpJv9ATMboToMdyU6DDmcCoZJIdhncl1CotvyLZ74sng15QKvtodNRfComh0Wkn8SWc6vsScm2fhYpSQBGtCcn6FWYEjM4EZgUUwAzLA3TLX9pqN1W6OPN0VBxiLB32MOBhD+NsCbE0wjjLqHN9hDndf6cVpqsZ+Ht3smxCWhLeGi3s+tYa0oTAMDf0+hIzl3nRGDyRgZilBsSQw384iEAACAASURBVIoOJlc8njg8/AI4D222F6qCQVcBHa6fvCa4tiVnaQKoMiSqeB7GpA0rwoGEh84s7QeT8gRgxEgi0GErlBsS0y2JKCcCkxI9ZDyxQrsTTMEIS4/RBYMxDagyNJSbErlUUkMAel1Cp+OhO0svdmx8uOX11PV6hNZEdq18eUgcEUzaEoDRuhyFLscfqlJjaijmatFJGV002Of5qwJdKeoJzbLDoAfs8jy8l1Ao1f2JhEV69hYNDnjk/367BIef9nOaX80vuKvlFHQ6Cq22ysgZ/okyhAgmARjhFwu6iGl++9QKg3/QJqtIEyiKaphtSbQ7hA4nPa0iWTAUUXJVADCEh1JDokwPPhkgAH0eocdR6HGJJ/LlOE0AlYZEtaXBytYsM8t55Ne/tdke7Bz7dchoAjBi0CPsGPKwJ6FQnewYpXFF6aQYUmCGJfxOgw6h3fbQm4XZJ5s8J3mBabcBTXgo0gWKNYliXaR9PgfB73LY5xF6XUKfy3UoYcDL/FOXUH4vi1yuzQokARjhKMLeYcL+BKHC8BOBaAiKoIJSZgiUGTqGR4oGHcXd1ULGI79VaI/jF4HoEohJiQIpENUEohpgCUzqiJZLQEIpDCl//segSxhQ4G6VIVKq+zf+oFeSclm/53f67AlBz5ZAE4ARigjtNiWnq/ldpUq4TmDSIlJgdkTDTEui0yG0O9m5J8WmzlVAr1LoPeztugAMIWBIAQ3+Ui8EIMj/U8H/vXNIwFX+/j3XlYaTBqDC5PHVU0EEdCePtIZplktWJACj9boKva56f4mKG05MmkwO5agyJQbckfkD3IglH7gEuEQYOu4ePf80hJUl36+14oXVyTm4v++oUNa7ZF0CMGJYEXYPe9ibGGk5yWdRp6JAF6jXNcyOaGhPNhgK4w80Y/muRE827dEFL/NPUoKA1oSHzixr3JNqWZsAjPAIaE34Q0OKNX8Zi48RTp4ugOmmxDRDotfzv67ZdFaVMTZxUvhHRqtNmfbC0DDrdxUOOP41Mdf398cj6xOAEURA3FWIuwpRTaDK4O2BqRDCP/dbokskCGhPzh/w8uGnnrGQsCRQbWioNHmZf7IIQKdDaLPdjI7izQY5kwCMNuQRdnujtgdMPsM6FZYAZlkaZpjJ+QOOClWhC2NhU6z7+/vFmgQ/A02OS0Cb7V/v8rWJVU4mACMObg8kFIqT+158emDypPCrhStMiUHljyfucnL3jCtjYSKFPx9kGi/zT8mgR2h1FLpz+Px+quR0AjCC8H6XwYj0q94rufJ1SmJSYE5Uw+yIRIdDaOPBLowFwpR+j5QqU3DDtCnodvwbf7+b77f994UiARhtWBHeG/awb9hDueH3zefmQpOnCYEa0y8u6nP94zBxHvbCWNoVaQLVlkQZ9+afNI+ADsdv05v4f+3de3Bd93Uf+u/67ccBQBAk3hRFEQRJWbISJ27VW89N3CpO0qRP124c6VrPKJYtS7Ryk2nS3Ny5N4rbOtM4cW1Kih35EVumKEdy06R5OGO3ia/aTsbtrXpjx5FCmQIBkSKJBwESIB5nP9a6f+wDGRQB8AA4B/ucfb6fGY9nQBBYks7ee+3fb/3W4nP/KoVLAJalQHbcLVZ0eYL+0MPugMdiNksAdPkOXb5DVLJs/kCUImYmQFQzAqAndBgMPHQ00zjIBpO16TVciNJCH+PbqsImACvNpobZxQRhWTAQCvoCDywV2LzQCa5fMX+gaN2xiLZbUFnm7wsdAt6bNm220q3vUsJVymq0RAKwLFLDmSXD2SVFT5CtCuzg9sCmCYCeQNAT+FjUrE7gQmzsHU9UpR2VyajdAXvzb5ZaNoZ3Ik6xyNf9DWmpBGCZApiKDVNxgh2V7YFebg9sSbsTDLV52FcCLsQpJmPDIlcFiFbV4zsMlBw6+QKyaZEBE+xfsiUtmQCsNJ8a5hcTnFkC+gOH/tAh5BGbTfMEGAg9DITAXJKtChRhahbRVvkO6Pe9yj0m72ia11yaHVGeYTX/lrV8ArAsMeBclLWB3OULBgKPLYe3aKcv2Ol7iNVhsjKVsFUbblDraneCwZJDj+/Ad4vNMQDTkWKck01rignAG9jr89aT1ycScprW1gROsLckuK7kcDHOjhLOcf4AFdwu32Gw5NDFm8emxZaNiZ+IDAmXEWuOCcA6licSnllK0RtWegowhd80AdAdZAVPi2l2TJPHdKhIHLL25IOhQ4n3ik2bTw3jkWKG48vriglAFRTZTOjJSLGzUjTYw7M6W9LuAfs9h+vbHKajbCrhtWfXEzWm0opjfHzh37zp2DAep5jnCuG2YAKwQXOpYW4xwemyoD/IphIGzPQ3zQPQH2bFl3OpYTJKMc3uQtQkOn2HwcBhty8cyrNJiVVesOIUEev6thUTgE2K1XC2bDhXVuz2s+2BnSwa3JKdnmBnu48b2gyTkWGKNwRqQAKgN8iGj3XwdX/TFlJgPE45lCdHTAC2yADMJNmRlHYP6A889IYO7OK5eYGsKBpMsu0BFg1S3nwBBkLHVb8tMAMuporxMkeONwImADW0mAKvpileqwwiGixxbOdWCIBuPxuGsphm8wdYNEjbrc0J9vAY35YkCkwlKSbKiojP/VyYc4tv/BoTgDpYOYgoKxp06AnY+WMr2j3Bfk+yosE4e4NYYtEg1dEuP2vT28VpfJu2qIbxsmI6UfByzY+qTt01Njpx5xu+zgSgzrKiwRSny8qiwRrwUOnYGDhcThTjsWEm5g4i1YYToDfIjvFx9W5zDFkvlfFYcZnd+hqDc78nuPpEJROAbcKiwdrr9B06fSAuucqKi7HTIG1K4LJJof2+B77wb05qWfHuRKyIeB02DAVSMf3Yan/GBGCbXV006NAbeiwa3IKs06CH60rATJz1a5hjgRFVoaMyja+H0/g2bUkN5yPFNCeBNiQxfPSe0dETq/0ZE4AcZUWDijNLyk6DNZCNJ85u5hxPTOvZ7QsGQ4+rcFtwMTZMRClmmWw3LFP9rwt9vY9idPU/ZwLQAK7qNFjKKt95a9q8leOJpyqrAiwabG2CrE3vQODQzvP7m5IaMBWnmIgUZW7vN7qXNG5714MvvBCv9Q1MABrMXGqYW0gRiKKv0iEv5L1q0zwBBiurK3NJNlTkIguTWopfGVHdHzqwg/fmLKbZ3v4FNu1pDqrfjmF/7/6zf31hvW+7IgFwqnMQVsA0gtgM58opzpVTdFdOD/A40uYJgC7focsHInWYiBVTsYK5QHG1OcGeyv4+d9Y251KiGI8Ms7xQmofpn4npe+5/9dWZa33rFZfFo4C7cfjgawD21C042rQ2l/UU6ON44ppQADOcMV44nZ5gT+hhVyDcRtuEbJlfK8v8vC6aix2d7+n5hfWW/Ve66vo4duDgr4rgl2ofGNWKE0GvnyUD7EVeG/Np9qbD8aPNqzsQ7Ak87GBh36YsLRfORspum01GgRkneODukZF/v5G/d9WVcnz//u5U/Jecw2DtwqN62eE5DITCY0w1kphhIjJMxsqeAk1gubCPjXs271JiGI8UcwmT3yb1NfPc++45efLMRv/iqlfM8QMHftzEfQUAN52bhC/frXAOeSPcMkPWU2Ai4tCSRuQJMBBkxZ3srLlxKYCpiMv8Te6iwX7h7lOnPrdal79qrHnlHB8efsggn9x8bJQHEWCXJ+gPPeziUmhNLKTARJRiOmYFdN4CAQZKHgZYB7Mp2TI/h2o1OzMcTyz9+fvHxs5v5eesewkdGx5+2CBPuGt8HzWmkgD9oYf+UOAJ/xNuVaLLxVEpJ5pts7BS0d/Hiv5NuZRUmvYkxmX+JmaKb4noI3ePjv7nWvy8a15KXxw69C7n7GkAO2rxC2n7OQF6fEFf6KGTr001MZMoJspsOVxvJSfYGzr0hKxx2SgFMBWlmIiMTbCanCrGnej/HY6O/vbtqN3iTVXX1LH9h28RL/0yILfU6hdTPjqcYKBUORuddzAFsJAutxxmAVUttXuC60oO3Z4DF682pmzZltVUpGB+2txU9bI4+Vipvf03bn/xxcu1/vlVX1pPXnddx46w/dfg8KFaB0HbzxNBXyAYCB1KXFPdssSAySjFBCcSbkmbE+xdboXNj+WGzK5o2sNPYHMz1TKcPGkiH7l3ZGSiXr9nw5fY00OH3gGkn4Zzh+sREG0vAbDTd+gPHHazccqWLZ8eOF9WLDARqFrJAXtDD70h16U2Qs1wobK/v8iqvqYnAPpDhz0+4tDzfl+cfuHsrr1fe8fzzyf1+n0b9uy+fe1xEPwfpvaL4lyp1kFRPkLJPnz9oYPP168tu5wazpeVswfWEbpsqb+PfSw2JFLDeGSYihUpp102PSfZaPjBknf17BfVcxD5bQCfu/lbL5+q5e/d0jX3xf37h8Xzf02An6xVQJQ/QdZVrT/0sJNFg1tWNmC8nGKKo4lfVxLgujYPvXzwb8hcYpiIU1xMDPwoNT8PQH/JYTD0rjmoSgETxVdE7ImbvvXy1wRbP5Vck2vv+NCh/zWV9NeduB+sxc+jxtFeKRrsZdHglqWWFQyOR4qkRW/eHZU+/T0cy1c1BTAdK8bLikVuKxVCIMBgyaEv8LCZdi2meBGCj6WJ9/T3vvhitNk4anYVGiBPDw//QwD/SiB/o1Y/lxqDJ0Bv4NAfeGj38o6muakZpmLD+UgRtcgNvct32BMKJ1puQKTARKSYitOWTRiLpuQEgzXsZ6HAGQf7N0nsf2YziUDN03AD5Omhg+8yh192wFtr/fMpf52+w0CQzR+grZmODeNRivkCntdyAvT6DgMlh3aeNKna5crRUg6mKo4OJ9hTOX5dF6qjIvilN33rO89upC1w3a5KA9xX33TwF+YS+/mySV+9fg/lJ3CC/kDQF3hg8fbWZDf9FNNx89/y25ygL3ToD9iBslqGbJl/ItJCJoOtqst32FNy6NqmWioD/jMUH3jzX544Uc331zyqb99yS48fJPcp5AMOuBkA5lLD+XKKS1zHKqzdlTe97fqgF1WsWWX3VGxNNaTFA9AdOPSGjoWjG5BU6kImI0PMqr5CEAA9ocOeMJ+VLwXKYvgXN3/rxOPXWg2oWXQvveWmt8DhZ0xxl3NoX+17FjXb95yOuLRVVG0uay7Uy2EtW2IA5pMsEZhJGrOjmwDYHQi6fQ+7fcDxbb9qC2k2gneay/yF4VeO8jXKhEoDnt3RPn///m+cWVzre7YUpQFy4vve9A4YfhFOfqzavxdXzrBO8gxrYTkR9AaC/sChg5nAlhiyLm8zseFSoshzl8AXYJefNY3q8h1YD1o9A3Axyar5OWK6OEoOGAw99IWNd1LKDP9pR8f8O9dKAjZ1ZzZAXnrrzT/qNP0ViPuBzQa33MVqvKwcVlFgnV62KtDNM99bZshW0mYTxWySrRLUswGcJ4JOT9DlZx0j2x27RW5UaobJyDARt86pj1bQ6WWFfbsafF6FAcfe/M0T9672ZxsO+6W33HyrIP11OPeOrYeWMVw5rpKKKRCgL8jGE4cNsERWBGZA2QzziWFBgSVVLGnWKW4jV5IHoOQJSiJo97KtnB2+Q4n/mTZtSbOXmwsJG0AVhQjQ7WfL/M00WdUM73zzt0784Ru/XvU/wYv/y829EtmvGfDTro6nBxa1Ml0t0q23OaKGJALs8hwGeC68bgxAqkBs2UpbCoNCABgE2Vu8J9mSfuCk4ZYum9mlJNvfn+NQnsLwKi8vg8368mL65zd/6ztXNeqr6p/kxPff+O5U3ZPOob/2ka0uUWAyUUyWU0S8igqr5AT9lcYYm+mIRdQIuJ1ZTKVKUXNf2Nz1LgqYLGHXm0+cmFv59XVvud++5ZbQ89OPi+Dh+oa3vplEMVFWzLFwprCcCHr87GJj0SA1i8iAiSjFZGQsaC6QnZ5gsAn29zfiUpR879teeuWvVn7NX+ubX7n14K44Tv4DRG6rf2jr6/az+eALKTAepzxGWEDL7XGnYkWnl60K9LBokBrUfJrNdJiJN1ZrQY2tN3AYLDl0NOMy/zoMwJny1QM4Vk0A/uL7vm9HlJS/KoK31T2yDejwgGHPww0lD1NxiomycnuggC6nhsuLKU4vpegLHQYC15z7blQoZsBMZX9/PmWFUlF4IhgIspqkRji/Xw/zqWEp0YU3fn3VBKANS58GpKEe/iv5AuwJPewJPW4PFFhiwPly9qbV5WWVt7tYKEDbLDFgKlIe4yuYdg8YCDz0BlL4JlbjZcVqO/5XJQAnvv/Gf2SQO7cjqFr47vaAYTJSXEgUvEaLxQy4lCguJcqiQdo2Zc3e9qd4IqlQdvuCgdBDV4vcQGaTrJuorFLGeFUCoHC/2Iz/Wjo8wVC7h33mMBUrxiNjtl5AZTWcWUpxtqyVokEPHc1cnksNZy7JWpbP8hhfYTgR9FWW+dsKusy/mlgNp5bWbhV2RQLw0k037TTg7c38r8cTwWDoYSAAZtMsEZhNmL8XzcqiwR2+YDBgp0HaPANwIc6akS1wO7EwQicYrKwYttrhotSA7ywmiNd5/F2RAJRLMtQGK8S/Jqn0LN/lA0vqXm8uVM+2qZSP+cQwkqQIltKs02DJISzEp5jqLa1M45uIDTFXDAuj03cYDBx2+1KYY3wbkWj28F+4xgPvigRgfHGpZ6ijVM+4ctHmBPvbPFzf5uFCpJiMFYvM8gsnNuBclOJclKI7EPSHHscT06qWKvv7F2K26S2K5TG8gy0+gKyshu8spFU1pLoyAUjd9B41lAq6R+IBGAizavLZ1DAZpbjIc7yFNBMbZuKkMp5Y0Bt6Td3Ji2pjLs269V3i/n5hBC47xtcXOlx90r21XEoUI4vVT9m9qghwMlbsKxX/VtnlCbrafUSlbFLXZJyCc4iKZ0kNry4ZXltS9IYO/YGH9uJ/vGkFM2AmzcbwznPlrzB2eNn+Pmt/Ko1+lhQTUbqhxPaqBGAiMgwE1jKNV0InuL5NsLfNYTpWTETGJh8FlALZXm+k2FlpOby7QG0+6WqK7/4354mg4ugJsgf/Do8jrABgITWcWkyxuInP+NXHAM0wspji5h1rdgkuJEHWBrI3ABbUYaKsmI55/reI5hLDXJIilBT9oUN/6LGnQIHEahiPs/P7XNUrBl+A/tBDf+AQ8rkPIHvrP1tOcb68+e2sVZ/ylysZxXCLrpV2OMGBdg/7Sh6m4qxosMw3iMKJDHitrFlPgcChv8lmfNOVFlPgPGeFFEq7y4by9PgOLbIoXZXZRDG2tPXn0pqv+RfibHr4ULvXsvsrvgP2lBwGQ4dLlaLBS3ylKJzsDLjiQqzY4WWnB3oDadnPfbPJCvuya5NXZ/MTALuDrLdHp8/X/ZXKajhTTjET1+aTvu46/1SsiA041O4K3yt5PSJZ+8jdvo+yARNlxVRcfaUlNY/51DC/mOC1JbCnQIObibOOfazZKQZfgN7Aw0AohT2Jtllp5YjzRLm229LX3Oi/lCheWjAcbPPQzuVRlAS4oc3h+pJgOsmaiLBzWPFc0VPAdxgoOezk578hTMWK82Wt6pwzNb5WGsqzUQZgMlKcLdfnlFpVlX6LqeGlhRQ3lLJ9UlruLZ31l75cGUQ0HXPvsYhmEsVMomh3goGSQ2/gwKtge6lVHvys6C+M3ZXEms26rrbcmvpsOa3r573qUn81w9hSipnEcKCN89lX6vQEne0ebmjzMBkrJnmTKqRFNYwtpnitnFYGi3jcHqgzBTAeKSbKKWq07Uk58gToC7Nrp8Rr5yoGYCbOCpO3Y4Vrw2f9ZhPFt+cNe0OHPSW+B63kC3Bd6LAncBxEVGCJAufL2TI0twfqI7XswT8esdamCLKOnFm3Pj41rmYGTMeKc9H2bm1t6rC/WlaJeCHJugbu4iHqK6wcRFRWh8koKxrkAYLiWd4e6PCAwcBDT8iuZFuRAhgvZx3NeL00v11+1rRnp8/rYjUGYCrKtrbyOGq+pW4/i6nhOwsJunyHfSXOZV9NyQn2tXnYW3IsGiywhRQ4laY4U/5uc6FW70u+EWqG8dgwHqXgollz8wD0htnxaVbzry4FMFlWjMea6xTKmrT7m00ULyXZcuj1bfyPvhoWDbaG2ICzZcW5sqIndNgTOrTzeliTGjAZZ93MuMff3Eoue9vvDRy4I7a6uHKMvFFmz9Ss368BmE4U05ezoSt7mf2taWXR4FSkmIhZNFg0BuBCpLgQKbp8wWDIrbKV1AwTUfbGzwd/c9vlCwZCD10+m2etpayGc5FiOmqs9vJ1afi/fOPrDSpvQEwHV+ULOw22gtnEMJtko4mvCx16W/gobWqWVfXHyqX+Jra8ojkQOrTxRW9N86nhXFlxKVU0Yi1rXSf+XIizZe5dQXbj4/Sm1b2x0+BklGIyMlY/F8ySGk4tZccIB0MP/WHrND4pa/bgn4oNys910yq5rGlPX8hl/vXMVOpZLjdQvVeK8lXB1H3knwG4GBsuxil2eorB0MNuVketqSTAvpKHvWF2HnQi5gzzookMOF1OcTYSDITZvqlf0ERgLjVMlLOTEtS8uirV/F0cob0mRbb6Pb7NR/mqFYhsfwKw0lxqmFtM0Fb+brEIV49W5ySrpO0NHeZXFA3yNlocqRnOlQ3nKwWDg4FDRwFeqxTAdGWZnydempcTQW8gGAg8tOhg2KrElVXbiSYcP72tCcCyJc26Cr4Wpej3s+EPATOBNe3wBDsq44kvJNlAiKsXc6hZrSwY3OE5DASC7iZMji+nlv1zMFFtaqETDIbZiSWPr/trWkyB8Sht6hezXBKAZYlmA1fOR0BP4DBYcuhotrveNvIdMBh6GAg9zCVZp8FLXFotlPlUcSoFXi1nQ4h6w8buMriYGmYSxYXYcmlkQrXT5WXV/Lt84TL/OmaTbJm/CAXbuSYAy1bOY+/0BIMlh93sHLUmAdDlO3T5QKQOE5FhqkHOlVJtpJXhN1OxIhSgO8yuiU4v/6NW86nhYpw9+Btxr5Oq5wToDRwG2K9iXcvPqPGyYrFAn/mGSABWupwaLi+kCJ1iIHDoD4XLUOsInWBfm+D6NpcVDUbaUJWntHWRZe1xx8sK32Vval2+w07PYTvGcSypYS7J/jebNt8+J12Ny/zVSQyYiFJMRsVsVNVwCcCySLN5A2ejSiEKM9R1CbJtlJ7AYSE1TMSKaR65KpxEgWk1TMcpgBSBE3R6QIcTtHuCds8hBDa1hKtmKFu2t7moWQHffGp84BfITj8r6tvNZf51LaphvFz8wuuGTQCWqRkmo6wKfqcvGAx4jPBaOjzBAc/DDaVs2WqiQY+l0NbFaphRYOb1ptIpgOwNLxBB4Aw+sopuEQAmAAxq2XemZojNEKkgYbJYSA7ZiSK+RF3bpSQ7vz/bIllvwycAK2XLkAlK5ez8dG/ggd1V1+YJMFC58Gcr57EbtSMV1Vakhgi2nA8A15w6wQ9F0YQCDIQe+gIHnz3Y1qQGXEiyLbZWe1FqqgRgWVkNp5cMr5UNPUHWU4CZ7fq6PEFXh4dIPUzFWafBmJkAUeHs9AQDJYduPvXXFb2+v9+6XVebMgFYpmaYigxTy9sDocMunh5YV+iAvSUP15WAi5VOg3MtstxFVFSC5Wp+jmW/lstp1pZ6Ji7y7n51mjoBWCnbHqicHggFfdweWJcA6A4cugOHxRSYjBUXovS7K8ZE1PBCB/SHDv28363LkLVWH4/YWn2lwiQAyyI1nFkynF1SdIfZpD02F1pfuwfs9xz2tTlciLKiwSKddSUqms5K057uIP++EI0sO8anmIwVMe9pVylcArBseTDDcnvVwTBrr8qLZW0OlbeJ0OHyiiEuvGyI8rd81HcgdNjRwN0hG8FCapjg/JRrKmwCsNJ8qhhZBPwlRX8o6A88tPBI9qp0eoLODg+JOUzGismyImImQLTtfMlOPfWHDgEP76/rYmwYj1PWNVWpJRKAZcmK6Wu7/WxVoJOVsuvyRXBd6OG60MPFRDERGWY5f4Co7jpc1ha9hyuX60otq2GajJTzKDaopRKAZQZgJlHMJEC7UwyEDr2BwDG7Xtdu32G3D5TVYTJSTMate3yGqB5EgG4/W+bv5DL/upY0W+afirjMv1ktmQCstFgZTXym/N2hGG0sGlxXyQn2tXnYWzJMJ1mtwAIzb6JN8x3Q53sYKDmEvP2sa3ka32xirE/aopZPAJaly9WikWKn7zAQOOxihe26nAj6gmygyPzy/IGIRYNE1Wp3WdOeXt+B7x1rUzNMxca25jXGBOANDFmGOZsowrJUztg6nrG9hh2eYNjzcEPo4UKSYiJSlLkuR7Sq3UE212QnbyzritQwHhkucNx5XTABWEekhteWUpxbStEdZMfjuC+3Pt8Bg6GHgdDDbGKYjFJc5JVLBA9AXynr1lfibWRdc4lhIs7uHSwzqh8mAFVQZFP1LsSKjsqSXU/gwPMDaxMAu3zBLt9HWQ2TsWIqVvAAAbWaksvalPeGDuzSuzYFMF2ZXrrAbn3bggnABi2oYXQxxZlyil7fw0DoUGImsK6SE+wredhb8jAdG6aiFJd5gVPBdXnZMb4uzidZV2TAZDnFZKxc5t9mTAA2KVFgPEoxEaXo8gX9oYfd3M9blwMqRYM+FjQ7PTCdKFjTQ0XhUDlNVOKE0muZW9FtlPLBBGCLDMClxHApSVByQH/A+dvV6HCCA+0ebjD3enUvm3hQswpcpVsfh/KsywBMR4rxmMv8jYAJQA2VFThTTnE2yooGBwL27L4WTwSDoWAgdJhLsvHEl2Ke76XmsMPL9vc5Z2R9sRomKtt/MS/uXMSet/DGrzEBqAO1lYOIBAOBQ0/IG8R6BECXn+2XRiXDRGSY4tEfakCCrCvmYImngq5lPsl6888wqc+X6sQ9Y6OT977hy0wA6mw+NZxKU5yOlosGBSXuDa4rdIJ9bYLr21w2wztWzDMToJx5AvQFHgZDQchreE0GZNdtpJjnMn9DMMHvCq7OFSwC7QAAGGVJREFUwZgAbJPvFg2CRYNVWh5/2hM4LKTAZJTiAosGaZuVKr0teIxvfYlZpZuqIebh/cahGvuB/7HV/ogJwDa7smhQ0B84Fg1WocMDhto97GPRIG2TTt9hT+CwyxdwTtja5lPDeKSYidkGvCGJ+8h7T558ZbU/YgKQo7JaVjRYZqfBar2xaHA8MlziMSKqkeVVp8HQoYPX4rqmE8V42TCf8vprWKZ/ev3Q0EcwOrLqHzMBaACrdhrkcJB1fbdoEIjUYYKdBmkLPMmKdQdCQcALb03J8tC0WBFzBa7RfTM2e887nn8+WesbmAA0mOVOg6dF0RdIpdMgb0jrCd/QaXAySll8RFVpW27TGwgc1/nXtJAaJqIU07GBOXYzsP8pQfDj9788cnG977oiAQhELqUs3mgIqWVTsCY4nrhqKzsNcjwxrWenL9gTsk3vesyAmSTrzc/W3U3E9I+XSqX3PnDixNy1vvWKz74Bcnx4+DQg19cvOtqssNJtrI/dxqqWGDAVZQ2GIi5ZtryewGEP9/fXlSgwlaSYKCsiXjLNxfCr4ejIL98OpNV8+1VXwbHh4V8RyKO1j4xqRYCs0yCLBqtmBsymWdHgLAsFWoonQH+YjeENebmsKVvm53yOpqQ6Abifunts5E828teuTgAOH+6SNH2RqwDNocPLjhJyD7N6S2qYjLKiQa5sFlcowGDJQx/P76/JDLhYWeaf48XQpOz3VeTBe0dGJjb6N1d9YhwbOvRD5uw/OfC6aRaeAL1B1mmwjUWDVVFkLZvHI8USX3kKo8PL9vfZn39tXOYvANUJ89zP3j0y8jurdfmrxprXx7EDB+8TwRc2HRzlZqefnR7Y7Tk2MKnSXJItf15MFayDbU5dvqsU9vFDv5ZFNYxzDHdTU8Ac7NNBHP+fd5w5M72Vn7XulXLswMH7TPA5rgQ0p9Blvcv7A55trlZkwGRZMclBRE1BBOj2HPaUWNi3lqz7qGK8zGX+AvhGKnjkvpGR/1GLH3bNK+bYgQM/JuKeBbC7Fr+Qtt/y9LKB0GEn346qogBmKtsDC3xVajhOgL5Kxz72yVhdaobJyHgCpgAUGBPBL50cGXn2w6hdK4aqrpwvHT58KE3T5wD5m7X6xZSPdg9Z0WDocVmnSvOV0wPsdZ4/v1LRPxjyKOxaFjXrzT8dG5T7WU1NgRln+qux2RP3j40t1frnV30JPXfLLWG0sPBhiPsXyHquUBNzAHrDbFWgnW9QVYmX36giRcIb67YKJOvY1x86cKV/dRdjw3icYo57V01PVS87cY/Flv76/WNj63bz24oNX0pfPHDgbTB8xjn3lnoERNuv08uKBlk1XR3OO98+oQB7Kkf5+NZxtdSAqTjFRGScjlkM8wZ7wgXBb9z18stT9f5lm7rfP3nrrUHHhZmfNdNfds511jooyocvWU+B/lAQclWgKpdTw0SlqppqJ3SC60rZqGx+Eq+2VKnmvxAre/MXgeosxD0uof+J7XjwL9vStXVs//7rxLmPqLifclv8WdQ4RIBdXjYZrcvne1c1IgUm4xSTkfL0wBaEAlxXeePnDeVqFyvHVdnNshhUdcqJOxpb+kQ9l/rXUpNr7IsHDny/iPs1AX68Fj+PGkfp9fkDDh6bClyTApiOsyNXi1ySrVrgBNdV9vj5KbuSIptnMR4pl/mLQvVVE+83FsoLn3vw3LmFvMKo6bV2/MCB29Twr8W5t9fy51L+nFTmDwQOO1iFVZXZxDAepbjEJYE1BZJ17esPHbjrdKWyARPllC2rC8RM/8rgfXSxd/eXHnzhhTjveGp+yRkgx4aHfxRmjzpxP1jrn0/52+EJBgKHbhZmVWUxBSai7EbO+3gmdMCe0ENfwAf/G2WJY7bMz89LMRjwvBN89M6RkT/ZbNveeqjbpWeAPD106DaR9P+CuB+p1++h/PgO6PU9DJQcSryJX1NsWSLQynUCbU6wp+TQy+K+K6gBF2LFRJxisapBrtToFDAx/T0DPnrv6Oh/yzue1WzLNXj80KFbVe0XDXgPiwWLRwB0VeYP7GLR4DWlAKaiFOORImqRWq5OL3vw7+J8iitEmnXqm4wMKXtLFMUCFL/tBe4T7z158pW8g1nPtl6KXzp8+FCS6M+J4H4AHdv5u2l7hE7QHzr0B46d2q7BAExHivNRcQsGe/ysXe8OfhiucDnNjvHNsJq/MFQxLs4e13Lpt+47+9cX8o6nGrlclU/tvbnXlcofFMiHAOzJIwaqL0FWNDgY8OZfjdnEMBGnuBRb42wQblLoslMjHEJ1JQNwITZMRCkWWNVXHKrfVs/92z7nnvmHJ0+W8w5nI3K9Or9y+HBpKrE7IPZzDnhrnrFQ/XR4QH/goTcQOK7/ritSw2SsmIoNcROtCjgAuwNBb+ChyxMu86+QWHZ2fyIytpAuEAO+CtN/e/fo6H9spMK+jWiIy3S5YBBOf9Yg72SdQDH5ks0f6A8c2vhmeE2ziWIqMlxMG3Ooiwiw03PoCQS7fW75vNFCCozHKaYjVvMXhapGTtzT6vDxe0dGvp13PFvVcJdsZfLgh6D2Pji3M+94qD66fEF/4GF3II33IWwwaoZLqWEmNswm+Z4g8CoP/d2Bw25PwJrPKxmAS0nWCGqOy/yFYaqTcPJJD/jUnadOjecdT6007L33szfdtLNUTn7KLH3EOXdj3vFQfYQC9Ice+kOBz3XjazIA82mWCMwlhstpfWsGnAg6HdDpO+z0BZ0eE7bVLA/lGY8MURNt3dD6zPSvROTjserxeozjzVvDX8uPAu7GoYM/Dmc/A8jfzzseqo+saFAwEHroZKfBqhmAhdSwkBoW1bCgQJQqog0+gwRZ2+eSA9qcQ4cDOnzhqOhrKGvWtOdCpODx/eJQ2J+I2SeaeX+/Gk11dR87cOAmwD1ipvdxCmFxtbuspwCLBjfPkDUeSsyQGKBZVxKYCUQMDtnbvS9ZO15PmuxmkLPZyjE+dusrDgUWBfaUqj5239jYS3nHsx2a8pp/7uDBXZHiPpg+AucO5x0P1YcnQG/gMBCyaJDylx3jU0xEymN8BaLAWQd7Ii2XPt0s5/drpanvqtweaB1dnmCAneQoB7EBk1HKY3wFo4r/Lh4+sdDd/e8aYTBPHgpzK31qePhNDjgiavfz9EBxsWiQtsuiZsv807GC/fqKQYFUYF+G6tF7xsa+kXc8eSvcHfSzN920sxRF91S6DL4573ioPgRAt+8wUHIsGqSaWj7GN8tl/sJQYNqZftp8/zfvOXnyTN7xNIrC3jkNkKcPHvxhmD0ikH8CcHJtUXV4gv6ARYO0eWrAhcqDf4nH+ArEXhRzRy+XF55+8Ny5hbyjaTQtcbf80tDQgcS5DwrwACC9ecdD9bHcaXAgcCixaJCqEKthIjJMJik4l6c4VPFHnrOjd5469adFPsa3VS11l3x237722AvvgLNHAPmbecdD9SEAdvoOg6FwPDGtaiHNzu9PxzzGVxSqetnBfUE8PHbXyMh38o6nGbRUArAsmz0w9DYTecQZfhLOBXnHRPUROsFA4NAfCjxuD7S8S4lhvJxyf79AFDYiKo+XPHz+9pGRS3nH00xa/o74zPDwYAo8IGofhHP78o6H6sNJZTxx6NDB7YGWYgCmYsVElGKR7fqKw/TPDDhaGh3949vBRoybwTthxddvu81/7fTpd0L1CMT9cN7xUP10eoL+0KEncLwACiw1w3iUjeLl+f3CWILiaTh77O5Tp/4y72CaHe9/qzi2//AtcPowWw4XWyBAX+Chv+QQ8koojKw/v2Eq1oYco0yboHrGPPebuhR+ptW69dUTb3vrOHb4cJek6T2AHAF7ChRat5+1HN7JofZNaz41nI8UFxMFn/sFYfrnBhxd6O39vVbt1ldPvNtVwQA5PnTohyB2RAXvcoCXd0xUHxxE1HwuJYbzUYq5hE/9QlCNzbnfUcFj942M/I+8wyky3uE26Njhw/skTT+gKh9wDoN5x0P14YmgrzKeuMSThA3HDJhOFOfLikU27ikEVYw7wadiS5+8f2zsfN7xtAImAJv03C23hPH80j9T6BFx7u15x0P1IQB2+YL+0MMubg/kTgFMRYrzkSLig78YFP+vODsatLd/+fYXX4zyDqeV8I5WA88MD3+fAg8DcjeAHXnHQ/XRVtke6Asd+0pvs9SAyTjF+TIn8hWBqiYQPAfgsXtHR/9b3vG0KiYANfTcwYO7IsV9EDwM4Ka846H68ATorfQUYMvh+kotK+ybjBTc4m9+pjoJJ096SfKpO0+fPpt3PK2Od686WB5EJGZHAPmn4CCiQhIAXb5gMHToYsvhmkoMOB+lmCwrO7wUgv1PNXc0teS5+8fGlvKOhjJMAOrsS4cO3ZCofsBU3s+iweJq9yqnB3yeHtiKRIHzcYqJyHiGv8kpkDrgdyF47K6RkT/nUJ7GwzvVNmHRYGvwRNAfZqcH2FyoetlSv2GinPKNv+nZBTP5NHz3yXtOnjyTdzS0Nt6icsCiweITAN2VY4SdHi+ztaQGjEeK8SgF5/M0vW+q4Ggpin7njjNnFvMOhq6Nd6YcPXfw4K6yyr0m9rADbs47HqqPTk8wGHroDni5Lcv69GulT3/e0dAWKAy/B+hjd42O/hcu8zcX3pEaADsNtoaSE+ypHCNs1Qsv1mypfyriUn8zU2BaYJ9RkU/eNzLyat7x0Oa06n2oYX1h343X+0HyAUA+AGBP3vFQ7QUiGCg5DAQOrbI7sJgC41GKC7HyFbGJqepfipPHFpaWnnnw3LmFvOOhrWmR20/zefLWW4PO6el3KeSIALflHQ/VnleZRjhY4GmElxLDRJTiEtf5m5kC9gem7ujdY688z2X+4ijobadYnjl06HvS1B7ieOJiKlrBYKLAVJI17ymzXW8zu2jAZy1NPnnvq6+eyjsYqr3mv9u0kM/edNPOUhTdA7OHRdz35B0P1V6HB/QHHnpC11SFIAZgNjFciFPMxMZXxKZmL0LlcV2aP3bv+Ph83tFQ/TABaEIGyNPDw2834AjUfsI55+cdE9WWE8FuP5tIuNNv3KLB+dQwHSumE0PMt/2mpYA54A9N8NjdIyN/xmX+1tCo9xWq0ueHhvYE4j0A0wfh3L6846HaCwTYHTh0+/knAwZgLjVcjBUXE+NEvianiksQfNZT75N3vfqdkbzjoe3FBKAgvn7bbf7p0TP/WGBHxOFH846H6sMTYKcv6PIcunxBW52HERmAxdQwlxpmE8NcotC6/kbaJi9B8Vi4o+3p21988XLewVA+mAAU0LEDB24SkQ+qyv3OYVfe8VD9+A7ocA47nKDdE7R7QEmwqXkEiQFlVSwqsKiGhcQwr2BP/oJQwETxR87ZY3eeOvWnXOYnJgAF9sXBwR3S0fFegxxxwFvzjoe2jy9Zv4HACTxkKwcQQCz7f0X2YI9NkGi2f8/GPAWlOmviPuf77jffe/LkK3mHQ42DCUALMECeHhp6m8A7otDbnXNh3jERUd2dAOzxpTD84gMnTszlHQw1HiYALebZw4f740R/2gQfFOBA3vEQUW2Z6VfMvMdfGXvlax8GSzZobUwAWtRzgFceHv77MHvYxP0Dx88CUdNS1cvOyedT4In7Tp16Oe94qDnwpk84vv/Gg+olDwrwPkB6846HiKqkehLiHjfffeGekydn8w6HmgsTAHrd54eG2jzxb3diDwN4W97xENGavmawx06eOvUnXOanzWICQKs6fujQrZraQya40wHtecdDRFgw06fU7PH7xsZeyjsYan5MAGhdx/fv71bx7zPow865G/OOh6jVGDAqsCckTX/7rldfnck7HioOJgBUlUcB96bh4R824Agg7wTg8o6JqMgMeB6Ko6WxkT+4HWzTQLXHBIA27EuHDt2QqH7AVN7vHAbzjoeoKEy1LOKOK/Sxe0dHv5l3PFRsTABo05675ZYwWii/W8UedsDfzTseomalwFmB/WboeZ+54+TJybzjodbABIBq4unh4beY2UNmuMc515l3PERN4huiOHq5r/t3H3zhhTjvYKi1MAGgmjp2+HAX0vRuyWoFbsk7HqJGo6oJBM95IkfvOnXqv+cdD7UuJgBUFwbIMwcO/F0Vd8RU3+2c8/OOiShPqjolTn7LS5JP3Xn69Nm84yFiAkB198wNN+xNveABEzzogL15x0O0zb6pgqNpmn7p/rGxpbyDIVrGBIC2zZO33hp0TE//UwMedpB35B0PUb0oYAL7A1F39K6xV/4fASzvmIjeiAkA5eKpoaE3e849BLX74FxX3vEQ1YTqHJx8TlL/8bte/c5I3uEQrYcJAOXquVtu6SwvLN1lpkecc2/JOx6izTDTVwTuMQ7loWbCBIAaggHy9PDw28XsIRjeA+eCvGMiuhaFfV3MPlEaHf1jduujZsMEgBrO54eG9gTiPQDTB+HcvrzjIVpJVSNx8oyoHr17bOwv8o6HaLOYAFDD+vptt/lnRk//ExE9AnE/knc81NpMdRJOPpmo/tb9Y2Pn846HaKuYAFBTOD40dLM695Co/RSLBmk7qepfipNPJKrP8BgfFQkTAGoqLBqkbWP6x+bcx+8eGfkzHuOjImICQE1puWjQgCNQ+wl2GqRaUGBRTL8A4Og9o6Mn8o6HqJ6YAFDTO7Z//3Vw/vvZaZA2S4GzDvZEEMdP3nHmzHTe8RBtByYAVBjLnQYrg4h+KO94qPEp8BcC+1ipvf252198Mco7HqLtxASACumLBw9+r6g+LOLuBbAj73iosajijwTysbvHXnme+/vUqpgAUKEdO3y4C4ndJ2JHANyUdzyUqyXAnhLVT9w1NvbXeQdDlDcmANQSDJBnhod/xLLtgXcCcHnHRNvDVCch7onQd5+64+TJybzjIWoUTACo5Tx94MAQgA9C5P2A9OYdD9XNCZh+LDY7xvP7RFdjAkAt6/NDQ22+eHcY9BEn7ta846HaMNX/CsGvnxwd/aMPA5p3PESNigkAtTwD5NiBA3/bmfsQoHdwEFHzUcAc7PdN9aP3jI19I+94iJoBEwCiFZ4ZHh5Uk/er4CH2FGh8qhrBuacM9hv3nTr1ct7xEDUTJgBEq3jy1luDzunpd5nKI3D4O3nHQ1dSxSURfDKx9DEO5iHaHCYARNfw9NDQWwHvCBzuBtCWdzytTBXjTvBx892n7jl5cjbveIiaGRMAoio9tffmXi+M3gfTI3Buf97xtBIDRh3so34cf+GOM2cW846HqAiYABBt0Ndvu81/7fTpd5rhZwS4Le94Ck3xsgl+daG3+5kHX3ghzjscoiJhAkC0BV88cOD7HdzPmOld4lwp73gK5CVR/MtgbOTLtwNp3sEQFRETAKIaePbw4f4oTd9vkCM8PbAFipfNw6+URkae44OfqL6YABDV0JO33hrsmJ7+Saj9HJz7W3nH0ywUNiIm/3Lf0A3H3/H880ne8RC1AiYARHVggBw/ePAHoPg5CN4Nzh5YlQGjgH1koafnKe7xE20vJgBEdXZ8/40HzUt+FpCfBkcTAwDM9BVz7iOL3d1P88FPlA8mAETb5Nl9+3qiIHgIav+7ONefdzw5+aYo/s3eAzf8Oy71E+WLCQDRNnvyuus6drS13W+QnxfgQN7xbAvFfxTRj905Ovo1ASzvcIiICQBRbr5+223+2dHT7zHoPy9iwaACi05x3Dl7/M5Tp76VdzxEdCUmAEQ5M0CeOXjwB1OzD0HtJ5xzft4xbYUCfy2wz4RZ177pvOMhotUxASBqIM/ccMPe1PfvF8j7AAznHU/VVOcg7suAPnXX6Oh/4TI/UeNjAkDUgB4F3JsOHPg7Btyn5v6Zc9iVd0xvpKqRc/IVmPud+fLCHz547txC3jERUfWYABA1uK8cPlyaTtO/B5N3w/Qfw7mBvGIx1UmB+6o5+w/lMPzqAydOzOUVCxFtDRMAoibyKODedOjQ3zDVHzPIbaL6A3BuZ71+nwLTUPy5E31ePO/rL7/yyv/3YUDr9fuIaPswASBqYs8BXnLo0M1pan/LgLc4se9RtUMAhpxzYdU/SHUOzo3AcBJiL5rZt33ff+F/O3lyhPv5RMXEBICogB4F3MG9N3c7Pxl0YrtU0p0QCWDmOecSmEUKXDLnZtpKpfO3v/ji5bxjJiIiIiIiIiIiIiIiIiIiIiIiIiIiIiIiIiIiIiIiIiIiIiIiIiIiIiIiIiIiIiIiIiIiIiIiIiIiIiIiIiIiIiIiIiIiIiIiIiIiIiIiIiIiIiIiIiIiIiIiIiIiIiIiIiIiIiIiIiIiIiIiIiIiIiIiIiIiIiIiIiIiIiIiIiIiIiIiIiIiIiIiIiIiIiIiIiIiIiIiIiIiIiIioqr9/xBtI/S1fWgpAAAAAElFTkSuQmCC;" vertex="1" parent="1">
          <mxGeometry x="130" y="1380" width="180" height="180" as="geometry" />
        </mxCell>
        <mxCell id="RxBK489CV4HZndgK19Fy-10" value="Online translator" style="shape=image;verticalLabelPosition=bottom;labelBackgroundColor=default;verticalAlign=top;aspect=fixed;imageAspect=0;image=data:image/png,iVBORw0KGgoAAAANSUhEUgAAAgAAAAIACAYAAAD0eNT6AABoUUlEQVR42uydB4AU5d3/n5nZckcHRVCa7bVEUGOJNZYYjYkaoyYKWLBgwZLYSzQmbyK22FGxi1gQQWNv+dt7QxEs+CqigBxiATy4tjP7n9/dzd2Wmd3nmfrM7PeTnHs7+8xvnme4u893Z5+ZURgAAAAAag4l6g4AAAAAIHwQAAAAAIAaBAEAAAAAqEEQAAAAAIAaBAEAAAAAqEEQAAAAAIAaBAEAAAAAqEEQAAAAAIAaBAEAAAAAqEEQAAAAAIAaBAEAAAAAqEEQAAAAAIAaBAEAAAAAqEEQAAAAAIAaBAEAAAAAqEEQAAAAAIAaBAEAAAAAqEEQAAAAAIAaBAEAAAAAqEEQAAAAAIAaBAEAAAAAqEEQAAAAAIAaBAEAAAAAqEEQAAAAAIAaBAEAAAAAqEEQAAAAAIAaBAEAAAAAqEEQAAAAAIAaBAEAAAAAqEEQAAAAAIAaBAEAAAAAqEESGwAWL5y7biqVOYGx/G6KotbV1ffcIp93Wy1f9m31Unmul/Ki61Zokuddt+Jm8iIVSurknV+qtjLnRituQbDjeeedKNSTvHCNPN8r4oXLW+bF1y2rVeUXJ583vqrwcp3ZYlDB8xXmV6P5lTO/lptf75lfU4YM2+wV1x0EALgiUQFg6ZLPNjdHdK75t25nLZUeltJSTDW/utSIAMCxGQQA0Z7UegDg6knFf2Zamv/O/M/H5te9Zhi4xcMGAQCcJCIALF0yb7T5J+RCTUutn07XZVVVLXgV8uffDOQv2hPIn6MnQv/M7WFgqfmfJ8zHM4YMG7ncQwcAABWIdQBo+ObTX5oP96bS2WHpdJYpSulwIH/+zUD+oj2B/Dl6IvbPXLBu+xqrzcc7zRBwsoeOAAAciGUAWLxwbj8tlX7EfMe/XSZTny0XPwH5828G8hftCeTP0RPX8i/qiPlXKr/c/M+EIcM2u99DpwAAJcQuALS/61eUh+qyPdbs+HzfDsiffzOQv2hPIH+Onvgi/4LvlXyLueDlIcNG7uWhcwCAAmIVAJYu+exS893+adm6nhn7d/0E5M+/GchftCeQP0dPfJZ/UQ5QjKXmf7cbMmyzr7jKAgAciU0AMN/5P5vO1O1Jn/U7A/nzbwbyF+0J5M/RkwDlb2GGADqN8HdDho3EqYMAeCAWAWDJN5++msnU7QT5Q/6Qv03LGpK/hRkC6LTBk80QMN1DxwGoaaQPACT/+rqeOzl/3k9A/vybgfxFewL5c/QkRPlbryrt8wLYnjgSAIA7pA4AOOxfNkpXwypcCPmL9QTy5+hJBPK3MEMAXVlwP4QAAMSRNgA0fDPvwlQ687+ZTF2FVpA//2Ygf9GeQP4cPYlQ/hZmCKALB22CiwYBIIaUAYBO9VO11H/r6npWeOsP+fNvBvIX7Qnkz9ETCeRvobD8J0OGj/yZh0EBUHNIGgDmLanv0XswTvXjXLfiZiB/0Z5A/hw9kUj+7S8r7UcCbsBVAwHgR7oAYMr//my2/hAtlXZoAfnzbwbyF+0J5M/RE9nk34kZABrNpzsNHT7yQw+DBKBmkCoA0N38zHf979TV98rYt4D8+TcD+Yv2BPLn6Imk8reeqmp+9pBhI7f0MFAAagbJAsC8N+vqe2+Ha/tD/vzdhvy5atWA/AlFaf9uzNDhI3HfAACqIE0AoHf/qqa9nc32sJn4B/nzbwbyF+0J5M/RkxjI33pmvn/4wgwAG3oYNAA1gUQBwOndP+TPvxnIX7QnkD9HT2Ikf6LzTwiOAgBQBSkCAN3eN5XOLKyv792r+BXIn38zkL9oTyB/jp7ETP4WZgh4ywwA23vYAQAkHikCwNKGz67LZupPKb7cL+TPvxnIX7QnkD9HT2Iqf8IMAI3m1zBcHAgAZ+QIAEvmfV7fo88G3Usgf/7NQP6iPYH8OXoSY/kTSvt1AdjfzQDwTw87A4BEE3kAoMP/6UxdQ/dV/yB//s1A/qI9gfw5ehJz+VuYAeCDocNH/tzDDgEg0UQeAJYu+ey0TKbuqo4L/0D+/JuB/EV7Avlz9CQh8ifMALDUDACDPewUABKNDAHg6foevX8D+Yt0EfIX7Qnkz9GTBMmfoD9uisrWGzJs5AIPOweAxCJDAHi/vkev9it3Qf48m4H8RXsC+XP0JGHyp2btpwMq7Nihw0fe5mEHAZBYIg8A3zb836K6+p5DIH+ezUD+oj2B/Dl6kkD5W6gqmz5k+MjRHnYSAIkl8gCwbOnnCzLZHiPcrQ3589WB/PlqQP6Coyh7KpP8CUVlLw0dPnI3DzsKgMQiQQD4Ip/J1rtYE/LnqwP589WA/AVHUfZUNvkTZgDABYEAcCCmAQDy56sD+fPVgPwFR1H2VEb508+Tqio4AgCAAzEMAJA/Xx3In68G5C84irKnssqfMAMAjgAA4IAMAaDZDABZvtaQP18dyJ+vBuQvOIqypzLLn8ARAACciTwAfLv08wVZrkmAkD9fnXjJ/4yz/iE6UiH+fdmF3KOwfQXyd3wqu/wJBAAAnIlJAID8+erES/400jPP+l/R0QphHwAgf8FRlD2Ng/wJBAAAnIlBAID8+erET/5E+AEA8hccRdnTuMifQAAAwBnJAwDkz1cnnvInwgsAAtqC/B2fxkn+BAIAAM5IHAAgf7468ZU/EU4AgPyF17V5Gjf5EwgAADgjaQCA/PnqxFv+RPAB4G/844P8HZ/GUf4EAgAAzkgYACB/vjrxlz8tOvPs6AIA5F9hvAmQP4EAAIAzkgUAyJ+vTjLkT0QVACD/CuNNiPwJBAAAnJEoAED+fHWSI38iigAA+VcYb4LkTyAAAOCMJAGgvvsjAMi/Qp1kyZ8IOwBA/hXGmzD5U3NVQwAAwAkJAsD/dX8EAPlXqJM8+RNhBYDqrof8+UYTH/kTCAAAOCNPAID8K9RJpvyJMAIA5F9lvAmVP6FqzAwAo3YTKwBAbSBHAMh0HAGA/O3qJFf+RNAB4PLSOQCQv+PTpMmfnnQcAUAAAMCO6ANAQ8cRAMjfrk6y5U+EFgAc/m34x+b4jTCQP98mvMqfQAAAwBkpAkBG5GZAFV6C/OMlfyKUAAD5s1qUP4EAAIAzMQgAkD9fb+InfyLwAHCp3XUAIH++0cRb/gQCAADOSB4AIH++3sRT/tTwzLP/KbZBQcoDAOTPN5r4y5+eaQgAADgicQCA/Pl6E1/5E+EFAJfahPxFyvL3MAT5EwgAADgTeQBY9u0Xn6bTdRsXL4X8+XoTb/kT4QQAyL8W5U8gAADgTOQBoPwIAOTP15v4y5++OyvwAHCB4NgcvxEG8ufbRFDyJxAAAHBGsgAA+fP1JhnyJ2QKAJC/q7L8PQxZ/gQCAADOSBQAIH++3iRH/oQsAQDyd1WWv4cRyJ9AAADAGUkCQMHNgEqB/MtbJET+hAwBAPJ3VZa/hxHJn0AAAMAZuQMA5F/eIkHypwVnnRNtAID8XZXl72GE8icQAABwRt4AEBP5n37GheHsKJ/wJilQjaTt30suOtdVXHVqFqb8CQQAAJyRMwDERP4EAgAoJGn792IzAJSMkHNH2C0KV/6EppoBYAQCAAB2yBcAYiR/Ik4BIGlyko0k7t/uAODtdycK+VPD9iMACAAA2CJXAIiZ/Im4BIAkykkmkrp/OwJAPOVPIAAA4Iw8ASCG8ifiEACSKidZSPL+vfiicwR2hN2i6ORP32iaigAAgANyBIBM90cAcZI/IXsASLKcZCDp+5c7AEgofwIBAABnpAoAcZM/IXMASLqcoqYW9i9XAJBU/gQCAADOSBMA4ih/QtYAUAtyipJa2b9VA4DE8icQAABwRooAkM7YXQhIfvkTMgaAWpFTVNTS/q0YACSXP4EAAIAzkQeApSVzADqIh/wJ2QJALckpCmpt/zoGgBjIn0AAAMAZCQNAfORPyBQAak1OYVOL+9c2AMRE/gQCAADOSBYA4iV/WuH0M+UIALUopzCp1f1bFgBiJH9CNQPAMAQAAGyRKADET/6EDAGgVuUUFrW8f7sCgMMukFn+9KqGAACAI5IEgLoRVRtKKH/65vQz/x78TqrUlRqWUxjU+v5tDwAxlT+BAACAMxIEgM9sJgGWIKn8iSgDQK3LKWiwf80A8C/7SYBxkD+BAACAM/IHAInlT0QVACCnYMH+7cAuAMRF/gQCAADOyB0AJJc/EUUAgJyCBfu3m9IAECf5EwgAADgjbwCIgfyJsAMA5BQs2L/FWAHAxW9N5PLvuBmQhgAAgANyBoCYyJ+WnBFiAICcggX7txwKAHGVP4EAAIAz8gWAGMmfCCsAQE7Bgv1rz8R/nS2+kiTypwcthQAAgBNyBYCYyZ8IIwBATsGC/euMcACQSP4EAgAAzsgTAGIofyLoAAA5BQv2b2WEAoBk8icQAABwRo4AkC6fBBgH+RNBBgDIKViwf6vDHQAklD+BAACAM9EHgCXlkwDjIn8iqAAAOQUL9i8fXAFAUvkTCAAAOCNdAIiT/Ite5dxgxerCp1g7fm4i1JO8cI083yvihctbcoqhYi1Psu/+97Wrcsmlk4wVK39SPWygIqqqGn87/89qXV2dzc6xe+r6BzHWs/2dVkUAAMAZqQJA/ORf0AIBoPwVBADPSB0AJJc/gQAAgDPSBADIX7TbkD9XLZ/k79SLiy6+tq2xcVXaw0Yq0q9fn9ZzzjoxU75z7J5C/qUgAADgjBQBIM17O2ALyJ9zn1TuCeTP0ZMK/8xNzc3sXxddY5gEdgRggw1G6OOPHqPZdQLyr74ZBAAAnJEkAHDcDtgC8ufcJ5V7Avlz9KTKP/Mrr73FnnjiOQ/bqc7oQ/ZnW2y+KeRfupRzYwgAADgTrwAA+XPuk8o9gfw5esLxzzz17hnGx5/8X2Dv/tPplPHPf5ypQv4lSwW6jQAAgDPxCQCQP+c+qdwTyJ+jJ5z/zP++cnLr99//mGEBMWjQwLZTTzmmaH4B5C/WbQQAAJyJRwCA/Dn3SeWeQP4cPRH4Z77wH//WW1vbNA8brcg2W2/ODjrgd6U9tH1WbVjFi2pD/tQ8laLbAW++m9iaANQG8gcAyJ9zn1TuCeTP0ROBf+bZH37Ept3/iIdtVufsMyaw/v372vQJ8ufbZN4MABoCAAAOyB0AIH/OfVK5J5A/R08EPRP05/99evfKnXfOyanyPkH+fJvs+C8CAADOyBsAIH+eDVTtCeTP0RMXngn68//20/+OGqNB/m663b0SAgAAzsgZACB/ng1U7Qnkz9ETV57Jswv/cUWgn//T6X+bj9q0vL+cwypeVJvyJxAAAHBGvgAA+fNsoGpPIH+OnriU/yuvvR3o+f/19XW5v51/aqqsv5zDKl5Uu/InEAAAcEauAAD582ygak8gf46euJQ/cdMtd+sLFiwK7N3/0CGDcydOODIl1EPI3/aFVBoBAAAn5AkAkD/PBqr2BPLn6IkH+RMXXXxdoNf/3+d3e7CddtyWv4eQv2M5BAAAnJEjAKTtzgKA/EV7Avlz9MSj/L9csJDdfMs9HvpRmXQ6pZ93zslaXV1WtGsFiyB/CwQAAJyRNABA/qI9gfw5euJR/sS0+x/WZ3/4SWCH/wcPHpj788lHp7gaQ/5VN4IAAIAzEgYAyF+0J5A/R098kD89veyKG3M//riCT9Au2HOPndnuu+8k3LWORZB/KQgAADgjWQCA/EV7Avlz9MQn+ZviZ1dcfbNuEsgRgEwmrZ979knVD/9D/rwbQQAAoAISBQDIX7QnkD9HT3ySPzHzoSfYu+996KFPleE6/A/5826kHQQAAJyRJABkR0D+Yj2B/Dl64qP8icgP/0P+vBvpAgEAAGekCAApMwAIrQT5C9aA/AVHUfZ0ScO37PobpwR2+D+dThnnnXOy6nj4H/Ln3UgRCAAAOBN5AGjoPALAvQLkL1gD8hccRdlT+nba9If1DwOc/b/mmgP000891r4+5M+7kTIQAABwJl4BAPIXrAH5C46i7Kn17cSLr9UbV60OLAB0XPxnm6pd61gE+fNWSKVTCAAAOBCfAAD5c9d47PFncwu++lrXc4aipdT2ls1NLaypqblsLSOfV1VFMcRG1YGiKpnz/3qqmnT5z5v3BZsy9QEP/atMx7X//1I+twDy592IYwUEAACciUcAgPyFatwx5T7jk08+D+xe9YX8+te/ZHvusav4zikcjsTyJ26+Ndhr/687Yqh+3LGHFteH/Hk3UrFCGgEAAEfkDwCQv2CNPL3TZ/+86Co9lwtmwloh/fv31c89+2TX25Fd/s3NzeySy64P9Na/Rx7xR7bRRhs4dq1jEeTvpgICAADOyB0AIH/BGt0Nrp10m75o0ZLAAwAx5pA/sC233Ex4PdnlTzz9zAvspZff9GdH2dCnd6/cueec1H34H/Ln3QhXBQQAAJyRNwBA/oI1iht8802DGQJuN0wC/yhg6JDB+iknHyMUNuIgf4Le/a9c+VNgQWrTTTc0Dj/0INWpA5C/twoIAAA4I2cAgPwFa9g3uPjS6/Qff1wR+FEAVVWNP59ytLr24EF8I42J/IOe/Ef77YzTjlP79+8L+QcgfyKdMgPAuggAANghXwCA/AVrODd4/4O57L5p/xEbiEt4jwLERf7EDZOnBPoxypprDsidfuqxKcg/GPnTwvYjAAgAANgiVwCA/AVr5Ku+8s9/Xmk0rlod+McA9G727DMnmO9m+zn3KUbypxv/XHn1TYauB/cRSvulf3crv/Qv5O+5QtdCBAAAnIk+AHwzb1E6UzcE8hetUV3+xJNP/pe9+FJwk9gK2XCDEcax4w+zFWac5E/cfc8M4+MAT6Wsq8vqF55/atnRBcjfc4WihQgAADgTfQCgIwAp6yMAyJ+vBp/8rSf/+OcV+urVTYHPBUin0/r55/1Zq6+vK+5TzOTf3NzELrnshkBP/aOwdPSRo4sCBuTvuULZQgQAAJyJPgB8Y30EAPnz1RCTP/HAzEfZu+/OFhugS2hW+5FHHNIltrjJn1599LFn2RtvzgpsH9HHJSefeKQ6eNDAgq1C/h4r2C5EAADAGUkCQGZE6XLIn28Utq+UNGtqamIXXXyt3tYW3Dtai8KjAHGUP0H7atWq4I6YtE/++8uxXef+Q/6eKzjWQAAAwBkJAsC8stMAIX++Udi+4lD4zrvuD+3ywHQUYNzhB3vYVnTyf/qZFwO98A9xwP6/Ydtus2XnViF/jxUq1kAAAMAZ6QIA5M83CttXKhSmywOHdxQgZZw4YRz3dQFs+xyB/Img3/337Fmvn3/un7WOrUL+HitUrYEAAIAzUgUAyJ9vFLavcBQO8ygAXRfg5JOOFhRptPIP493/Nltvzg78w28h/xDkTyAAAOCMNAEA8ucbhe0rnIXDPAqgKIrQ1QGjlj8R9Lv/TCatn3vWSVq2LiO2IuTvskae5qQgAADggBQBIFXtdsCQv/MrgoXDOApgTf4bOnRt/RSuowDRy3/mg4+z92bNDXK3tN/299jxY8UCBuTvskZHIwQAAJyJQQCA/B1fES8c+FGAwpn/dLrb6IN/r26xRaU7BUYvf7rl78WXXm+0teUCC0a0L046cVzRqX9iw4P8+Wt0N0IAAMAZyQMA5O/4igv5WwR1FMDutL/+/fvq5559skPYiF7+xN33zAz0qn8EHQ2ZcPzh/KEL8ndZo7gRAgAAzkgcACB/x1c8yJ9a0lGAiT4fBah0zv+++/ya/XLn7ez7HLH8Gxq+ZdffOCXQa/4Tow/ej40atamL4UH+/DXKG6XMADAcAQAAWyQNAJC/4yse5W99M2Wqf0cBql3wh059u/CC0wvChhzyJ66ddLvR0LAsUPnTUZAzTz+eL2xB/i5r2P8VSCMAAOCIhAEA8nd8xSf5E3R1wImXXOf5KADv1f7Md7/GYWMPVGWS/+wPP2H3T3/Ey/C54H73D/m7rOH8VwABAABnJAsAkL/jKz7K3/pmytTpno4CiFzql06BO3HCOG3twWtJIX/inxddYzQ1NQf67n+A+e7/DJ53/5C/yxoV/wogAABQAYkCAOTv+EoA8idoLsDFl15ntLa2CUvQzXX+208LPPEoTWwENq19kP999z9szJnzaeAXRfrt3ruxnXf6hcDwIH/+GpXlT0/SGQQAAJyQJAB03gwI8i9/JSD5Wzz51HPCV7/zcpOfsaP3Z5tvvpnAGv7Lnyb+Tb757pwZfFIsQOqy2fzfLvhL5d8xyN9ljeryJxAAAHBGngAA+Ze/ErD8Lf73X1fpq1fzXQHP2x3+GKuvrzP+/rfTOd95+y9/4vIrJhs//rgi8Hf/u+yyHfvNnrtydhPy56/BJ38CAQAAZ+QIAKny2wHbAfkL9o5TDrxHAbzK32LUqE2MQ8ccWEXAwcj/0ceeZW+8OcuXcVSCgs4Ff/2z8xghf5c1+OVPIAAA4ExsAgDkL9g7TjlYXHr59br5rtjxKIBf8icymXRuwgnjUu0TAnn2k0/yb1jyLbvx5qmBXvHP4td77Mx2321Hjm5C/vw1xORPIAAA4EwsAgDkL9g7QfkTH3zwEZs2/WH7uj7K36J//77GOWedZCPiYORPL19+ZTiH/iue9w/5u6whLn8CAQAAZ6QPAJC/YO9cyN/i6mtuMRqWFl8UJwj5W+y2yw5s7713dx6vj/J/9PFwDv0Tjuf9Q/4ua7iTP5HOpMwAsMVuYiMGoDaQOgBA/oK98yB/YknDUnbdpDsMk/YQEKT8iXQ6ZZx+2vFq/359WZDyX/DVQnbbHdMCv9wv4fjuH/J3WcO9/OnFjiMACAAA2CFtAID8BXvnUf7ta5rCv2vqA8Ynn36uBi1/i8GDBuqn/mV8sTB9lD/d6e/q627XV678KZC7HxZCd/w7+I/7qGXv/iF/lzW8yZ9AAADAGSkDAOQv2Duf5E80mcK85NJJRktLa+Dvli322WcP9kvrYjk+yp+4+bZ7jAULFoUyFts7/kH+Lmt4lz+BAACAM9IFAMhfsHc+yt/iqaefZy++9IbreqJ0fBRwnNq/b1/OPcEn/+dfeJX997lXQxmDpqnGiRPGqYMHDXToJuTPX8Mf+RMIAAA4I1UAgPwFexeA/C2qnRboN+1nBZx5olp9NHzy7/jc//68ruuh/IxvuMEI46gjD+k+0gD5u6zhn/wJBAAAnJEmAED+gr0LUP7Elwu+Zrfcem/XhMAw2GH7rdjv9/sNz+grvkyf+19+5U2B3+jHgm50dM5ZJ2p1dVmbbkL+/DX8lT+BAACAM1IEAK1sEiDkX7FOwPK3mHzzVGPBgoWhBQA6jD7+6LHquusOqzT6KjuHjl7cYKxY+VNo/d5++5+z/fbZ06abkD9/Df/lTyAAAOCMhAEA8q9YJyT5E1FMCOzTp7d+3jknl3z0wC//2++cZnz+xVeh9bdXr57Geed0XtAI8ndZIxj5EwgAADgjWQCA/CvWCVH+FmFPCCTWXXeocfyxh6tcYy14+elnXxS+s6EXik77g/xd1ghO/vRqBgEAAEckCgCQf8U6Ecjf4oorJ+vLvvshtAmBxD6/24PtvNO2nDuHsVdff4c9/cwLoVzsx6LrtD/I32WNYOVPIAAA4IwkASDd/REA5F/eMkL5E3SFwEnX3xGqXOnUwBNPOEId7HTDoILh0Iz/O+96QG9tbQstpFD/zj37JLUum7XvFIP8OQdtv8QH+dM3mSwCAABOSBAAPu3+CADyL28Zsfyt7d5z30PGnDmfhhYACPp8/fzzTinfZon8p0ydkW9paQ31Z7l94t/v9rTvFIP8OQdtv8Qn+RMIAAA4I08AgPzLW0oif+th4qWTQrmkbiEd8wEOsz2/fvnyFeyaSbeHOkmRaL/e/2mF1/uH/PlrhCd/AgEAAGfkCABa5dsBlwL5c9byUf70MPvDj9j0Bx4L9doAxJ577Mx+9audi3YFnet/2RWTjebmllD7QqcqHnPUaHXE8KHF+8n2WQUg//IlPsufnmSyGQQAAByIXQCA/Dlr+Sx/i5tumRratfUtVFXNH3vMGGXdER3XByD5T7rhTv2HEK9UaDFq5CbG6IN/b3uGAuQvNpqg5U8gAADgTKwCAOTPWSsg+RN0bYDL/31jaFfZs8hk0vnzzj6p/ec1KvnTNQrOOXOCZrdnIH+x0YQhfwIBAABnYhMAIH/OWgHK3yKqjwJ69eqRz6TTRhTyLz70D/nz14hO/gQCAADOxCIAQP6ctUKQv0UUHwVESfehf8ifv0a08icQAABwRvoAAPlz1gpR/gR9FHDFlTfpq1atDv3deNi0X+737JMgf6Ea0cufQAAAwBmpAwDkz1krZPlbzJv3OZt6z8xQLxAUNt2H/ocULYf8xUYThfwJBAAAnJE2AED+nLUikr/V+t5p/wn9AkFh0nHBn1/bjJwDyL98SYjyJxAAAHBGygAA+XPWilj+FhddfJ3R2LgqcSGgf/++xpmnHVc0LshfbDRRyp9AAADAGekCAOTPWUsS+dPTJQ3fshtvustoa8slJgRksxnj7DNOUOvquq/1D/mLjSZq+RMIAAA4I1UAgPw5a0kkf4unnnkh1FvxBgnd5vcP++2lbr31KKeROwP5ly+JSP4EAgAAzkgTACB/zloSyt/69tpJtxkNDctifxRg0002NA4be0DXOCB/sdHIIn8CAQAAZ6QIAKpWcDtgC8i/vJbE8ifoEr2XXzE59KsE+knfPr2Ns888AfJPgPwJBAAAnIk8ACxpPwJQEgAg//JaksvfYsGChey2O+6L5amBpZ/7Q/5io5FN/kQmYwaA9RAAALBDhgCw3AwAfbsWQP7ltWIif4tHH3uGvfHmLA99Dh86358O+2/0P+tXHZ/9PoH8+WqEJ3/6tclmEQAAcEKGAJA3A0DHE8i/vFbM5G+9eu2k22M1H2CXXbZjv/n1Lhzjs9snkD9fjXDlTyAAAOCMPAEA8i+vFVP5Ex3zAW6KxXyAdUcMNY49ZoxafXx2Q4X8+WqEL39aP5vNIgAA4IAcAUBNc7aG/IV6EpH8LTrmA0yTej5Ar5498ued03GbYchfbDSyy59AAADAmegDwOKCjwAqAvkL9SRi+RNPP/Mie/W1t6UNALSf+/btrY8+eD9tePttfkV2EeTPVyM6+RMIAAA4E5MAAPkL9SRi+dPh/9vvnK4vWrRE2jsFFu5nTdOMX/xiC3Xfkmv+Ow8V8uerEa38CQQAAJyJQQCA/IV6IsFh/6n3PCj1Z/9O+3ngwDX0E447TCu8/G/5UCF/vhrRy59AAADAGckDAOQv1JOI5X/f/Q8bH3/8GZP1kH97r6vsZ1MYxj6//VXRZYCDlP+yVWk2t6EH+7Shni1tTLeZzQxq26YrSlrz9EPhyKpWReuZyeuu9l/B902tqrKqVTO89qdNZ6mUxnL+jbB7n7fklKamNm2lx0oVXgjkn8ifPgZRLfrh+j1Xp878GlTwfIXZutEUY858XG4+f8/8mvLORX1eiXrcQSBxAID8hXoSofwbGr5tf9f/448rpBV/e68597OmafrwYeso4+nMgADk/9Sn/dmr83vnflidyv/Ukk6nNJWp5peiKL6JRawM37bcd43j99EnseTd/SKI9dplpz0cMGFVfsJc1HNeyd+aVY4juToqJtLQze9t8ev5jv98Zz58bC64952JfW5xtyfkQ9IAAPkL9SRC+b/62jvs2f++JP2dAN3sZ5ogeMif9tNGDB8isEdKlnY+vPFVb/bER/31xSuyzFBSmmn98vUhf4/jhvzdjx/y52ls5Nt/zpaa3z5h/kk5492JfZa72zNyIGEAgPyFehKR/Gmi38233huLi/142c/tEwS3pQmCe1TZIzZLzYf73x/IXv6id66xLZMi6be/y7dbH/L3OG7I3/34IX/RxvmOz+pWm6/d+c7EPie720PRI1kAgPyFehKR/Old//977hWjpaU10fIvZMCAfsYxRx6i9uvXx2aPFG2x/b/3zxrIXvi/3nqLkdVSKa1CSwb5ewTyd9W1opUgf3eN6e+LkWfLTZNOeOeiPveL76lokSgAQP5CPYlA/p3v+nXzXb+0p/cV9drnOXR1dXX6Hr/aUdtx+60d/zS/saA3u+X1gfm8klWcxN/R0vEbd2MVKgP5C/Ua8vc47mTKv3D/mSGgxfzm5Xcm9tlLbITRIkkASHU9h/w5ehKB/Old/3PPv6o3N7fUpPwLGTZ0bX3cEX8qOl1w4fIsm/TyWsaSn3qo2Uyq4vqQv6fhFtSD/N2PH/L31rh8/9H3eYMtNa263TsX9flKbLTRIFUAgPw5ehKy/OP0WX9XrwOUv0WPHvXGfvv+Wh01chN20+uD9Le/6s0ULaOVfsZf1jfnb9yNVagM5C/Ua8jf47hrR/6FGAZrNB9+985E+U8dlCYAQP4cPQlZ/nH6rL+r1yHIv4t0L+Obdf9XMVL9Kh7u7+qb8zfuxipUBvIX6jXk73HctSl/CyPPvjMfTn7noj7TxUYfLlIEAFUrOWQK+Zf3JET5NzQsjcV5/WWjDVP+JouHnGko/TZTVbX6rxHk72m4BfUgf/fjh/y9NeaTv4VhsBbzYU+ZjwTIFwAg//KehCj/++7/jzFv3hf51ta2WHzW3zWmkOXfVLchWzrsTKOurq5qSIL8PQ23oB7k7378kL+3xmLytxoaebbCfNhP1hAgVwCA/Mt7EpL8Z3/4MXvqqeeNFSt/itW7/vYxhSx/4qsRF+uZ3mvjM3/fazrVg/zdjx/y99bYnfwtzBCw1Fy0iYwXDZInAED+5T0JQf4dd+67X//mm6WKYch7DX/H0UYg/+/XOICtXmtflq7yuT/k72m4BfUgf/fjh/y9NfYmfwszBHzyzsQ+PxPbM8EjRwBQU1VaQf6Coyh7alfn0ceeYe++96H0l/F1HG0E8tfVerZw+EV6Xe81Ktof8vc03IJ6kL/78UP+3hr7I3/rJfPP1Q2yXTUwBgEA8hccRdnT0jp0uP/xJ/6f0di4Klbi79+/r7HB+sPV2R9+YrS2tkXS9yVrn2To/bZScZEfP2s61YP83Y8f8vfW2D/5Wxj59tMDdzJDwIciXQ0SyQMA5C84irKnha/QXfumz3g0Vuf0E9lsxtjll79Qd9tlx/YRNTe3sFvvmGYsWfJtqONof/e/3uV6XY/ejvaH/D0Nt6Ae5O9+/JC/t8b+y99Cz7PZ707ss6VId4NE4gAA+QuOouyp9S19zj9j5uPGvM++YLoen8/5VVU1hg9bJ3/4oQd1XnWveKyvvfEee+7513RzfKGcsUDv/vMDtnE87Q/y9zTcgnqQv/vxQ/7eGgcn/86PAYgx70yU474BkgYAyF9wFGVPrW+ffuYF9uZbs2J1MR+ivr7O2H+/PdVRIze1HWt3uGlh99z7kPH1wm/McKMHOsYv173KqO89wHYbkL+n4RbUg/zdjx/y99Y4WPlb3+XzyhdmANhQpOtBIWEAgPwFR1H2lL59+533Tfm/aDQ1NcdK/JqmGhtttD47bMyBBf22l38hc+Z8yp4yx7tixcpAxksz/5vW2pfZffYP+XsabkE9yN/9+CF/b43DkX/Xf/OKFEcBJAsAkL/gKMqefvDhx+yZZ1/Uf/xxRawu5EP06tXTGDtmf3XEsKGOY622n6Y/8Jjx0cef+X40YMGIS/W6PoPL9ink72m4BfUgf/fjh/y9NQ5P/l3P8spbZgDYXmQYQSBRAID8BUdR9HRJw7fs3mn/Mb777odYveMn6F3/lltslj/wgN9qlf6xeffT0qXL2D33/cf44YflvuyLluxQ1rDuP1jpXf4gf0/DLagH+bsfP+TvrXH48m9fklcazaXDor44kCQBgOOUqrIntguq10mY/En8D/7nydheyGfNNQfoY0bvrw0eNJD5If/Cf98XX36TvfzK20ZLS4un/bJ47VMNdY0t1MKr/kH+noZbUA/ydz9+yN9b42jkby01Q8DfzQDwT5Eh+Y0EAeATx9MAIX/n8S5ZEm/xp9MpY+utR6n77bOnzfC8y9+CJglOmTpD/8bcX7quu/pY5Ot1L23N9B6ccd4M5O9u3JC/+/FD/t4aRyf/rlcl+BhA2gAA+duPt/0d/0PxFT9BF/Q57NAD1fZ3/WU7wz/5FzJn7qfs0cf/n7F6dZPQPmtLrcG+2eCyrsP/kL+n4RbUg/zdjx/y99Y4evnTy3mmLDUDwGCRofmNlAEA8i9fNwniL3vXX7YzgpG/RVNzC3tgxmPGF/O/5p4k+O3AI1jbwN1ongLkD/m7Whvyr9aw9uRvPbwzsW+kDpYuAED+xesmQfxE2bv+sp0RrPwLX/3668Vs2vRHjJ9+qn4p5EVD/5pL9d8oBfl7Gm5BPcjf/fghf2+N5ZG/9S0CQEEAgPy7mf3hR+yFF183vv32exZn8du+6y/bGeHJv3DpAzMeNz76+P8qHg34ar0r2jK91kyLbM+nbgttC/L31mnI32YJ5C/YlF/+Fm8jAHQEAMi/AxL/08/E8zz+Umzf9ZftjGjkbz20Hw144FHHowELNrw+l63vlYL8vQH5u+pa0UqQv9vGcsqfQAAwA4BSOAegRuX/9NMvsHffm603rlode/E7vusv2xnRyr+QB2aWHw1ozgxlS9f/B8ukql+oysduC20L8vfWacjfZgnkL9jUnfyJmg8A3xTOAagx+TfRTXpmPGbM//LrfHNzS+zFT9B5/UeNO1jr16+P466x2zNRyt+CjgZMn/m4vmLFT+3/Fo29tmU/DjuBpTRNpIdeui20NyB/b52G/G2WQP6CTd3Ln0AAsAJADcn/ywVfsyeefE5funSZ0taWi+3n+4XUZbP6L3+5rbbbrjtW3DV2e0YG+Rdy+53T228u9EPv3dWVa48xA4C3fyLI349a/nYa8rdZAvkLNvUmfwIBgAKAwn83QObUMgbyf+75V9i7732YiM/3Cxk8eKBx7DFj1Y5b9jrvGrs9I5v8LeZ8NI/d/lxL/se1DlG8BADI349a/nYa8rdZAvkLNvUufwIBYNEn3HcDLCUO8jdlzx57/Flj/vyv880tyTjMb5HNZoxf/2pndccdt6m6a2yeSCt/q/njc3uzmXOHuj4CAPn7UcvfTkP+Nksgf8Gm/sifmtX8aYDFASA58n/77ffZ62++m/v22+/VOJ/G50TVd/2FO6P8ifTyp/8+8+kANu2Dwa4CAOTvRy1/Ow352yyB/AWb+id/AgGgKwDEX/7fNHzL/vvfl+jzY6OxcVXKfV156dmzXt9vn19ro0ZtyrVrbJ7EQv4W42eMFN5HkL8ftfztNORvswTyF2zqr/wJBID2AMB/ZFxG+f+/zs/2V6z4KdZX66uEqqrG8OHrsMMPPajyu/6CXWPzJFbyJ0QDAOTvRy1/Ow352yyB/AWb+i9/AgFAIADIJv8HZjxGN5nRW1vbEvXZfim9evU0Djrgt+pGG63Pu2vsnsRO/oRIAID8/ajlb6chf5slkL9g02DkTyAAcAYA2eRPD2+/+z57+JFnDF1P5rv+TCad23ijDdTRh/yeb3wJkz/BGwAgfz9q+dtpyN9mCeQv2DQ4+RMIABwBQEb5Ww90Bb8XX34j+B0VMo6X8a2ya2yexFP+nYvGz6weACB/P2r522nI32YJ5C/YNFj5EwgAVQKAzPK3mHzzXfmvvloc+b70g7q6rLHH7jtVPrXPYdfYPIm1/IlqAQDy96OWv52G/G2WQP6CTYOXP4EAUCEAxEH+FpdcNslYseKn2H4UIDTJz2bX2O2ZuMufqBQAIH8/avnbacjfZgnkL9g0HPkTCAAOASBO8ifouv5XXHmTviqGN/Pp37+v/qc/7quNGD7E1a6x2zNJkD/hFAAgfz9q+dtpyN9mCeQv2DQ8+VOrdyb2QwAoDQBxk78FXeP/zinTY3NWAJ3Tv+MO22i777pj9x92wV1jt2eSIn/CLgBA/n7U8rfTkL/NEshfsGm48icQAEoCQFzlb/HKa2+xp556wZD5egCZTFrfYIMRyp8O3Lf9cD/k77xOaQCA/P2o5W+nIX+bJZC/YNPw5U8P71yMANAVAOIuf6v1jAcf1997b450RwHoc/511hmUP/APv9Ws2f2Qf+X1CgMA5O9HLX87DfnbLIH8BZtGI38CAaAzACRF/hY33Dglv3DRksj3rwV9zv+bPXfVNi+4hC/kX31dKwBA/n7U8rfTkL/NEshfsGl08icQAMwAoFgfASRE/kRTUzO75rrbIj8zoL6+zth7r13VbbfZsqS3kD8PxxR+BAD5e6jlb6chf5slkL9g02jlTyAAWAEgQfK3nv64fAW7+tpb862tbaHvZ5rgt83Wm2u/2XM3m95C/rwVjpk5SmAdyF+o15C/x3FD/qIbl0n+BAIABQDF+rg8OfK3vl2wYCG77Y77QrtccJf499rNwX2Qv0iFY2aMcrOjvO4KofqQP28pyF+oOeTvQ7PKv0sIAF0BIHnyt3j++VfYf5971fO+qkSR+B0GAvmLVxjPFQAgf6FeQ/4exw35i25cRvkTCADtAcD9m2PZ5W9x+53TjM8/X+D7UYAy8Tt0APJ3V6F6AID8hXoN+XscN+QvunFZ5U8gACz6uOAjADHiIn+Lq66+WV/23Q++nB7Yt09vY8stf6YWid+hA5C/+wqVAwDkL9RryN/juCF/0Y3LLH8CAcBlAIib/OnV5uZmdvW1t+srV/7kKgTQefx9+/bO/2av4tP5KnUA8vdWwTkAQP5CvYb8PY4b8hfduOzyJxAAXASAOMrfoqHhW3bzrfcazc0t3B8H0JX71ll7EPv9fntpgwc73J4X8ufdiEgFhwAA+Qv1GvL3OG7IX3TjcZA/NXsXAUAsAMRZ/hbvvDubPfLoM1XPDOjfv29u81GbpHbdZQdW8Q59kD/vRkQqtC8cP3OUbXufdgX33vFW06ke5O9+/JC/t8aQP4EAIBAAkiB/i6efeZG99PKbZcvr6+tyg9ZaU9lrr121dUcMFe5axyLI32OFroXFAQDyF+o15O9x3JC/6MbjJH8CAYAzACRJ/tbLN91yd/6rrxcrdIh/wIB++R223zrVccU+9z+dkL/nCkULuwMA5C/Ua8jf47ghf9GNx03+BAIARwBIovwt3nlvNttm6y34163QDPL3XKFsod3tgD3uCu69462mUz3I3/34IX9vjSH/UhAAqgSAJMu//Cnkz7fJcORP8AYAyN9bpyF/myWQv2DTeMmfQACoEAAgf75NQP6eKzjW4AkAkL+3TkP+Nksgf8Gm8ZM/gQDgEAAgf75NQP6eK1SsUS0AQP7eOg352yyB/AWbxlP+BAKATQCA/Pk2Afl7rlC1RqUAAPl76zTkb7ME8hdsGl/5EwgAJQEA8ufbBOTvuQJXDacAAPl76zTkb7ME8hdsGm/5EwgABQEA8ufbRCX5vza/J9tp/VUVakD+/DXyNhcCgvy9dlpW+e/8P21sQI9810pfLPP33l1UdXWLyuZ/pxYsEe+nUHPI34dmwcifQADoDACQP98mnOS/qlVlZz28jv7dqpT6py2XK3/6+XKbGpA/f42ORqUBAPL31mlZ5d8jm2f3jF9lZFPM9zt28tLUxnI5XVH/M0tTp72Vcb+byhpC/u6bBSd/AgHADADM0+8c5E/yP2XGkPyqXFoxYUre0A/c/EfNDAJee1HT8icKAwDk763Tssqf+Nu+Tcb2G+iRyb8Q3WD5y5/KKi9/ZjM5mrcI5O9Ds2DlTyu8e0mNB4DFC+kIgNvfO8i/VP4WSl7PmSEg9actV7jtRc3Ln7ACAOTvrdMyy5+477hVet/6vC+36vaDn5oV46g76tRVLd2/05B/suRPIAC4DgCQv5P8rY9TVGZ0hoDllcpX6Uftyp84pvAjAMjfVadll/9vNmtlf/51q/iKAfPyPM245MmsKjQsyN+HZuHIn75595L+CADiAQDyryZ/CwoBe2z0Exu//XcpyF9sNLSk6yMAyN9Vp2WXP610/dim3HoDjZSbtYNkRZOij76pXoP8kyl/AgFAOABA/rzytzCMPNt9w59yE3ZeVv2PHORftGT8jFE8Bbg3CvnzlgpH/iPWMNiksU2GpkY3+a8SU19PsfsqTAgsHz/k775ZuPInEACEAgDkLyp/q75uGGz3/2nMnVgpBED+ZUvEAwDkX7W1JPInLti32dhBksl/dny5TM1NuKeucnCH/H1oFr78CQQA7gAA+Vun+v3QnC2arFRN/la99iMBTiEA8i9fkme21wEQ3TtFr0D+rtYOQv703xknrNJ7Zpk0k/9KaW5j+mG31muNLQ5/qiF/H5pFI38CAYArAED+XuVvYRsCIP/yJZ1P+AMA5F+1tWTyH/2LVnbEDm1uioSK48cAkL8PzaKTPy15DwHg4wYzAAxybgH5+yV/C0PvDAG/NEMA5F++pOAJXwCA/Ku2lkz+xB1HrtYH95Xn1D8nbD8GgPx9aBat/AkEgIUfLzADwAj7VyF/v+VvLaYjAb/a6Cd9wk7faZC/88vVAwDkX7W1hPJfdw2DXTemSU9p8h7+t6CPAf5wfY+CG6bw7QjIn6NVhPInEAAcAwDkH5T8rV/lvMHYqHWajAt/s0StUK5aIW7iJn+icgCA/Ku2llD+xEUHNBtbDZd38l8pXR8DQP4+NJND/gQCgG0AgPyDln/XYjMEbLxWc/6ifb5RHFapVIibOMqfcA4AkH/V1pLKn3joxFV6XVr+d/8WDSsU/cjb6zWeHQH5c7SSQP4EAkBZAID8w5J/13LzcSMzBEwsCAGQfwf2AQDyr9paYvmP27GFHbJtzk3BSJkwtY59+V3lP9mQP0crSeRPIAAUBQDIP2z5W99S+Y07QwDk3/3i+Jmbc28U8uctFZ38iTuPWp0b1Ccv3ZX/qjHrK9X464NZwY/r3DaG/IVwIX8CAaArAED+Ucm/q1ftIaDF5uOA2pQ/URwAIP+qrSWX/8/WybEr/tTipmjkrGph+kE31Nt+bAH5c7SSTP4EAkB7AFA6jgBA/pHJv6sehYBBhSGgduVPdAcAyL9qa8nlT1wzuknfaJARm8/+S2mfDPhm2mbEnED+fg2nZAVx+RMIAAs/6jgCAPlHLv/u7VohYLEiMuTiivGXP1HtNEDIn7dU9PLvmcmzu8evjtXkv1IW/aDo46fUdfUf8udoJan8CQQACgCsYw4A5F/QPiL5dz21QsDvFgv9jCRJ/kSlAAD585aKXv70wrid4jn5rxDdYMZRd9Sp365UIH+eVhLLn0AA6AwAkH9B+6jl370htvFard1HAriGnhz5E04BAPLnLSWH/Imp5rv/NXvJf+W/arzxhWr845Es/zUMIH+/hlOygjf5EwgAZgBgzOlKgHZA/pW27af8LXhCQBLlT9gFAMift5Q88m+f/HdwPCf/lbKiSdEPnlzHF2Qgf7+GU7KCd/kTCAALP1pkBoAhfK0h/0rbDkL+FpVCQFLlT5QGAMift5Q88icu/1OTPnJIfCf/lXLx4xn20mdVhgP5+zWckhX8kT+BAMB9BADyr7TtIOVvLdrEJgQkWf706rEFAQDy5y0ll/x7ZuM/+a+U+csUfcLdFY4CQP5+DadkBf/kTyu+dykCwJtmANiucivIv9K2w5B/+6kB5o/LJoO6Q0DS5U9YAQDy5y0ll/yJJEz+K4VuEHToLXVaY4vNn3DI36/hlKzgr/wJBICFHz1sBoD9nVtA/pW2HZ78LTpCwL/aQ0Cy5U/fjH9wFO9q3ED+rrpWtJJIzTuPjueV/6rx9FyNXf1spur47RpA/qKD8l/+BALAwo9OM7txlX1XIP9K2w5f/tZr1pGARYpDUa6dJ7v8ia4AAPm7Wjtq+Sdp8l8p3zcqubG31HUHG8jfr+GUrBCM/AkEgIVz+5nd+JoxtXfxK5B/pW1HJ3/rGzMEDHZzsaD4yJ+odiEgESB/V10rWkm0ZtiT/25+Mc2O360trM2xM+7PsLnfaJC/f8MpWSE4+RM1HwCIxQs/+tgMAJt2L0mO/M9+eJ38983Z4olzsZe/9R8KAa0CFwuKl/zpSfnNgNwB+bvqWtFKojXDnvzXcZneVH7mSS1Kr6xPh4yqMHexqp9xf5brdADIX3RQwcqfQABg7QHgOrMrp3R0JznyP2XGkPyqXFox6W6fGPlb8IaA+Mmf8CMAQP6uula0kpuaYU/+O/SWrN6wQtHGbJdj43cJZ7vtkwFvdpgMWLCDIH/RQQUvf1o8CwGg8GMApfhjAMi/aNvyyd+iWgiIp/wJrwEA8nfVtaKV3NYM88p/85ep7NgpHRPy+vXI6w+e1BLaxw7T306xO15J27wC+QsRsvwJBIBOzBDwNmPqtl0LIP+ibcsqf2sxjdU+BMRX/oSXAAD5u+pa0Upua4Y9+W/C1Kz+2VKlS/oX7NvGdt9UD2XbS1cquSNurSs5ywHyFyIC+dN3sy4dgABALF74Ef2lNUOAkoX8i7ctu/ytZ4qiloSAeMufcBsAIH9XXStayUvNa8aEd9tfOvx+yOSs3tzWPddg2IC8PuWYcI4C5HSmn3xvVvtymXV7AMhfiIjkTyAAFLB44dxnWV7d03oO+cdH/hbdIWCRYr8m49z90cufcBMAIH9XXStayUvNsCf/3fZyik17q/gNuKYy46YjWtX1BxphdIHN+ko1zptJNwiC/IWIUP4EAkABnXMBFrC80hfyj5/8rXIUAjZduzX/r98tUpyLV0IO+ROiAQDyd9W1opW81gx78t/Ym7O5pSuVsgsNbTXCMP59cCv/Xfs80NjMcgfd0PExAOQvOqho5E8gAJRAFwYyJXKVc9cgf5nlb2EbAmImf0IkAED+rrpWtJIfNcOc/PfWfJX99cGM7Wu96ljukVOaQ7sC4U0vpNhDszg3B/k7rhmW/AkEABvo/gD5vGJzfwDIPw7yt17vCAFtHSEghvIneAMA5O+qa0Ur+VFz3TUMduPhTW464YoT787o8xpUx7AR5imBXy5TcsdPzVZPAJC/45phyp9AALCh86OAD80QMKx7KeQfJ/lbtIeAwW32Hwc4rGO7JAL5EzwBAPJ31bWilfyqGeaV/+wm/5UyqE8+d9/xLaEcBdANZhx5e1ZdurLCrxrk77hm2PInEAAc6DgrIP9aPq/2gvzjKX+rK6paLQTIKX+iWgCA/F11rWglP2s+dNKq0Cb/XfF0mj01p/qmrhnTykYNDWcy4IufavrFT6TtOwX5O64ZhfwJBIAKLF4495fmw0P5vLKmYyPIX2r5WziHAHnlT1QKAJC/q64VreRnzdG/aGVH7BjedfgPuiGrL1+tVE0AI4cY+rVjW0MJJSuaFP1PN9pcGhjyd1wzKvkTCABV6AwBj5khoG/Zi5B/LORvoaqKGQJyBSFAbvkTTgEA8nfVtaKV/K3J2B1HrdYH9w1n8t8Ln2jsosfTXG3r0kyfPqFFC+v+ABPNfr00r2A3QP6Oa0YpfwIBgAPbEBCN/A1T/irkX2FH5isoJN95JGBtCgELlQpVpJA/YRcAIH9XXStayW/50+S/68Y26SktnMP/1Sb/lXLAVjo7eY9wjk6Y/dJPuTfT0TfI33HNqOVPIABw0jExkHVMDAxZ/sTR9w6D/Jk3+VutKQRsOazV+Ntei1XbrUgifxrrsQ8WBwDI31XXilbyW/602sQDmo2tRujhnHPforCDb8waLTnGvb01euVzD0wIZzKg2S9jzE1ZtbGZ/8875C9a02mxWGUEAEEWfz33YfNhbzMIZOl5GPL/84ND9aWNGQ3yr7AjOeVvQfvy58Pb2kOArPInCgMA5O+qa0UrBSF/YuaEVXrPrFyT/0q5+KBWtt364UwGfHiWxm58nu8jCshftKbTYvHKCAAuMEPA78yHm/JMGZYX/YMJ+Ucufwvaoz8fkTMusI4ESCZ/Wv/YB7fo/A7ydz/+YOX/hy1b2fG7yTf5r5SNBxv6jYeHMxmQbhB0+C3VrwkA+YvWdFrsorK5yqzLEABcs3jh3OvNP9bjzK9eXCtA/tLIv6uouW+3ohCw5+IKh1OjkT8xvvAjAMjf9YiDkj9x67jVuaH986EcXheZ/FdK2JMBT78/w+Yucv61gvxFazotdid/AgHAIzQ3wPyjPcX89lfmV29HP0cp/67XSzpS4/K3XqN9vPlQ3fjH3nZ/raKTP9EVACB/1yMOUv5r9c7T7H9DU/k/j/eC6OS/UsKcDPjZUkU/+e6sbV8hf9GaTovdy59AAPCJziBwrumSsebjsCJxQf7Syt+C9vXwAXn9mgO/5j5/KWj5E25vB1xhz/EMwn09rlLJkD9x4X7Nxg4byDv5r5QwrwzY3Mb0319bVxYAIH/Rmk6LvcmfQAAIgEVfz6W/2n8xv3Ywv4aaO713oeiCkn++YCNd69ttE/K3XbU9BKxhhYDo5U/4EQAgfz9q2v8E33dsU65/z3AO/7ud/FdKmFcGvOu1FLv3je7dA/mL1nRa7F3+BAJACCxeOHdfc+fvbe7/Dc2n/Tq/6kqaNRhGfjsEAKdyCACuaosNwH09rlLJkv/em7Wxv+wZ3uS/gydnc983Kp7DxkaD8vrkI1pCmQzYsELRj7i142MAyF+0ptNif+RPIAAknPXHPrXAFNuIdI819L5rb9L1S58U8X9w2RqJ/hna9aJmv/+OQP6uqpYvufWIJn3ogOhv+ysKTQZ84tTmUPqd05l+8j0Z7Ytl1qcWkL+bTgQhf1r8PgJAsjEDwHJN0/oahsG0dM98/+FbKkmRP4EAYA/k70dN5z/tPbN5Nv34pthM/itl3E45dsSO4dwmeNZXqnHOjIwK+bvrRFDyJxAAEo4ZAPJmAGj/vj0EZPsY/YaOUpMgf1r6wWVrJvpnyE0AgPz9qFn5T/tpe7boe22mS3PbX1HCnAzY2MxyB1xf5ZoAkH+Vxf7Ln0AASDiFAYCg+QSKVpfrP+LnqbjLn/7/weUIAIVA/n7UrPKn3fz2nmObcmv0Cmfy320vp9i0t/zdVEpj+uTDW7X1B4YzGfDq/6bYk7Md8gvkX2VxMPInEAASTnkAoC/zl15JGQNGbKUqascfljjKn0AA6Aby96NmdfnvslGOnbdPq7viLjj0lqzesEL8yn/V2GFDw7jogNZQPsJY9IOiH3VHxvVtgiF/P2t2gwCQcAoDQOFZAnQkIM+0/Brrbq0w1Xp3ES/508NsBICufVH5Bcjf3bjzZd9eM6ZZ33iwEcrh/zmLVHbqNH8m/5XSq47lHjmlOZSjGLrBjHG3Z9SlKwp+XSH/KouDlT+BAJBwrACQtxF0+8cBakbvN3xLTVG12MmfQACA/P2pySd/mvx373FNRjYVzuS/v9yX0ecu9m/yXymn7dXG9t1CD2Mo7IVPVf3ix9NCtwmG/P2sWf7K+xFPok70H28ZoACgtv/9qPADpaT1vkM209RU8aUJZJc/UesBAPL3oyaf/IkTdmtl+/88nNnzxD7X1Pk6+a+U9Qfmc7ceGc5kwO8bldzomzIpyL/a4nDkTyAAJJz1x5gBQKv+ZiWfV4x+w7ZQrRAQB/kTtRwAIH8/avLLn5hyTFNuUJ9wJv9NfT3VfiW9IAn7BkETH0+xFz+pnmcgfz9rOr+CAJBweAMAYRjM6LP2pmqqvm/HAsnlT9RqAID8/agpJv/N1tHZFYe0uNuQC4Ka/FfKb0fp7My9w7mi4bwGVT/57nTFMUH+ftas/AoCQMIRCQCEoefzvdf5mZKu61P2mmzyp6Kz/z0w0T9DdgEA8vejppj8iWvHNusbDQpn8t/8ZSo7YWrG0I3g5xqs0Sufe2BCOB8DtOSYMfrGrNrokKMgfz9rVn8FASDhiAYAQjdDQJ+SECCj/IlaCwCQvx81xeVP/Ofk1XpdOrjP4ws564GMMesrNZSJhkSYNwh6eJbGbniuPG9A/n7W5HsFASDhiAYAS9bmo9F77U1VCgGyyp/++2ENBQDI34+a7uQ/ZrvW0C6dS+w/qS7X2MxCeVdOjBxi6NeObQ0l3CxdqeQOuzlTNDbI38+a/K8gACQckQBQLmtF7zV4Ey1FRwIklD9RKwEA8vejpjv5E3ce3aQP7hvOjX8en62xq59Nh7GpLsK8JgBx+rQMm7Oo41cX8vezpljvEQASDv9ZAGVLOh9VvdcgCgG9mW2LCOVPJD0A7FLpNEDI3+O4+eS/3hoGm3RYc2g3/jny9qy+8IfgJ/+VMmH3HPvjNuEc5fhsqaKfNDWjQf5+1hTsvfny+5cjACQangBQUdb0zMgbPdf6HzXTc43iFhHLn6jZAAD5exw3n/yJiQe2GFuN0EORP93458Drs6FM/islzGsCNLcxfd9rshwhB/LnqynY+86XEQASTrUAUE3+XUsLQoAs8idqMgBA/h7HzS9/YsaE1bledeF8Hn/F02n21JzQ3/y3Y/6ZMB46uUUN65oAdI2Du1+vNFbIn6+mYO8LXkYASDiVAgCv/LteNUNADwoBPdawbR+2/Gnhh1fUWACA/D2OW0z+e49sY3/ZM5xz5Am67e93jeEf/rcI85oADSsU/bBbMpVvEQj5C46XX/4EAkDCcQoAovK3MIx8vr7fUKWu3xD+egHJn/7z4RVrJfpnqCgAQP4exy0mf+LWcU360AHhTP57a77K/vpgMDf+4SXMawLQDYImTM2o85eV/gpD/nw1BXtv8zICQMKxCwBu5W9RGgKikj9RMwEA8vc4bnH5041/pp/QFNrkv6Bv/MNLmNcEmPWVapz9QLpg/0L+fDUFe+/wMgJAwikNAF7l332dgI4QkO07xLlewPKn/85JegD4V7O4uXhaQ/5VOee3Lfpum+ihCJkm/9Hh/yBv/MNLmNcEaGxmuT9MynYecYD8+WoK9r5CvQ8QAJJNYQDwS/7dz/P5ur6FHweEK3+idgIA5O9u3K7zE7vn2KbcGr3CufHPbS+n2LS3QjsNvyJhXxPg6mdT7InZnW9SIH/B8bqXP4EAkHDMALDcDAB9/ZZ/93IrBKxTVDoM+RPJDwBN7v/WCb/o3KDW5L/LRjl23j6t7jrigrE3Z3NLVypyJAAW7jUB5i9TcsdNSft8m2C7FSD/0sUIAAnHDAALFFUdUbzUH/lbtczXzRAwpONIQIjyJxAAioH8bZYI1qTm145p1jceHN6NfybcndFzevSH/y3CvCYATQYcd2tabVhR/VcZ8ufcBmc9BICEs54ZANSiAOCv/AvaGWYIUMvnBHS2C0D+tGDOlQgABbvD5YvODWpR/nQe/D3HNiX2xj88hH1NgBc+UfWJj6V8uE2w3QqQv9NiBICEUxwAgpF/waKcGQBSxSEgOPkTCABFu8PFi84NalH+xFE7tbJDfpHcG//wEuY1Ab5vVHKH3Jh23AeQP+c2BOshACSc7gAQsPy7XyoIAcHKn76Zc+WgRP8M8QQAyN9miUv5E/Tuf81eyb3xDy9hXhOAmPhYio4ElC2H/Dm3IVwPASDxdAQAZYTIOq7l371+ro5CQJ91nNfwQf5ErQcAyN9miQf5041/Jh/R7K5TLojqxj+8hHlNgHkNdIOgdNG+gPw5t+FC/gQCQMJZb8yTJXMAKuOD/C1y2V5rsWz/ESmnRl7lT/+dW8MBAPK3WeJB/sQVBzfrI4eEM/kvyhv/8BLmNQFacsw45IaM2tjS8Rzy59yGS/kTCAAJRyQA+Cj/rgWZXgNzdQPWS5U28kP+RK0GAMjfZolH+RMza+TGP7yEfU2Ah9/T2PXPaZA/7zY8yJ9AAEg4vAHAd/kXvNAVAnyWP1GLAQDyt1nig/zHbtfKjtgxvMl/B0/O5r5vlOfcfyfG7ZQLbb/QZMCDK0wGtAXydz1mBICEwxMAApN/QQMzBOh1/dfV/JQ/PZl7VW0FAMjfZokP8iduO7IpN7R/OFf+m7NIZadOi/bGP7yEeU0A4tT70ub+4fy1hvw9jRkBIOFUCwCBy9+qY/5fy/bO91hrE6X0JbfyN8eV/NsBFwQAyN9miU/yX6t3nt15dHg3/pkwNat/tlTeyX+F0DUBpo5vUQf3da1UIcz9ok+4K11930D+nseMAJBwKgWA0ORf8G1RCPAgf6IWAsBvLl29qKlNGQL52yzxSf7E33/fYuywgR7aZLx9rqmT4sY/vOy+ia5fsF9bKP0194u+z9WZytuC/H0Yc94MAGsiACSZ9UY/2aBq6qDS5aHLv2BRewgYSCHAvfyJWggAd76cNx5/v1X5dqXDqViQv8taxUw/oUnvWx/Ouf9TX0+xu16T/qP/IsK+JsC0tzR220sO/xyQvw9j7lgLASDhmAFgkRkAiq7PG5n8C9ZPZXu1hwC38qcniqqxOQkPAFNezS/Wdbb2I++1KD+uKtlbkL/LWsXsGvKNf8bdls0t+lH+yX+lXHxQK9tu/XCuCbB0pZIbe5PNZEDI34cx57sePvg3AkCiKf0IQAb5W6Tq+hr1a/6PWr5adfnTU7UGAsBdr+YXmA8jWnJ546G3W9VVLd2/vJWB/HmbXzemObfRYCMUIdMNb464Te5z/50I85oAOZ3pE6amtfnLCn69IX8fxlz89wMBIOEUBgCZ5G+RyvY26gdurIrKn1DM/yX9LAArANCgTfkbM80Q0JaretqFwFJW0/IP+8Y/F/wnY7zxuVw3/uHF3Ef69AktWlg3CJr1lWqcNT3Vsa8gfx/GXP7mAQEg4VgBQEb5W2ipOr3HoJGaiPytbz66enCif4baA0CedR3BaTRDwIMVQwDkL9L81D1b2N4jdXcddsGB12f1FU3xmP1vx5jtcmz8LuFcE2BVC9N/f21Gg/z9GLP9kUMEgIRDAUBRKl0HIFr5W6ha1gwBP9OYojqUzNv+Hai1AEA0tebzD7zVqpSHAMhfqLnZ8N7jmnJr9Arn3P8XPtHYRY/LeeMfXgb1yefuOz68yYCTn0+xme/Q3wTI3/2YnT82RABIOOuNNgOA43UA5JC/haKm8j0Hj1LaQwCH/IlaDAAEHQm4//UWp7RUZSmD/M2GI9fR2RWjW9x12gUn3p3R5zWosX33T6Q0pk8+vFVbf2A4kwEX/aDkxt2aKgsckL9g5xxWRgBIOM4BQC75W7UUNZ3vOagzBHQuq3AEsGYDALF8taHPfKtVg/wFm3c2vO7QJn2jQeGc+kc3/jlkcjZW5/47sdUIw/j3wa2hzGPQDWYccUtKpcmTFpC/YOcq1JyNAJBs7AOAnPK3aP84YK3NNKYoFeVPCz+6eu1E/wxVCgDEtysN/dH3WsqkAvlXa5hnD58S3uS/215OsWlvxe7MP1t61zH94VOaQwsyb3yuGhc8qLUHDshfsHNVaiIAJJzyACC3/K31VTVl1K/1M1XR0o7yp8Uf13gAIBb9oBtPz+5+Rwb5V2uYZ2O3bwv1xj/07v+7xvhO/itlwu459sdtwtl/K5oU/cDrUhrkL9g5jpoIAAmnOADEQ/4WiqLme6y5saKke5Stk+9c9eNrEAAIKwRA/tUadnwz5ZhmfXDfcA7/z1+msgl3Z/ScHv/D/xZh3yDoqmc09vgHLj51gPwr1kQASDjdASBe8rcoDwHd8icQALppWKHnH5vVWr4/IP+ib9Zb02DXH9YS2o1/znogY8z6Kp7n/jsR9g2C5i9TcuPvSLm8TbDT4tqWP4EAkHA6AoBSVSAyyt9CVVO5bP8RKS3bt0j+BAJAMWUhAPIvW+Pv+9ONf4zQhLz/pLpcYzNLxgSAAnbY0DAuOiCcyYB0g6CDb0hrjbwnbUD+XDURABIOTwCQWf4WClOMbL9hqla/ZtFyBIByukIA5G+7xswTm3K96sIRMs1ev+SJdJvBWDjnzYXIyCGGdvyuudCCzVNzVPbvJzk+RYH8uWsiACScagEgDvK3UBQln+2zjqL16L65IQKAPe0h4L1WwX2TfPnvPSrHTt2zzd1AQKQsX63oB05Kcd4m2Gkx5F8IAkDCqRQA4iR/CzME5DI912Kp3kPa33kgADgzb0ku9/InbZzv0JIvf+K2I5v1oQPCmfwH/Oeix1Ls+Y8dfuUhf+GaCAAJh24HbAaAIaXL4yj/wlrpun5Guv/66ifXrJPonyEvAYDgCwG1IX+6ic30Cc2hTf4D/jOvQdEn3GVzFADyd1UTASDh2B0BiLv8aX36wUnV9zO+uGvnRL+b8xoAiMohoDbkT5y6V2uoN/4B/mM7GRDyd10TASDhlAaAJMi/kK8f2DfRP0N+BADCPgTUjvyJ+09o1vv1wOH/uDPtLZXd+mLnPyPk76kmAkDCKQwASZM/gQDAT3EIqC3577qRzs7bt9XdoIBULF2h5MbclEpB/t5rIgAkHCsAJFH+BAKAGB0hoLU9BNSK/Ilrx7boGw828O4/IZx6b5p9uLB8OeQvBgJAwrn5udZmw8gzI+9NwbKSTmlN2UxqZdT9CIw8owsf9PSzJIWAlzpDgM32XHazwpKI5d8zm2f3Htcc2o1/QPB81qDoJ0wpngwI+YuDAJBwzHeQ9O5xlvk1IOq+1BwSR65PC44EeO2vzPKnV4/euY0d8ovwbvwDgocmA/7uynRXAID83YEAUAMgBESAxPK3+OSbHHvl01ZP/ZVd/gS9+1+zFyb/JY32yYAvaJC/BxAAagSEgBCJgfwt2kPAJ+4mx8VB/nTjn5uO4L2APIgTNBlw9ORU0aRWIWpc/lRk9hUIADWDGQI2Nx9eM796Rd2XxBIj+Vu4CQFxkD9x5SEtOl2z3o/9BOQipzP9+LtS2vxvXawM+beDAFBjmCHgl+bDkwwhwH9iKH8LkRAQF/kTD4Z44x8QPrO+Uo0zpgneahny73zIsw+vGIgAUGsgBARAjOVv0T4x8OPWirKMk/zHbt/Gxu2IyX9JZlUL0/e9OsV/hAfy73zo+AYBoEZBCPCRBMjfolIIiJP8iduPas4N7Z/Hu/+Ec+NzGpvxDodKIP/Oh+5qCAA1DEKADyRI/hZ2ISBu8l+rT55NORo3/qkFFv2g5A6/Rasc9CD/zofiaggANU5nCHjI/Foz6r7EjgTK36IwBMRN/sQ/9m8xdtjAgPxrAN1gxmE3p9SGFQ4NIP/Oh/JqCAAAIcANCZa/BYWAl8o+DpBf/sS045tzA3ri8H+t8PrnqnH+TJvJgJB/54N9NQQA0A5CgAA1IH+L4hAQD/n/dlSOnbpnW3g7CUTOD6uU3EGTNK4rW0L+3SAAgC46Q8AT5lfvqPsiLTUkf4uOENDS/cdVYvkTNx3enFtvIN791xpXPaOxx97vVArk3/lQuRoCACjCDAGH0IP5lY26L9JRg/K36AoBksu/VzbPHpgQ7eS/n5pZa5uuGKrCVLoPl9lppWFFx5+6dIopbbniYSxrZOmWNqVif/n2Y3krRWHG0H75QA6HLPxRKfob8cMqxvYelTf698hHsu8X/qDoR9yiaZC/9VC9GgIAKAMhwIYalr/Fp9+UHAmoQtjyJ07bq5XtPVKPYvewvz2UZm/NF7g2PecOEpK/rzXtVqg4JZT96md5dsF+0Vx7gSYD/uHalNrYLDLe2pU/gQAAbEEIKADy74I3BEQhf2L6Cc16vx7h3/jnu0ZFH3tTVqtl+Vvcd0JOH9w3mpsvvfCJqv/zYdXhNsGCeyLh8icQAIAjnSFgqvmVibovkQH5l1EtBEQl/1030tlf93V3YyOvvPippk983Lo9be3Knzh4O4OdsFs0R2G+b1RyfyyYDAj5VwYBAFTEDAEXmg/ns1oMAZC/I04hICr5E9eNbdE3Hhz+jX/o0PO427Pq0vbP+Wtb/haP/CVn9K6LZi7ARY9o7LmPFcifAwQAUJWaDAGQf1VKQ0CU8u+VybN7j2/W69Is9ACw6Ecld9Tt2RTk382xu+lszHaG6FZ9Yd4SRT9+iubwcwD5F4IAALioqRAA+XNjhYAo5U+Nj/5lGzvkF9FMPrvrtRS7540quaOG5G/xnz/n9L714c8FaMkx46BJdpMBIf9SEAAANzURAiB/YSgEvMhzdkBA8iemHtucG9Qn/HP/m9uYvt+12cqSq0H5ExMP0o0dNozmcsxPfaiyy54o3DTkbwcCABAi0SEA8ndN1RAQoPxHDtHZlaOjmfz32VJFP+nujHMAqFH5E72yjD1wUlskH8ssX63of7hW8zQpM+nyJxAAgDCdIeCvLEmnCEL+nnn7i1Y260uba84EKH9i0mHN+kaDojnt7PyH0uzt+Q5vcmtY/taKNx2Z0zcaHM2/zbkzNPbm57zj9mPM8ZI/gQAAXNEZAs41v+qj7otnIH9fMPIs9+781lRRCAhY/sQjf26K7F3mn250ePcP+bez/lp5dvORuUiuzNgxGVAVPjpTK/KnMh9eiQAAXJKIEAD5+0pRCAhB/lFO/nt6jsaufMbmUw/Iv4j7JkRzYSCan/HH6zXN7sqAkH/HAwIA8ESsQwDkHwhdIWA+HQkITv5EVJP/6Nz/P96QVRtb3A2oVuRPHLGzwY7cOZoLA017S2U3P1+iGci/62EOAgDwSixDAOQfKN0hwHlynlf5rzfQYNcf2qKntAjO/f9B0Y+6o+TwP+TvuPixU9tyvepY6EGtYYWSG32jWvVOlrUofwIBAPhCrEIA5B8KdCc8MwSodiHAq/yJS/7YYmw1IprTzK7+b4o9ObvA/5B/xcUT/6gbO0Z0SuBf7tXY7K+r99HVgGMsfwIBAPhGZwj436j7URHIP1SaWvP5u15aVfR77of8iYdObtJ7ZsN/99/YzHIHXJ+t+q5SYCjlrRIkf/pu/bUYuyWiyYCfNSj6cXfYTwasZfkTCADAV8wQcJv5cEzU/bAF8g+VllzemPlGk/pTc/clYf2S/9jt29i4naKZ/DfrK9U4Z0ZaFRlQLcvfYtoEPbrJgJPKJwPWuvwJBADgO1KGAMg/VIKUP3HX+OZIZJLTmX7SPRlt/jIF8heQPzFu53x0kwHfLJ4MCPl3gAAAAkGqEAD5h0rQ8l9voM5uOKw1ksPJS1cqucNuyaQg/2qL7Rs8dUYukms2tE8GvKFjMiDk391gzpVrIQCAYJAiBED+odKq540Zrwcnf2rwjz+0GjtsEM2Esvvf1tjtL/FNZof8y5l0mK6PHBrNlQGPuV1jny/1MOCEyZ9AAACBEmkIgPxDpc1g+Sfea1Ialncf5vVb/sSDJzVHckoZfZY8ZnJWKzv3381QClvViPyJ7TfMs0v+GM3HAO99pRqn36sIBsfkyp9AAACBE0kIgPxDJSz5H7BVjp2wezST/+YuVvXT7ktXffcK+Vdm+ol661p98qHfTIzO3tjnKk0gOCZb/gQCAAiFUEMA5B8qYcmf/nvzES259QaGf+U/4vwHK9z4R2jctSt/4soxRmTXb7jzVZVNeZlHO8mXP4EAAEIjlBAA+YdKmPIf1CfPphzTEsnkv+8bldzoyZmKwQPy54OuCXD70dEcxWlYoeiH3KBWOYpTG/InEABAqAQaAiD/UAlT/sT/Rjj574VPVf3ix5wP/0P+YjXvP0lvMwNd2m233EL3cDjuTk11ngxYO/InEABA6AQSAiD/UAlb/sT9J7TkBvSM5sY/427LqEtX2P+5gvzFa569j8F+u7khvr4POE8GrC35EwgAIBJ8DQGQf6hEIf/fbq6z0/Zsi2S87ef+32x/+B/yd1dzcD/G7jk+mksDr2ph+u+u1EqO5tSe/AkEABAZvoQAyD9UopA/ccdRLfrQAdGcP37/Wxq7/eVy/0P+3mrOOEXX1+wVzb/pDc9p7IG3SjpXY/InEABApHgKAZB/qEQl/ygn/zmd+w/5e695yl4GO3DraD4GWPSDkjv0JroyYO3Kn0AAAJHjKgRA/qESlfyJKCf/maLQj7o9U/QuFfL3p2avOsYe+Us0HwN0TwbM16z8CQQAIAVCIQDyD5Uo5U/MOLFF71sfzaHiu15LsXte79405O9nTcbuPUFvHdI//IsCEa9/rhjnTbe/MmAtyJ9AAADSwBUCIP9QiVr+UU7+o8P/+12T7bI/5O9nzQ7+HOHHAD81M33fK8uvCVAr8qdV5lyFAAAkomIIgPxDJWr5E1FO/vtymZI7bkpG4A5ykD9fzW6i/BiAuPIplT06q2rXXY1fdvkTCABAOmxDAOQfKjLIP8rJf8TkF1LsoXc1yN/XmuWv3HuCEdnHAPPNkHfULYqH2wTbDzQO8qeHuQgAQEaKQgDkHyo5U/6PRyx/IorJfz81s1bdUGgfaGMmZzTI38+a9q8csRNj+2+lt6gqU/rUsVSYgY8mAx46WVO/We7DH5mYyZ9AAADS0h4C8hHdSrhGadXzxlOzmtUlEctfdMPc4vJV0hA/X03B3vs6Kz+E0/yKNhMf+RMIAEBqEALCoyWXN2a+0aT+1Nw9KSsy+QtuHAFAtKbTYgQA95uIl/wJBAAgPWYIuM78yR1vflsfdV+SCuQv2gzy56sp2HvIv0rf/JM/gQAAYoEZAi40f4LPZQgBvgP5izaD/PlqCvYe8q/SN3/lTyAAgNiAEOA/kL9oM8ifr6Zg7yH/Kn3zX/4EAgCIFQgB/gH5izaD/PlqCvYe8q/St2DkTyAAgNjRHgIY+6v5052Nui9xBfIXbQb589UU7D3kX6VvwcmfQAAAsaQzBJxv/pRHcgGROAP5izaD/PlqCvYe8q/St2DlTyAAgNhihoDTzIf9o+5HwGxp/jb39asY5C/aDPLnqynYe8i/St+Clz+1nHvVIAQAAGTFDDkLzN/TEX7UgvxFm0H+fDUFew/5V+lbOPInEAAAkBi/AgDkL9oM8uerKdh7yL9K38KTP4EAAIDE+BEAIH/RZpA/X03B3kP+VfoWrvwJBAAAJMZrAID8RZtB/nw1BXsP+VfpW/jyJxAAAJAYLwEA8hdtBvnz1RTsPeRfpW/RyJ9AAABAYtwGAMhftBnkz1dTsPeQf5W+RSd/AgEAAIlxEwAgf9FmkD9fTcHeQ/5V+hat/AkEAAAkRjQAQP6izSB/vpqCvYf8q/QtevnTy3OvRgAAQFpEAgDkL9oM8uerKdh7yL9K3+SQP4EAAIDE8AaAVj1vzHgd8udvBvnz1RTsPeRfpW/yyJ8ePkIAAEBeeAJAm8HyT7zXpDQs17uWQf4crSB/wfFC/h667K7XAcqfQAAAQGKqBQDIX7QZ5M9XU7D3kH+VvsknfwIBAACJqRQAIH/RZpA/X03B3kP+Vfomp/wJBAAAJMYpAED+os0gf76agr2H/Kv0TV75EwgAAEiMXQCg2f5Pvd+sQv6Qv781BXsP+Vfpm9zyJxAAAJCY0gBgyl835a9B/pC/vzUFew/5V+mb/PInEAAAkJjCANBmMP2J95ogf+5mkD9fTcHeQ/5V+hYP+RMIAABIjBUAjDwznpvTrH6xNNf1GuTP0QryFxwv5O+hy+56HZH8CQQAACSGAoAp/+HPfdisQP6Qv781BXsP+VfpW7zkTyAAACAxd76SN979olWZNb+1axnkz9EK8hccL+Tvocvueh2x/AkEAAAk5vAbm1o/b8ilreeQP0cryF9wvJC/hy6767UE8icQAACQlG3OX7mupipfqp2/JZA/RyvIX3C8kL+HLrvrtSTyJxAAAJAUMwDsllKVFxQF8udqBfkLjhfy99Bld72WSP4EAgAAkmIFAKHfEsjfr+GUrAD5ux8z5M9XU3AbHuVPIAAAICkUALTOIwBcQP5+DadkBcjf/Zghf76agtvwQf4EAgAAkiIUACB/v4ZTsgLk737MkD9fTcFt+CR/AgEAAEnhDgCQv1/DKVkB8nc/Zsifr6bgNnyUP1X56OrBCAAAyMovLliZV9UKvyaQv1/DKVkB8nc/Zsifr6bgNnyWP4EAAIDEmAFgmRkA1rR9EfL3azglK0D+7scM+fPVFNxGAPKnh4+uQQAAQFrMAPCpGQA2LnsB8vdrOCUrQP7uxwz589UU3EZA8ldVlc25ai0EAABkZdsLVr6pqcp2RQshf7+GU7IC5O9+zJA/X03BbQQkf0LVNDbnyoEIAADIihkALlUV5ZyuiYCQv1/DKVkB8nc/Zsifr6bgNgKUPz2kM+mW2ZevUedLeZcgAABQAbocsGpdDhjy92s4JStA/u7HDPnz1RTcRsDyJ7J12YXvX9p/uC+bcAkCAABV2PaClV9rijKscivIXwjI34cxQ/58NQW3EYL8FUVh2Wz2v7Mu7beXL5txCQIAAFUwA8DDqqLs7/zLAvkLAfn7MGbIn6+m4DZCkD+RSqWYqqn7fHDZgCd92ZRLEAAAqIIZADY3f1HeNkNAtvxVyF8IyN+HMUP+fDUFtxGS/AkZDv8TCAAAcGCGgM81RdmgeCnkLwTk78OYIX++moLbCFH+dPg/k8lMe/+y/mN92ZwHEAAA4MAMAKMVpkzrvigg5C8E5O/DmCF/vpqC2whR/kQmm/kplUoNf3din+W+bNIDCAAAcNJ9FADyFwLy92HMkD9fTcFthCz/9nf/2cwj71/a/w++bNIjCAAAcNJxFIC1HwWA/EUHBfm7HzPkz1dTcBshy5/IZrONWkobJsO7fwIBAAABtj1/5Reqytbnagz5O64J+Qt2DvIXXFM++WuaxtLp9A2zLu13si+b9QEEAAAEoDMCzIeXVYX1rdgQ8ndcE/IX7BzkL7imfPLvPO+/wZT/2r5s1icQAAAQZNvzV15v/j6fpDj99kD+jmtC/oKdg/wF15RP/kQmk2lRNXXPWZf0e8WXTfsEAgAALtj2gpUfqwrbtOwFyN9xTchfsHOQv+CacsqfLvqjpbTL3r+0/7m+bNpHEAAAcME256/spyhsQdFHAZC/45qQv2DnIH/BNeWUP93yN5PNvGa+89/Zl037DAIAAC7Z9vyVvzR/gx42Q8AAyN95TchfsHOQv+Ca8so/nUl/Yb7z39CXTQcAAgAAHmgPAYz91wwBWZ72kL9oTafFkL/7TUD+fgyY453/UvNxE1lO+bMDAQAAj5gh4BDz4XozBKxZqR3kL1rTaTHk734TkL8fA676zj+d/kRLaTvKLH8CAQAAH+g8EvCkGQJ62b0O+YvWdFoM+bvfBOTvx4CrTfhLpVPSfuZfCgIAAD5hhoAR5sMrisKGFf5iQf6iNZ0WQ/7uNwH5+zFgp5p0nr/5rr9FUZVrZJzt7wQCAAA+YwaBh82HvWleAOQvWtNpMeTvfhOQvx8DdqrZeYW/BtOmB8t2nn81EAAACAD6SMD8g/GA+cZgsAL5u+oE5O8ByN/XAdvV7Lytb6P5+MSsS/uN9mWzIYMAAECAmEHgUvPhSKbkB9n+skH+VRZD/u43Afn7MeDSmu2H+zPpn8zH5813/0fKPtGvEggAAITANuevvND8Zfv/7d09MgNhGMDxfChSUFBlhkKhVGjdwRncRE/nGE7gBAodpSIHQK2IJq/nRWZ0kU3s4vn9ZjYby+xHSJ7/mMnkNEJgN9aj942G/4LNhn/zQxj+67jg+T7r0K//6h9uDJ/iy9u/PvjnBAC0KEJgP550Z3H3OJa9eInZqttX+1gBw/97+1zy7DsY/nXQ9OpSyse60fWvPgpLHL/MyoK9/d/hX9/KVx//wXDwGvef+73+w6zMLu8vdq7XcqhfQgBAhyIIjuJJeBKvOYexHn/93lLD/6c02X2/9xi3065OuaNDrf/cS5nEzUub1xsBshnLweIdNT9SS7+TUTx+42V+/vPkpvH3O42BP4kEurk7375q53S7IQAAICEBAAAJCQAASEgAAEBCAgAAEhIAAJCQAACAhAQAACQkAAAgIQEAAAkJAABISAAAQEICAAASEgAAkJAAAICEBAAAJCQAACAhAQAACQkAAEhIAABAQgIAABISAACQkAAAgIQEAAAkJAAAICEBAAAJCQAASEgAAEBCAgAAEhIAAJCQAACAhN4A+KHhVf/PyS8AAAAASUVORK5CYII=;" vertex="1" parent="1">
          <mxGeometry x="1087.89" y="1400" width="160" height="160" as="geometry" />
        </mxCell>
        <mxCell id="RxBK489CV4HZndgK19Fy-14" style="edgeStyle=none;shape=flexArrow;rounded=0;orthogonalLoop=1;jettySize=auto;html=1;strokeColor=default;align=center;verticalAlign=middle;fontFamily=Helvetica;fontSize=17;fontColor=default;labelBackgroundColor=default;endArrow=classic;endWidth=100.8888888888889;endSize=27.74;width=106;fillColor=#7EA6E0;opacity=30;entryX=1;entryY=0;entryDx=0;entryDy=0;" edge="1" parent="1" source="RxBK489CV4HZndgK19Fy-11" target="RxBK489CV4HZndgK19Fy-9">
          <mxGeometry relative="1" as="geometry" />
        </mxCell>
        <mxCell id="RxBK489CV4HZndgK19Fy-26" value="&lt;font style=&quot;font-size: 17px;&quot;&gt;Caching&lt;/font&gt;" style="edgeLabel;html=1;align=center;verticalAlign=middle;resizable=0;points=[];fontFamily=Helvetica;fontSize=11;fontColor=default;labelBackgroundColor=default;" vertex="1" connectable="0" parent="RxBK489CV4HZndgK19Fy-14">
          <mxGeometry x="0.006" relative="1" as="geometry">
            <mxPoint as="offset" />
          </mxGeometry>
        </mxCell>
        <mxCell id="RxBK489CV4HZndgK19Fy-16" style="edgeStyle=none;shape=flexArrow;rounded=0;orthogonalLoop=1;jettySize=auto;html=1;strokeColor=default;align=center;verticalAlign=middle;fontFamily=Helvetica;fontSize=11;fontColor=default;labelBackgroundColor=default;endArrow=classic;endSize=26.47857142857143;width=109.28571428571429;endWidth=72.65306122448979;fillColor=#7EA6E0;opacity=30;entryX=1;entryY=1;entryDx=0;entryDy=0;" edge="1" parent="1" source="RxBK489CV4HZndgK19Fy-11" target="RxBK489CV4HZndgK19Fy-12">
          <mxGeometry relative="1" as="geometry" />
        </mxCell>
        <mxCell id="RxBK489CV4HZndgK19Fy-20" value="Approvals" style="edgeLabel;html=1;align=center;verticalAlign=middle;resizable=0;points=[];fontFamily=Helvetica;fontSize=17;fontColor=default;labelBackgroundColor=default;" vertex="1" connectable="0" parent="RxBK489CV4HZndgK19Fy-16">
          <mxGeometry x="-0.0079" y="-1" relative="1" as="geometry">
            <mxPoint as="offset" />
          </mxGeometry>
        </mxCell>
        <mxCell id="RxBK489CV4HZndgK19Fy-23" style="edgeStyle=none;shape=flexArrow;rounded=0;orthogonalLoop=1;jettySize=auto;html=1;strokeColor=default;align=center;verticalAlign=middle;fontFamily=Helvetica;fontSize=17;fontColor=default;labelBackgroundColor=default;endArrow=classic;endSize=25.74;endWidth=74;width=100;fillColor=#7EA6E0;opacity=30;entryX=0;entryY=0;entryDx=0;entryDy=0;" edge="1" parent="1" source="RxBK489CV4HZndgK19Fy-11" target="RxBK489CV4HZndgK19Fy-10">
          <mxGeometry relative="1" as="geometry" />
        </mxCell>
        <mxCell id="RxBK489CV4HZndgK19Fy-25" value="Secondary translator" style="edgeLabel;html=1;align=center;verticalAlign=middle;resizable=0;points=[];fontFamily=Helvetica;fontSize=17;fontColor=default;labelBackgroundColor=default;" vertex="1" connectable="0" parent="RxBK489CV4HZndgK19Fy-23">
          <mxGeometry x="-0.0163" relative="1" as="geometry">
            <mxPoint x="1" as="offset" />
          </mxGeometry>
        </mxCell>
        <mxCell id="RxBK489CV4HZndgK19Fy-11" value="CompanyTranslate" style="image;aspect=fixed;html=1;points=[];align=center;fontSize=12;image=img/lib/azure2/other/Worker_Container_App.svg;fontFamily=Helvetica;fontColor=default;labelBackgroundColor=default;" vertex="1" parent="1">
          <mxGeometry x="600" y="990" width="226.67" height="220" as="geometry" />
        </mxCell>
        <mxCell id="RxBK489CV4HZndgK19Fy-12" value="MongoDb" style="shape=image;verticalLabelPosition=bottom;labelBackgroundColor=default;verticalAlign=top;aspect=fixed;imageAspect=0;image=data:image/png,iVBORw0KGgoAAAANSUhEUgAAAfQAAAH0CAYAAADL1t+KAAAAAXNSR0IArs4c6QAAQABJREFUeAHsvQncJVdVL1rjOd/X3enMM2QikISGztASbDqGDhFCAiGCBhlk0MfklUHhqk+5P+2nvqeX5wMvMhggRIIgt1HQK/rD9/QanijTi2ggMggYhjCFBMzU3d93TtXbq8Y9rLVr+OqcU3XOqqRO7b2G/1r7v78+69TsOrwwA8zA0jHwwr974Vpw//ef7Tmjv33bte//2tINkAfEDDADBgOeIWEBM8AMDJ6B6cY3/djzn3LvxoOPHvxgeADMADNQiwEu6LVoYiNmYFgM3PfNjdD3guM8d/Izw8qcs2UGmIG2DHBBb8sc+zEDPWbgmJO2rbmOIwq6/5Qr37nrkT1OlVNjBpiBjhjggt4RkQzDDPSJgbWNERT0E0dr4TgO1l7Wp9w4F2aAGZgNA1zQZ8MrozIDC2Vguu5v933vlMALHN/1r9p348WnLTQhDs4MMAMzZ4AL+swp5gDMwPwZmB6enOq4judG4jr3tfAR66PgqvlnwRGZAWZgngxwQZ8n2xyLGZgTA2Hg7Ynj2HHE/6EbOq7nvGz/m3ftmFN4DsMMMAMLYIAL+gJI55DMwKwZiBznEqjmrvhP3L8Gh90vdXeOeC991sQzPjOwQAa4oC+QfA7NDMyCgesP7t8hSvhjYAfdcWPH9zzH9R1n5I1edv1BR7R4YQaYgWVkgAv6Ms4qj2mlGThq23GPcT33RDjcnuyhiwvjoih2PN/dd/fkksevNDk8eGZgiRnggr7Ek8tDW00GQsf5CT/0dsSiiIuKLvbQfQfa3shf9yfec85947nj1WSGR80MLDcDXNCXe355dCvGwE/96TNOFY98vRIKeb6IA+7JxXHR4chxXfdZp6/t2J3reMsMMAPLwwAX9OWZSx4JMyAOq0+f5ofuedNNcVkcLGIn3ROXuMMKV737o2D7aD14ZarkT2aAGVgmBrigL9Ns8lhWmoEf++D+Y8LQf40zFXVcFPJ8EXvlsGeedOOpOPTuetc94R0XX57recsMMAPLwQAX9OWYRx4FM+CcFBz3qjAIHg4XwMkLFPNkDx2EQuWPg6O80Pu5PTfsEafbeWEGmIFlYYAL+rLMJI9jpRl44QevuSj2vJ+Hq9rzJSnr4gPOoSfn0aGaiyWeiL30MLhmR7DxQ7ktb5kBZmD4DHBBH/4c8ghWnIFX/NFzdwbhttcFI/+YaJqdO5c4SYp8dsgdxHDFexD4O0aj0UslM24yA8zAwBnggj7wCeT0V54B9/4d978mHPlPLC6EkyiJxV55flFctoOeaGEvXey3/8SPvuPCiyVzbjIDzMCAGeCCPuDJ49SZgRd86GkvDkbBa6OJuWduYweueBd+2+PAf63DT4+zUcU6ZmAwDHBBH8xUcaLMgMrAz3zg2svG3vg3fLEkL2IR6vQsuWrniUe/+uK2NX2JxW+A0dro6icd5qfH6dxwnxkYIgPmv/IhjoJzZgZWjIGX/fVTHuWPRu8Uz2g/2bZ3DgU+PYduEpQ8Pc73tsVe8MtPunn3dtOCJcwAMzAkBrigD2m2OFdmQDDwsx+67NjpdPzWYF3coibOhddZ5KvfZfvpRuQEvvekydR/hiznNjPADAyPAS7ow5szzniFGXjJh6869ZBz/Ps9379scniSMFGUdPlpMhJHcGFc6Il3oktXuktqsQvvOmEw+rUn3Xzp2YqcO8wAMzAoBrigD2q6ONlVZuBZf3zdQzcnazeNx6Mrqw6zN+EpeXrc2HvYdLr58iZ+bMsMMAP9YoALer/mg7NhBlAGnv+Bp+7dcbT/p+PR+Co4TE4uyF56ch5d2juHvrGK97YEa6PnX/4uvo2N5JYVzEDPGeCC3vMJ4vSYgef/xbUvCsajP/c97zGTDfGgdmVJD7inn6VC6YsOvEIVLo9T5KW5k+yle/4JI2f0284B8WA5XpgBZmBwDJTPiRxc6pwwM7DcDFz7F3u2He+e8hrPGR/wAnHfWXIBXPZPVmzKf7xpq+hne+N5Hy6Iu3/jAed7D9wjCjpV0gWXwkGU/Ggynbz8b55361uXm10eHTOwfAzk/+aXb2Q8ImZgwAw850NPOXbkBG/xveBZUIPhPnP4x5r+g00qb9bOByldxy4dXk99ahZ0AeUFnjPdnHz7wemRx3/0Bf/yxRydt8wAM9B/BuA4HC/MADPQIwbEIfYzQid4p3iS29Md8dz1/LS4XtAh5bTAp62yDYq0l8tgz/yBjQfte+jCDe5N90f+Di9yjzvjwkf8jztuucNywh7i8sIMMAN9YYDPlfVlJjgPZkAw8Ow/uXK3G7sf9EP/mmgzSvbMc2LKg+VlK9fBZW6YNNdL+++5iNzGm/D8d/d678x7ryaNWMEMMAO9Y4ALeu+mhBNaVQae82dPvmoU7vhwMAovwV60ovBiq95gmO/WK05IB3C0FQ7vi/vcR2EY/uae9+45AfFiETPADPSQAS7oPZwUTmn1GHj2n1197chfe7d4BeqpsGdOLbQm9aDqfPJQGa1w23bpk6veQ+/Cozed/yzs8iP3VFosZwaYgR4wwOfQezAJnMJqM/BTf3rNS9fW1v5AHOY+NppC1c3OfytltOxk2pQ00SE0mT492A6vUL3v8H2iNlMl35wD2MkX73259Kx/Ofnef//gtz5hWrCEGWAG+sRA+V3Qp6w4F2ZgBRi4/uD1/jh88CVBEP6e77ujtJjDwMt/luUF65KssBCy9H+JLe1suQAATyjj3/j+nc4UXrHWYHE9cSNbHP1gsrH57L/96X/6cANXNmUGmIE5M8CH3OdMOIdjBoCB/Qf2B+ujB35RnC//fVE0pWIO2vp70WBdtQBa+XOgylrVJ29kC71jxJ76m/bdeN55qpZ7zAAz0CcGuKD3aTY4l5VgAPbMH7J7+2/5QfhbotD6cUTvNZfXtpVFHlppT/7MqaMPqnvJ0+JyO3mbI+LbSDxqVlx1/7D1cPsH9t24m4u6TB23mYEeMcAFvUeTwaksPwOwZz4ePfDbQRj8sthvFsU8LcrmyCm5aVlHAmji0bHiEyva1QhwOiAcjR+5HozevP+GR/CV79WUsQUzMHcGuKDPnXIOuKoM7H/zrh2nX7z++4EfvgYe/CIX83rlu7QqWlmj6GfkFv1yF3/LtMMb3sJxcGU4Puq9j3nzrlO2DMgAzAAz0CkDfJV7p3QyGDOAMwDPZT9x/fQbR+PRC8VOsgt1tjivnTS0i9kSmNSivDAOhIVX1hL9TIRo0mQygAfE89wnUfoO9VTR/BOuqfPH/sNC19u98/HjD337r39wuDkKezADzMAsGOA99FmwypjMgMTA/jdcdMzOyck3jdbCn4zFy9LgwS1w6LvYi05s9X4JQO1kp/7iUwVKsMG7EGcA4rY4I2oZpX4rEk+SC8bhk0448cS37fvz846q78mWzAAzMEsGuKDPkl3GXnkG9h7cu37aGae9ORyHz4yS57IXZbbkBhGlSlKRqHWt3i8DpK3AC3RR+74YS+D716/dv/P1V//VueP2QOzJDDADXTHABb0rJhmHGdAYgAvgzgmP+T/CUfAcePJaucucG1aV4NxO3hI+hFj27LINO/0wptDzXrR59zFv3HPDnm1d4jMWM8AMNGeAC3pzztiDGajFwKmP3vYb4qExrwBjOMxeXXMxi1RWedg9y6hEKFu1km1pBOfUgyB4ybHb3Dfsv+mstZYw7MYMMAMdMNDhMbgOsmEIZmAJGIA989MvXPsN8YKTX4HhFFezl1etFaOEsouICz3eaOFF/SLAA9SXilRgfFDU4/iETSe+4xViQPP5NVE/S7ZkBlaCAb7KfSWmmQc5LwYOHHC8zd3n/5Yfjn5JvBDFg/eZF0tSufWr2aU+qgfvsuSXV7xLsjxApiw1qW/e35xuOocmhwVaLskdu9mKe+svPPvTJx/6yge/9fFuEBmFGWAGmjDABb0JW2zLDFQwcOorr3ph4I/+q7jPPHlojFI6kw5WTjOZRZ+HtRZ0KNTp/7m52JbxNqcT58HNQ5JEMuumGbied8XZTzv18Fcu+ubHnVt4T70bWhmFGajHAJ9Dr8cTWzEDlQw85wNPfkY4Hr/B9V0vP8wu7Z9X+qcGdc61q1D0g2NzRHkfX/XtsgdjdsV1ckHo/9aV5+z5BVHOk58oXcZgLGaAGaAZ4D10mhvWMAO1GXj2wSufGIzX3us63tHwmFS5ksltUJT7zCV8IUuMi15pkCGWe+igKpHTVtYXG0yzIQ65z3gPPclXZO/7gX/F2bee/OBX/uxbH5MGwU1mgBmYIQO8hz5Dchl6NRh41vv37/fHoz8Up8x3RlNzf7nLvXTq2rY0BhaJ1nQ2OxBCWpOjE1EcekHwO/tvvOi5ncVhIGaAGbAywAXdSg8rmQE7A9cfvPKRfrD+h34QnAbPOq9cROFLS6xqicmqLWgvU+M64kwAHlwNpPYAqGpVPZIe3M4mXgsbjMbhmx9/46OejpiwiBlgBjpmgAt6x4Qy3OowcO3Nl50RhOP3ij3RM6ebUMzNMpqzQWtyC31Le2B76XnNxXNIsbzkbWt6HK2fA+VbTd2kCw+eEa9sPXoUrt10+dsvfEYTX7ZlBpiB5gxwQW/OGXswA871B59w+lE7dtwUhN6FzQ+zYxe+ZbK09hIMW5WlT2aGWoPQtpYonbSgqIujF0ePx6Mb97/twqd2AsogzAAzgDLABR2lhYXMAM3AS/6/PaEfhL8SrI+eABfAlYtoy91S0arVFMpuDz8YykvlWiXU0gmKurhH/RhxB8Af7HvL7h9uCcNuzAAzUMEAF/QKgljNDCgMiAfHfP+O435FFKifmx6BV6elWnsxVRCyDraXXqgwh0HL4PoCP/RO37Zt9J59b7tw16AHw8kzAz1lgAt6TyeG0+onA0+/4IpXBWvhr6b3mWNlXMiIIl9YFw19jLqCLvrleXTVJ+2JT1WcBUKFehIz6yd76uPwnPX10c2XvefR58wsEAMzAyvKABf0FZ14HnZzBsQV7U9eH237DT/2xmVBLXGKYlqKKlqWAkuqSAUaS7aGJ9F6cKX7AhfYUw8D/5L1aO3mK990/vELTIVDMwNLx8Bi/3UvHZ08oGVl4Bnve8IlfjB6s+s7O/KL4NJiKZfMfPSYLNUVmqKR+2j6QkwYCn35o6K0gVbaE5+lOEGDf+xwpbsmTnTz/Igm8DIXf5+/86gbLnvLo4+dZ2yOxQwsMwNc0Jd5dnlsnTDw9A9cerx4p/kbwzX/HDhs3GVFbFdcm3k1s+6EskoQuJgwXA9/fG199MvOQYefWFnJGBswA9UMcEGv5ogtVpiB/QecwJvu+G1/FOybbIiL4Bou1mKKKunz5vbQGBgms6PMTStSm4iLCsUrZn/5ivsvfO3c4nIgZmCJGeCCvsSTy0PbOgMn7bryV0aj8YvjTVGBkv+zIqluikCpGAwzg0JDNSwFnIhBIeVyLDImy+0XthVJwSmAUTj+9Se848KXLywPDswMLAkDXNCXZCJ5GN0zcP2fPvFp/ki817zy/m17ubRrsbwtRR4zR2RFzKKBGPVAFIsfPuKVq16wNv6dK9598dN6kBKnwAwMlgEu6IOdOk58lgz82Hsed5H4x/FGUWt25K9CzeNVldu0hopPopiaYlOSx0oxsIipD3UgwEQUEvGqtvTHiakt4i2gAfyKq++3j5zwhitu3v3YBaTAIZmBpWCAC/pSTCMPoksGrnwXXAS37Q3BKDgzmtQ9b24vkqS2ucIyVAxMyNL/RT0XL3dt84IWS8SuVElRD71TQmftxsvfvvvsrnAZhxlYJQa4oK/SbPNYKxnYc8NLwuPWj/lN8Zaw/epjXWlXrIym1vTb12gfKg62l57a1t9Lp7D7IYfb2bzQ2yVuafvd/W+46Jh+ZMVZMAPDYYAL+nDmijOdAwNnHPPl54zWgxfFsGNe1GOz/Cbl1RAbgnoZCzfME5OpgJhFXZmK1IueSD0WRX28Pn6Gf7T7e+e+4txxL/LiJJiBgTDABX0gE8Vpzp6BHzu499Ig8P7bdBqHcLFWk4W0tuCQPmRg2gMLQ1uTAXqhSB48Mx49/4w9x/4XkdBi3ijTCyY4CWagGQNc0JvxxdZLysDT/njfaSP/qLeKl64crV8EZx0yUTUxMSYrsbFD6pnM7lhC2FqA0QWOLUYDHfwAIdfk1fKuGwbeqy+/8ZLnNIBlU2ZgpRnggr7S08+DTxgQb1AbBWu/Fqz5l8CzxmEpjrYnvXofeL2EylXPv45VU6g246iTRxMbrHBX+cOPKnER3zZR1F/3uLftekyVPeuZAWZAPNeBSWAGVp2BH7/giS/xw+Cl0yNI+SsqaNEo6ML2qeXqbXrI2gImbSTGFg9MlXhiClwGV7nD2vWCFWxZ1jZe8njYMDxt22jt5stv5ivf2/LIfqvDABf01ZlrHinCwLUH918mrqz+NbhHu1zSgoiVxdKmSUv8UCDACLEFHP8ZAQ5QRLElF8M96PBktq0ucrGmYm41Ru6fvJ1tHJ4/ikdv2HPDnm25nLfMADNgMrD1f90mJkuYgUEwcPUfPXbnmh/8Tjj2Tk1eulKZdV4aS8OkvJri0qBhywpFKkmFGb2BKTjrxXvWBdxM2HGm4rG7vh9ctz2MXo3pWcYMMAMpA1zQ+S9hZRkYj7f/othj3QcvCTEXaU+4QRFMTTEHTJZGLTRFQ83GFJuS3KMsuKUN1gJ7rFjrshx30VuYjVEY/urj3v7I6xadC8dnBvrKABf0vs4M5zVTBq7775ddOwqCV1OHwvPgZTHMJcSWMMTEmKxElX5IlMIaLTtqDgBWedHOZYPYirMWvu+tr4+3v+mKGy++cBA5c5LMwJwZ4II+Z8I53OIZuO6Pn/TQwF97ned725I92qQWYoUUk1Xnj5dWIU2CVfubFmYeeAzds7TCWrp13/vw0JkwCB7i++Fbf+Sd557Y93w5P2Zg3gxwQZ834xxv0Qx4rj/99XAUnD/dRK5qr8yuLI25aVFuTVVigokxWY4nKj994MDuWEJorZZuGsriu3CRXDD29wbOUf/nAXG74eIz4gyYgf4wwP8g+jMXnMkcGLju4GXXBb73PHgaGbZg0kSGKTCAQtbYIfUk3SxFvohpb5DQdrfeaWFPXZxPf94tZ+x5Xu+S44SYgQUywAV9geRz6Pky8NT3PPHhob/+u17gjYxHuzaqdqZxVblNPcSn5Co1ZXFGiqzVeEpUWMTUhzyyn79tTYMbWjeZO/ES9TDw/y9+3erQZo/znSUDXNBnyS5j94aB/Qf2B+Eoem0wDs+BPTx8weUgTTS4GodKpI0dUizSjVTUyiF9G7orxtIGxxJiASp4kpwf+se70/CNe2445+gFpMAhmYHeMcAFvXdTwgnNgoFjLwie7/v+T02OTBT46tJGWZjypFBmYlObh62pEWa0pQ0r9SL30nPXJdhmD5259JjRcb92/UHHX4Ih8RCYgS0xwAV9S/Sx8xAYuPa9e873A/c3XXE5XHW++P5rdXGtRu7Col0e7by6yHemGGJY8EAgPwheddd9Fz1rprEYnBkYAANc0AcwSZxiewb2H9y/ww+Ofp14vOtp+aF2vbwV/aKhxyMVumHaz8x1r7QvPqXdZ91GBcR/XCQ2maPNXwqjwi5TTxAgLg0QNT18/WXv3PPYZRoaj4UZaMoAF/SmjLH9oBjYFm9cJR5Ick2cvUWtbvJYoUxucsMUVtDGDlY0OBDfNWJFwN6r4Xx6MApOGvvub5/7xnN39j5hTpAZmBEDXNBnRCzDLp6Bq/9o/0PG3tr/7olD7bXfcT6XaimCEHEIsYVMLvBADvxg8z3/iods3/6fLGSxihlYaga4oC/19K724ILA+XWx53YevIYzXfKtyYuqSXuqTEIoFEWjAMTLa2lXtgoXqrZnRd/igakSWEyBycocht7KTy+MwvH/+oQ/uPjyoY+H82cG2jDABb0Na+zTewauPXj5E0Zh8GzqLWrNy1tzDyCJ9hIH8AklIbZwjv+MSOI3B7PE6ZkKxiavglI/8I/2xsEb9vzuI07oWbacDjMwcwa4oM+cYg4wbwb2vmPXcb7r/6Y4d749P9Se1jXxmTZqpIQbFlKzUWAm5bXQ5yElQWFZoyHcME9MpqKZFpCXK64gg/8GscAQbCsyCHicrz/yLtl53I5fFOqBDBQZCIuYgRYMcEFvQRq79JuBk4468cVB4D9uWnEhnFnysnE1V7QkhAyEFnF7EAtWoRK3eHlBUtTtWAvQQo762jYN8TbcwA9f8SPvuPgJbSHYjxkYIgNc0Ic4a5wzycBTDj52j3jH+X8mDZytH+ou6iMdJNUQhpgYk5Xw+CH1xMfqaFWW8ItoQWry2mEOcD7dC9z10HN/e/9NFx3TITRDMQO9ZoALeq+nh5NrwsDVf3XuOPTWxYVw/gnlhXAlQqPylhhbCmkJW6uFxxZSXFED03Q0JTVgZmECiVSts4grYSYvcFkb/5AXBa+SxNxkBpaaAS7oSz29Kza4H5x6tet618IjQdOFKnGUvG19NfHwnwLlfJgeltiJsQURAytDzbYFsfV1thFro4sLIl2xp/6Ll791Nx96r80aGw6ZAS7oQ549zr1gYP8Ne05YC8Lf9MUrsvNbmAqlpWGthZlStUl7yaeqsETJVZiDkGFi4UKIczDEgi76TTiRApjFGpKSV8W4X53kBS6+v328Pn7d4976sJP6lR1nwwx0zwAX9O45ZcT5M+AedezaK8TjXR8ViaeG5UvaKvu5PKlIrStciaK2zDhJeTXFhRudX2FSNhJjE6yQFI3SJW2RCt2wNAeXfMWtBiNNnvU+8veEo52vdQ6IX3u8MANLzAD/gS/x5K7K0K5852Mv8JzRi4rxWmqYRVW4qw3co6h3uFqFyHqpaQMHFKVDYT4IedshfF+gYnEGZjwePXf/6Zdc2pecOA9mYBYMcEGfBauMOT8GxF7Xtm2jX/BH/mnYbWp0+RSaTKnb6H1zMJQFISfEJW5pULZSrdIXHaWfAagytSejFAclwAQzy/CWbQN76Z7rHR/43u/sff3e9WUbH4+HGcgZ4IKeM8HbQTJwzcMfd5l4gMxzywvhsmFYCpZFRXCAn5tujmOpo23AkmxbOxJjXU4x/H2Ip8g9frzz8CuXc4Q8KmZA3K7JJDADQ2Vg9827t4fh6H/zgnA93+PEyxsulcurblH0i4bOEqlQDIufAoR5KobP0qBsKVBZp0BUlIlP5mjzL/bSFe8V6XjJe1Z/ft/bLty1IiPmYa4YA1zQV2zCl2m4Dx3tvMb1vMup57VXj9VW+kxvzDqRYQrTXZIQDoRYciSa9R19UdTg8a+ruMDfyWgcnLI+Cn7Jud7xV5EDHvNyM8AFfbnnd2lHd+UHLj1evBX11zzf82JptxPbf03LHVH0JF+drMKjaOgWWN80xnKSPVMP1U/uye10R16RyFDZjj4WMfUR55KH8yx3dWQd9GJnujEV59P9519+1UU/2QEgQzADvWKAC3qvpoOTqcvAto3Ry4LQf5Rx7lwGqKp7sm1lGwcDaaLB1ShqatrAIY+BouXCZni513JvgRN5TUfr+q4z8sPXPuamXacs9/h5dKvGABf0VZvxJRjv1W/f/RDxRLiXSKedlVFFlEKxMjvNSyLlQcnNmKokf8KdKm3Xw/bS2yENw0su3Hkbzzx54EzoPvIoZ/Tz4k9lNc8/4NSwdOAMcEEf+ASuYvrhjmN/NRiHD81fjWrlIKut6SbrZA6FTBVb4PAiWbgXDRMi8ZT0aVMS5C6IyFAJG8wMk+W+6bbaQrXvUw9yt60Nck1ocMWh9+A/Pe4tuy5s4MmmzECvGeCC3uvp4eR0Bp7yvssv8ALvJ8RL07I9K7xI4aVXR8v7JUbZynXZtrlCA6jbJQPVBZDsusSSYGfehLz1tdugcIFcEHpHrW9fgyfIBd2iMxozsBgGuKAvhneO2o4BKOIvF494PTE5d96wXtHmQkMoMXFdGTpEyVlqquEzhaw3sbCfLJnM6mhVmmE6l0D8qrXzoCWgFDqawPvh/af/yOmPelZpwC1mYLgMcEEf7tytXOY/+kf7Hiu+gF8Qbernms0ilX9vd0qSGaaAN1WmpDC2Ntr64aDdouEx7FLIQF7t1p1r5dA6GaLveZ4/9sc/f9FNZ/F70zsnnwHnzQAX9HkzzvHaMXDQ8ddC7+V+4G5Xd2ebwunf6rk/JSd33nPH2ltsn1p2xjLAZIlPoiC13SUtJ1irDTnJay2n7ozk0BZ68oDJY2FDf89xm8fyXnpOCm8HywAX9MFO3WolfpWzd4+4h/pauOe8xvd0Qk5haXHAVJisZDvVqjaSTFEoHR0i62M24ggEJhYehLjENiwKFiSbtk2IXrW2xa7wqwqb6ytgdDX8PbmxeNhO4P2XPW+44FRdz31mYEgMcEEf0mytaK4HxLs1gjh4UTAKdhpPhYMv8gZLao45CZnlITMNQlhNuyyvUFuJkaQ5YEprdrISnPVV1s+4PcfQcLdEGAanH3vs9l+d8agYnhmYKQNc0GdKL4N3wcDH3rv3h8QD4Z4LT/nKF7NWmRKwLQoork7gMBUmK40xbREJr7KJs/SRQaQbHE+yVpqYtWJgdHQP6FetBki3ggWH1wcDv+XEfvrzL3v7o/foOu4zA0NhgAv6UGZqVfMUr0cNQ/9Vvu9vIymA4tBgoc2FhlAS4gZR65licTBZiSb9kCiF+DAEkHggD1Su+S4wAH2dbwaV0WAvHY4AhV7ws+I2Nv5erGSMDfrIAP/h9nFWOKeCgSdesO/J4h1ZT4sj+cr2tMSln4WpaOCSQlo0ZJ+0jakwWWKdKLBCGovb4/WFRCnSxS2EtPUpABMRJJCxuKob9kT1JNv3U+B0LFS7PXqnnlR6uXwijgAFQfDCJzz04qs6DcxgzMCcGOCCPieiOUwLBsSe0tjxfiYYBzuUet4CynSBr3FsoeRF/cWcGsmwnwIyAJYBJkt8EgWOmKlk6K23AVRet444EwQ5xbxdJxDcxiYeHfyLD3n9Q9br2LMNM9AnBrig92k2OBeFgSees+8S13OvMu87BzP4ml78gmWRyDCFNV3CoZlYikA4Sha1mgAjr7Wc5m8kp7iVkScXyAWjy87dftxz5z8KjsgMbI0BLuhb44+9Z8hAGMZw7nxHk2e2Y+lg+6/plz721S9kdQ51Y65Y8ERmGmM5ye6ph+qn9iTrREFqs98+mT43g22dVQqzqOY804SpF08iFKfSwxft54fNLGrKOW5LBrigtySO3WbLwJNu/qFH+a44dz6Bs9LwlY4tVWUR8aGghKlFhQCBCPcAaaLB1ShWatrAIY+BouVCFa/oFY3crl9bSE9e550dHBESJf3SOD766fOOzfGYga0wwAV9K+yx78wYCEdrL/fhvnOp+EhNPG5igFthr1TFLQFaaDKlbqP3M2spH8zCtEolwpYyLxArDVJLAqqmdxFt1g3Ip2qddQ6V+CJBT7yLbeSFv3rZW844ttKeDZiBnjDABb0nE8FplAw8+d37zhPXJj0NnuKVLMkma5dmRYvWFCZqw+JgUakYRQ/3wKWFE9ogfUgFCtMbIaStr71JriIROM3jev65wfiEF1SYspoZ6A0DXNB7MxWcSM6A77tPDcb+qfA2rHYL7tfsAH2JUba0bJorNICsS+CkYvgkDHA0i7QrHDxEnmm+xa2GIxUXZDqB6//MZW95NO+lD2faVjpTLugrPf39G/yPvPPiE8XxzlfIT4VLssxqkVmSTEmzUVH+Qk6oMDEpwxTWBAmHTKxr1T72kyWTFYZFw5oFpgRP24r5DFkGr+gNxt6u0Tj8iSGPg3NfHQa4oK/OXA9ipNvWxz/u+f6ZsfmElob5m4XLlDSExMwtoKbKlGCQsiz1aO4nY7RpQ0R9bYMzdB9x1ke8E8h7+d537Dpu6GPh/JefAS7oyz/Hgxnhle86//jACV7miUOd+EIVNmnPlDLRATO7dKM6lb2yRbhnYgwlVSUaGkYUTVVJIwm8zFT1KMRZQ9dCHqUMWnVW8OLFceC0TxD4u9ed8XOYD2ag7wxwQe/7DK1Qfv62nXvFayx3xeU7WKRS1A0R2NXudZDLkljHGmwoD0JOiMtoWz5kUUJxqxEDMDXieQg/t+d395zQyJGNmYE5M8AFfc6EczicgesP7hr5k/FPiNdYBsXV7bgpWSoL88riWFgmjdQccxIyTKy61+tZcPS99HqAhBWRchLekgOBxmJgYCqueA+8c48+xvlfmBBmoM8McEHv8+ysUG7ff2DHJX7g/SS8IENfijpUUZUKuwLAlICqKKC4OvHGVJisNMa0RaTErPIjg0g3JR7W0rFKG13DfSsDQFzFmjw9zhUl3XNfkFy0aQVkJTOwOAa4oC+Oe44sMRCs+T8tvjDX8lvPJRXarCxglQYqLG0uDnUTSkxcV6ZGb97D4pQo9A8JX7w+lbpCofRf4hYQJ681hzoVT48TDzq6wN/0rqvpwmbMwNwZ4II+d8o5oM7AlW+79BG+G16XX9mOFatCVjR0FEphykFiSnW8ejaFVwKIo5pSU1LgZA3dIu2LT12hO0p91TQt8uKSbfFOdLcJjIQ4gCYM2rZuYQjxVNzGFnqvOfcVzngLMOzKDMyMAS7oM6OWgesyMD7Ke6bnOydXnTvX8dSCpWvb9ClESo7XV9KaVACORUkMhfRIFLgWlxIB+i6GwejrDHOGo0fix9DDT9u1+ydnGIahmYHWDHBBb00dO3bBwJXvuvR4x/XFvefiT7F2taEMtbJImYnEC0uLDTY+qzmqTIWmypQk8RSx0snoETJVXKRJiAs96ShZ9KYJg6la552syMcLXT8IRy/jp8fNm3yOV4cBLuh1WGKb2THghZeI57Y/eropLoarrkizy0Mgp+GxJISs7sn9qgwx+Myn+JFhxbAAyH6JGW4L0t6dR4ek5FUeS4/a8UQU9cB9jDtyL+lRWpwKM5AwwAWd/xAWyoDnRc8TF8P5jQpmUqeSDzR3WqOaF3ZFQ9VDD1NhstIT14IU15Seeiu1b+ZVbV1toefReR9S0NfOg8wGEE4L+Z4fBG7ws84B8ZBiXpiBHjHAf5A9moxVS2X/TXvOD3z/6ZG42ChdymJTtkpW6spKD9FKnDBPUJlyU5KjCQ2hxMSqTO3liI0AS6d8UImEQs6VVr2C2VEHAlatHYVaFAw84128XvW6y0971A8vKgeOywxgDHBBx1hh2VwYGK2Nf9L3vB2tjmYnlQorV6kM01gHZXHAVJisxMe1uLT0wlqkD6nAUGYogzzkdYah+gQdhH4gTqa/pE85cS7MABd0/htYCAN7bthztNjLucb15bO5ojJIhUpqFjnWlRUORQPzVMIVlpSUlksaKYzUFNhST2pKQZNmcdSAsEnF8FkalC0dDfoFIqa0y/Iwtq0dYWm1QInnBlddcePu85Z2kDywwTHABX1wU7YcCR+3ffxYce784jh757m9KBFjJp1IBQFUV1wT12JmUVmSILyaiS34mQrw5LXaY2UtYvE42HDsn+I74dMFCfKv0pXlhAe+eAa4oC9+DlYvg4PXi6e8xteEIy807z0nqtRWWCogi0aBtoX91wJjaw0zpyq81KO5n4IL7vqqGHCnigEo6lHsPPvKN53Pr1atIov1c2GAC/pcaOYgMgPXPHDHibHrPHu6kV8Ml2qLQtWoVlHGLUp1BlXkISVdRJFO+BeyzE7tq70cCqSJBlcnZnrmqanFIcfMg8h9LJgdSkLhpo2B5NWq42D3dLTtWpsd65iBeTHABX1eTHOcgoEjofMMcUXRSVJtLHR6A6s9mEz3M/oWp7avVDViVAqoJAg5IS7DqD+ISrnZqoQyXVhShwExBV7gvGL/TWet1TFnG2ZglgxwQZ8lu4yNMuD74TPFHrpYqDJDyRG4xFTfpy3tGiClTplDulG9C5kklpplUGglCjyvwqdoqK6pu6pMe6os8UJEOVqhKhq5hrddMZDcl+7658fT457YFSbjMANtGeCC3pY59mvFwBPf+5jH+657IVnLEVSsHmEyxFUVJU64J156Vfduenh8EpswL8Vli8TIFPUtq5BYXzAgSPXHwbbA9Z5//UHHL+TcYAYWwAAX9AWQvsohxUPhrvZC/5jyYjiszAhZnePxGpEYkmbSqEvjieOshBIT15U1Sg4xxuKUZnZtacetpgzAnRrigNO+b9y16+ymvmzPDHTJABf0LtlkLCsDV71j13FO7F0FR9uhXmMlBpMBKCYvZEVDD08pTDlITCkVWY9D9HHAxNhUmRIdVbdI++JTV+iOUh9Mk7MdkoybW2MAnnToj/1T19bGz9waEnszA1tjgAv61vhj7wYMbIbr57qe+yi4Orh6aVaoqvG6tqDHgGkwWZIRqYA6bVESwyE9EgWpJdBYXJeBWLxbyHPd5+59/d71uj5sxwx0zQAX9K4ZZTySgSAInuX7fhCLm3dhocoLJSeBK9AUPKWjIhYF1LApBWWr9MVkdm3qYfqZEnNomI2QYWLhjIkxWZkvt9owAH/T4smH54+POvyUNv7swwx0wQAX9C5YZIxKBnbfvHu75zs/lhdz1YEqMfVvy8rxKKRc33RL4wlNi/P8aHw6iCjIFmUBVsdGGCdmsSNuGSw8ubEFBoBPafVC8exD1/up/Qf2M8FboJVd2zPABb09d+zZgIGTR2vXuLF/enExXFaDsk0tJMy2kCWNomfgKRqLbVFAFQcVDlNhssSLjFVEUsGpXhYg3ZTRsJYOUdqkGpdPousU4X0gzrZqXjHck+66+zZOu+tRmoq7zMBcGOCCPheaOYg4InmVF7ojeodTLzsZZy32ggkkOnTF9FB4ybc9ocTEmKwidCu1PY5d2yrgMjgBLfracFzJ893XghPWvbXHC1f+2dSQPzbfOgNc0LfOISNUMLD/pl2nBE7wWCd9moxinX+HKkLRAXnjhXQiFfYQFjdMhcmSAIkC1zY/qWDhBg9hH+MqaoEnfe2IB7iFTczpC/fduG9HR5AMwwzUZoALem2q2LAtA+Hatl3i8Zjnwe09lnJE6MQ3r1SopGaRTl1Z4VA0TE+QmFJwwKW0HNeoKFKvaBYNKctMZqoSm1QMn6VB2Spg0gap0OyG3M2poLYzHFskXtji+95FY+f+vTMMw9DMAMoAF3SUFhZ2xsABx/Ni/xrf80Op3ijwVI2h5Iqz0aG8KLkBMBuBJbxFZcmF8GomtuAPRAXj1dcFp+554ms1Cl6w4DQ4/AoywAV9BSd9nkN+0jm718WR9uvUe8+zqpNtqvMRhrVt7WgFTNEw7bHL1VJzzEnIWpznN6MKSQFfNAozLKdCWbiqfmpPth5QGwZhW/s4FJGv5/mPv+xNFz6ij+lxTsvLABf05Z3bXoxs4o/3+I53Nn67Wpmi/Vxyg9KUmFL2lLzMw2hZXDAVJisxcS1IcU3pqbdS+2Zezaz1iHPoQ4L6OoewXYeAOzlc3zltNA6e0TU24zEDNga4oNvYYd2WGQhi76ni6XD031mLKoO5YLLK5BMn3LPxK1VxmMoU6FJOABLiMlClQWm66BakKq+Lzqer+GJMfiheQeS7T+DXqnZFKuPUYYD+oq3jzTbMgIWBvQf3rotDj1e4cE7RWMzCk0pUedkrWwCl9jTwREkfpLb6alBJN3PA/FKZqpF7cjtNGs9LscNyEDLdk/QhFRW8EXFbiSGHqrUV8DCcoo0p3Ld2eeQc//BhZMxZLgMD2DftMoyLx9ADBoJDm48W3+nnVh1u7ypVSx2rCIF76gU0BcFtk+pFqAixlFO1hWRMVuUUBT4b4ingLTt52HzbEmZZ3OCyCj8Qr2yZOk9dljHxOPrPABf0/s/RYDMcB96lwZp3TN2CXpahsgWDT3viU7v4TLXSaMqUpo0p0Txbdmviknll46wJUyZJOBBxQEx4lJByK3eo2so+3E4YgL97ccX7c886cNYaU8IMzIMBLujzYHkFYyRfYrH7uFrVo1GF6ZjMInbRKAKYklxFa3ILfVvHw7QxJTqu3k89mvsVOOAqr4WCG00ZgN+fXuyce9ZJx17W1JftmYE2DHBBb8Ma+1QycM7DTztZHHJ8crQJl5dRBcaUm5I0VCoXn5QBmhFlTGeEwoAwg8IQSxnWwhBTu9K6tElkmCIz0TOnkSw5gxO1lqlwqwYDFI2JXHy4oT/2Rny1ew0q2aQDBrigd0AiQ5gMBM7GXvHErGO1o+SmYS6Bb0CxZJu00+Kzlb/Fib7anXAixNVDoRwJOSEu49hvBCztuNWEAaBdXit90ye6X/7Ytz/25EpbNmAGtsgAF/QtEsjuOAPx1L+q3rlzqjI1leN5gLQ7pDQGhUdHonMjNXQQMR6LkgRkRVMGgGV9bYwhnu3uBd7569PNi5v6sj0z0JQBLuhNGWP7SgZ2vXnXDvFm6Msa152sTjUpV5htIUsaRc+et8W2KKAWKEWVdRSZiF70k0bRk/IqIkkySzODSDclHtayoKysCniyrV0QAw+Z8QPPd0L3RwUev4GtC1IZg2SACzpJDSvaMnDqUdv3ict7TykrGHxxlmWmPi7mI2S1j+OXkTCkUtu8ReM1O9SN4WCy5hmqHrPAVCP0vwccyOu8Mo4mkePG3o//6A17ds4rJsdZTQa4oK/mvM921J57pR96O2DvpE0dz7909SRBji2YvJAVDd2TUphykJhSwFOlak+Pl/YLm6RR9BRjU2pKFAfR0S3SvvjUFbrjEvRhiHXWRQ0VTj35nnvmITd63KJy4LirwQAX9NWY57mN8tw3njsWT4e7SDz20ohJ76U3rTrCvqmLyAZzwWRG4o0FzVBJa1IBY7EoiXzBw5wVwrjHYhiHvPY41SJR8fhjd+T61/c6V05u8AxwQR/8FPZrAA85dudD4zjaFW1KBUdq1s2WcqHkdlzKi5Jb0Bq6WM0tSouqYXLiFEA7MEuc+aogfXmdb/QG0eQk83bm7opfUqKmX3rRG846pgEimzIDjRjggt6ILjauYsCNg4cFY//UaNrsXHJRdeCLUFkMQabtrlAVEYqGkkDSwfaIU3PMSchanOdPo2p4RbdoFMklOZliSV80i4bFvLCZZwPyqVrnmY811hYSjafiDWyu8/Ad68f9sDUGK5mBLTDABX0L5LGryYDvO3udGPZHtr40+UlgLVSJ0mpRK9kCoWiYbpgKk5WeuBakuKb01FupPeaFyXTv+fQhE3mdT9QWUeQk83YLmNwFft8Fa8FoFHiXOQcc/t7NieFtpwzwH1andK422PUHHd+JnCfn95/D96C+YHu6pU3mYTgagsyFkqdqTIvJwLqQJ42il8XJ8Uy5KcmxhAZTyrEkdNVU7ZVmhJwQl35lq4Fp6VSzBdhVa02o2ZpVJTkjkqbw1MQ4uvrSE84/drYDZPRVZYAL+qrO/AzG/Z3/2H2G5we78oKuhGj5JYm5YTKIRcmTPBIlZoHJlMzxTkM30jxR4FpciqeTS3EfIW19CiBHVrcQR19Vix71Fp5omkAsTkOJ96RfvM0b8StVe/TnsUypcEFfptlc8Fj89XCvONa+vuA0lPDwVdpuwT2bSG0/MXAcOdNqC9ma+jXTEEWBlDuAI6+yrldtOcm8PdcE86DytkzAFaej3MC/upRwixnojgEu6N1xufJIfuTt9wLXp4pLLrcfdldphK/FdClb0E974lMVZ7bEJrM1XUwJgdBQXBOXzCsbngUG5xJzELJM7IsHl8kLiKtW2X6h7YUnuvUEfN9/+gE+j77QP6NlDc4FfVlnds7j2nPDnlC8Xe0Ccb+tEhm+/lottR1rG9ZPo4AsGoUvXkBBbdomToTY4pG40R8WQMJJ9xD7iEoBJ9z6IYbk5XWuWcmB83YHCcTOGX9z6oX8kJkOqGQIlQEu6Cof3GvJwPYdD54Vxe5DI/FUrDpLk8JIIaZy8SkZSE0iDcqCzogAKuJiiKUMa2GIpZ2sBWmiwdWJqZ55aoo5YDI52hzbkEqddWYpLSY4XF8injCz0w9cPuw+s7ldXWAu6Ks7952O3J9uf7g4kvsQZ2rCti4jmWNr/yyVVv4Wp+G+UtUyKHPaupVAaHntFr0Gmhx8gTyITMWTFN3A8ffsOrhrVCNxNmEGajPABb02VWxoY0C8UWpXMAr85PntNsNa36WmUSox5WkoVa72tGQSpb5PW9qYvqaktBatTI1ZpTJVo/YkpESB51X4FA3JL2vqnqkp4oCITLSGEsCsWhtCNjOvCj6LQTfLULaGl7WImw72HHWX+zBZzm1mYKsMcEHfKoPs71wtnt8eRd5jpuJpWH1dWmVmcdILaOW4CSxCLMFVW0jGxQ8MRSY6DVF0d7UPYPKqamfckwPn7RmH7BgenhoXhP4J20druzqGZrgVZ4AL+or/AXQx/I2jj9shLm2/DL6omiyNi2ICjsUQshb3WWNITfLXbWm8Js+8w4svja1nUdUHrqpsJD3Y6quknn1zocFnODxx8agbXyG4Va8inWFEhl5+BrigL/8cz3yEkyg+RzxQ5lS44IeqFYpc6VSkl9nCBnPDZICIyQtZ0dBjUwpTDhJTSkXW46j9AqdoqHoc1WKcuesWaR8+M03etG3NVDqW2IJneXYcsQ9w8G9FHHi/6vr37wr7kA/nsBwMcEFfjnlc6CjcMN4HX09tlpo/AWpAiy//jr7/O4JJci6xylaNwdBDscDQXCIRLTiIdUciCKqvHUEPDAauNfFc76F33uPxy1oGNnd9TpcLep9nZyC5+V58kX7/OZa6UkOUDmYtyTJbyoWSSwhIk/LS5FpXBioKqGFjCFK3TExoM2hMm8pMjSlJQBSx0pHT77gNcarWjkMOGU5QJf7NjHw3vGrIw+Dc+8UAF/R+zcfgstnzEif0Yv9C182/zLscAmBiCyVvfpSAQqLkWDayDPNLZfCJaWXvmm0LTPEjoyZUe7N8PPm2PdKqenq+54x8b+/1B69XH923qoTwuLfMABf0LVO42gDb9j3qAvG61BPj5rW0FXGWWmbgWW0TpdVCw6uwrVBrYHRpt+TVMEQSMvVp4ylnDP76Kuu53YoBeMiM45515/c/d1Yrf3ZiBjQGuKBrhHC3GQOuE1wsPE5MrzJvVz5q7VUaNckQpIlXXO2OeWEyACvkRSMNIX9iuWPmqUx8Yko5lgSumqo9yQxvEuYgNlW5lNriIVi6NQYicVeIeMLMGYHr8e1rW6OSvTMGuKDzn8KWGAjd8Dx/7I9a7aGblaUyl7zk6IYUFCVP/EklpaDkWTYV6ro5pxUXB2tzIARHAmm+6plxf2YM5JRnW0+8qcVz/MeIqeDb12ZG+uoAc0FfnbmexUjFdT3uwzzlhSzwTYXtBabhU23alj+xPV27B2gxNCHDxFIwTI3JJBeyCX64Ly6lrCEA5qHKpF7RLBpFjgWXpqqw4cYMGAC+q1YtLDw1Trwr50f3v2XXdk3FXWagMQNc0BtTxg45A3vfsetYUTweDocOk6VNAWnhQ7lQ8jxffEt5UXIcpXOpJbxFZUmjnZcFcLVVQKe+tmAEHsbkO/6lE3fbSS3c2YUZUBjggq7QwZ0mDITrO44X+xfnFAU9cc6/5fA9TjChSkuxZ2kkkXlIjlLTsE4i2A0QH1xUwBQN0w7LOzVXnQpZxXl+MwIhKeCLRmGI5VQouVHNAFBqW6sRaluIw1ziINfG/toObMgMEAxwQSeIYXE1A8Fkeqw/8o92xNW6xSI1C9kMGvYwqlbtackkSsoCk2MyCbNCLVkmTbs5rgUprtHRy35q39Sr9F/6Vk5qvp3ngMUxd/ECth+ZZ0iOtZwMcEFfznmdy6hEHX8MXMnT3YVaNdLuqCa1grE40a9UJcZEYBFiCYSyIOSEWAJcvSZwoq8LZMEV38KBF/7Q3tc/ZH2BaXDoJWCAC/oSTOKihiC+iM7Djx43rCK1zE2jVKLKy17ZAn7UnsZYoqQPUpu+pkRBzNSYVSpTNWpPQkoUeF6kj+KuWqk9yXCZmjDIqrVn44U7ROIoOsUfH72nZ6lxOgNjgAv6wCasT+mKM38X5ZXSLBapxJT3ZwRd59as9IroRAKEWCKu2kIyJuMoNkPtABXyOsBxwHPd3cA7PgiCxw4wfU65RwxwQe/RZAwplX03nneUuJbnfPS1pUm9aVd08KKIM1NGKFtgmfbEp3b4QLXSMDOlaWNKUk9KruGS3Zr+mRlmncgwBRkTFODQ2MmKODNlnqptO7PgcwQW4wvEU909L7hEROX70edI/bKF4oK+bDM6p/F4UXh2HEdhXhry71wsfG6j6yi5bmf0WzsaSM0Flti0itZQCdTxMG1MCYXfSzmkL6+9THI2SSV3ikTO+Ze95dHHzCYCo64CA1zQV2GWZzBGfzTaLWArHobRrsDQe+kmnv2CPGFvurRioy0M5lfKyladpEhrUgHDtyjrBJ2VDaSlr7OKNQDceAKH3d1HhOMx348+gPnqa4pc0Ps6M33Py3fOFPfPhnK9UEqH0qEHo5gpHdon0VTYVqgLcNVO7RVG8iBBSJkJVXG1u2FjCFL4TExoUxs0YOph+pmSBCQTE9osTkcbCFK1dhRqWWDgPHoQ+DvizeiiZRkTj2P+DHBBnz/nSxHRc4Ld4hnuFWOZRfkwMVOJKU+To+R06pQHJaeR6AxSrLaISEQL1Mz30iG2vCLpsaiagQie5+A6l1VbsgUzgDPABR3nhaUWBnYd2DUSF5wdnz5QRq0kSk/qSE0LckNVC1DMpZAljaJnT8ZiWxTQmlD5DrhuXvTJWEUke665tgDMBTW24FO11oBhkxoMCJ7FraB7a1iyCTOAMsAFHaWFhTYGjnno5ATxPpaTtYvICRf7WW7CSdSQ+tUnrzf4sXChrZeokkr96Iob2cHwUlkzfjAcMmgbBQSQ1zYY7NOOAfF36rv+2Zf//nlntwNgr1VngAv6qv8FtBh/GI6PE89wP6F85GuHZWYOUNYQpJJSUPIWxNpckjB4rGY/CaQgAKevkpqb82UgmQrXWffG2/n96POlfmmicUFfmqmc30Cmjn+868YnYe9Az+uDmg1I8f1nuzz1S5yVD1NuSmQHobUboGrMBZPJkaANNrgdLqWscyzYyguFUgY1LYwjHqaJHILbi2BAzIl4rPtaFEcXLiI8xxw+A1zQhz+Hcx+B7wWnBGuhB1fmlovcLqVlkZFkVU0CqsoN07eDorwoORY5kzV0sZpblBaVJTlW9Y0BL3Bd33Mf0be8OJ9hMMAFfRjz1Kss3Wh6Znm43UzNLC4gMaWyp10rW+btzENyTJuSIDdNtkJOqRS76k4BUzRMH2OPWJik5qpTIVN+HJl4tETFK8eoyZP4QgZiU0XDs2auDLjiMnfP8U9LLjyda2QOtgwMcEFfhlmc4xiuP+j4jus/EjvcTqYxpwJiD6Nq1Z6WeaK0WmAOmkzqNoESbnZzXAtSXCPlwc3eMxBNHWcaxyevHR0d3/tkOcHeMcAFvXdT0u+E7npgfyhKx5nq4XYzZ/NCrbTc2IoOpsP2dMtomYfkmDYlQWksWpQ8NcK0mAysC3nRSDHkz+IhM5IQM09l4hNTyrFIHMKRApRwuDlfBuBAjH0VT4xz3JNGQXDCfDPjaMvAABf0ZZjFeY5h+12BqBPn4rWCKiwtEpwDlDVEosQsMBmMj5JnY69Q6wyR5okC09p/+uj43J89A1jhrowqfgmLe9FPGgc+76FXksUGOgOBLuA+M2BjwJ/s2O757okxPNWqYgEL9dVRqcSUVwDNUd11bjgeLk1/FKiM5UOnPHJ9ky1g8dI9A60vg5BSSR4Buxa44tHup0pibjIDtRjgPfRaNLFRzsD0yKGzxTFDyzNfiXKRiAldDq5vM/Na+56FbQ6ixkp74lMV58b4NrM1XUxJCkDJcXhTWtM/M8OsExmmyIIBl57H/+xN7u0SbG9bl9kRGmjFj+VoIi485YUZaMgA/0URdkEAAEAASURBVMtuSNiqm0exe6YoCpaCXjJkqStkXbX5lMj2lh3DrrUjE1oLJPZjJDUnnAgxRLaoiMRwL0/c7MwLzYBeqKE/zwUuOHV954LkAtR5BuZYg2eAC/rgp3DOAwi9s1xY2nzJJT5tHKGYUX6SPGtKEoWcVC4+JQOpqdiWHcqCzqj01VoUlDArVVhLw0m6pV2pTXNKNJi6NFzpFlawZdmiyYHD7uJi9zPTC1AXnQ3HHxIDXNCHNFs9yNWNo9PFRTu1F/Nq92rXRdeiVvEtTvTV7oQTIa5mjrLoHJAK1Du5XKjzdu+S1BMS/2h8uPAULkDlhRlowECDr+YGqGy6tAx47ug07Uq3hmOdRXExMVOJKU+TpeTUUOi98aZIVASQ23PGPa3xrUocb+jSvGjn2yGOB/bQPS844YG7tu0YYv6c8+IY4IK+OO6HF1ncIhu63knigHuSO33YXa0kaq8cNiUvLUSrlpHi0biDhShkRaMGbGKLOxQ/CSS11NTAxS5aptRtin7SKHqSfxFJki1HMy/Stu1yjDQZhR/Gh89eovHwUObAABf0OZC8LCH2/95FR4sXRxzT5nWkKgdtDsRDjcMKmIqc98AytcZ8hAyqQsOluUfDAC3NsbwwWUv4hbnphXthiSwgsPhb930nOHMBoTnkgBnggj7gyZt36htHuUfHrrM9rYVVJaPUQ6voFY00e61bDEmRK53CBG9U2FJqTF7IioYeklKYcpCYUsDDpbRc0lCuKKrFGNKY86IXa6w/55R6FQ6uO/XD6KxeJcXJ9J4BLui9n6L+JBj4k53ii3ebnBF92F22wtrtCgy9l27imRI5D6G1G8jGok0b0xoNoka3LRbpRypqJNORCRfr5kTCaS1xpfvpzT3ZY5UZ4IK+yrPfcOzi7vPjHDc+qnwxS1W1KPVlSwRVOnQSipnSoX0STYVthboCXFdraFpXti5+jEg2aVMSFA5CBpVQLJi2MEO1lJ8dqcRs1sIKtixrhsbWwIDrueItSOGZzAYz0IQBLuhN2FpxW3Hme7s45D7Wy0K7vXRA0ZG2SrCJl0pMeRqp6bn8oiQbiVIRDMMagi6xknAdAsqFOm/XGBKbNGVAXHfq+96xzgHxNlVemIGaDPAfS02i2Mxxwig81g88cW9suwqheCmdGbDbAt/qYlVi+Vc4VKh1RNI8UWBa+seHjm3r50U739psWdchAwnh0dEXnXnWzg5RGWrJGeCCvuQT3OXwXN/f7od+ciRYLyF19tJ1n/yHgSm3Z92kVAF2ik9EgS9Oy4JpMRlAFPKiYQJjuWPmqUx8Yko5lhSCMJUs1GZepG1b1YN782Ig+bOM47X1w0dvn1dMjjN8BrigD38O5zaCOI4eWp4/z8NWlZEqfY5TYzsHKGsIUkkpKHk21gq1zghpnigwrXjJhw6Sh8bMCVsWL4CBZH7cHWtT55gFROeQA2WAC/pAJ24RaYs/lvV8j7FZPSity1Y+glRiylM9Lac1OXK+LS3LVq5LdoExcWmQDzmTpMYVLpK32gQ/3BeXUtaAinlgsiSDQoEdI0gs+KNPDIj5Eo8MPuqIE/F70fs0Lz3PhQt6zyeoL+ntv+msNfEFczo8ltJcMJlpZUjauDXxqbCtUBvp2gXdotljIVpLeIsKAWJRfxhw16ORw4fc+zMhvc+EC3rvp6gnCT64PRAX3h4l7xZSh3NtGduKC6Wj5ZTGzMBuadeaaDUkFkhsHzk1x5yEDP0RVSMH0gSLQxqzYhEMiDn3As8fRSFfFLcI/gcakwv6QCdu3mlPjvFCx3WPpouLeNB7mzqRXv3T8XCkRLKmJEFiCa1kIDVN20RJWdCl2gTKJBSUUGMqTFZiY9o0p0SDqUtnbi2CAZgTZIV/FsHIc4LY54K+iHkZaEwu6AOduHmn7UaTNVEaTtEvimtTI7res58HF23GiVbkLFn6larYaER0IgFCjIGwbNEMwGTpqy0n8Q9lEk+Os5mwjhmQGeCCLrPB7S0zQO+l20qPTYekVMvcNEolqrzslS2IqPa0HBIltjee2pm+pkRBtKgxFSZL8BIFlhcmUzLgThcMAP+2tWEM2Et3Peekhm5svsIMcEFf4clvMvS1yc4dQRCeFUdJ1Shc1V4hrmxQfpScApxnqWqaG5VzLsdzp6KI3TVCRYjzMLydBQNAur7OJk7AT4ubBbHLickFfTnntfNRRZ546Ks4rbc1YKL0JOI2B+KbZVNGL1slgpAl5/NLSZ0WhlTHb9Y2WF6JDFPMOpmh4wNn+jqPMcGPZ889Y/f2k9fnEY5jDJ8BLujDn8O5jCCK45DaRSxLcf1qkX8/YslTKIpc6uB7uoCcGUm2rePpjiSmpii6RaNAMiV5xpgG3Ci5pKFNLN5FSqvZAM5s64JYgZT8yAmO23YC/JjmhRmoZIALeiVFbAAMxO6hi+tWBPo8uoXLpBAlHxajravKHx8YlojfKAXamNZgcYXM4mBREWCpmPQjFVa45VHC+OW1ryMTOYrjYjudbeEWj4z1dYCcV9cMcEHvmtElxRNXt1v3EsoaUbaqqKhvWSIpPkqntFFbmVGFbYW6gKxnp1lp3QJMNLCjC6k55iRkmRjTlriYFpOVHkvTgmFWrQMZLFyvIt6J/pDN+w9tG0jKnOaCGeCCvuAJGEr4GF7Q3GCh99IthaXFOewGKRWmaQZUHpS8cNcaWElOTeogKTZKRw1jUamGq9QDUvR1ycbvus7UG3k8/Us2r7MaDhf0WTG7bLie+/D0ojH8uyX/Xm06bByt2BGtDUeXVQnCCGYIJOO0iVkUsqJhuJmCxBZ3wHLHLQFWaDKlblP0k0bRk3KhX9YiGfWjCelXrf3IdKZZiF/Ro0kknjDDCzNQgwH+Q6lBEpsIBuL4OKxE2LhptZdOvh/MFqmZLq8TuJfQtjhS0JQbPLZdmsZoFgmzxmT2yHPQQlLyOoeQfQ8Bh9x9Lzh9HG7jq9z7Plk9yY8Lek8mou9piAe72q8nUwYwx5LRYSgKipInQyaVlIKSKwRuvZOEmVOsNtlCavLaBmMFfMQh98CPpvw9vQJz3cUQ+Q+lCxZXAEN8sUgFHS8UuJQiJ7XOv9MLq0Rc6gq51Ei1kiBrYoeuU5XpYUpkPKG1G2jq1BhzwWRyJGiDTWFXNHINbPVFMVKUmEaX+b6v+HTagWB11k6DMhgzwAwAA1zQ+e+gFgOimh9by7Aw0stIoei+0SRUhW2FumHu3aJhwa0RUKUQNrq8EYsqySCGvEoqbnbDQBwH4mJ3XpiBaga4oFdzxBbAgOtdkH9v2wgBG3mhz6OXVrqP7eK73MvwyRXk1vRIJaY8hRBySoXGoI0LTdEwAZSjC5ldulGdClmL8/xm1BoSCGhba0CwydYYmE7ve8TWENh7VRjggr4qM73Vccb6e9bqAKrFqI7HXGyytOzZqVq1p2VpVWq2SbexAwZSyOxodm0BkjfAXF5zOW8XxkAURycvLDgHHhQDXNAHNV19ShYvFHktaJqpdIJeccWjpCaYTtnTVZCgg3nY5AaAIqDQFCO9Y3Ga+ytVIRd91fPl/sIZiGOXD7kvfBaGkQAX9GHMU6+ytNQkNE/6sLsNyaZDwjQ0zxEwt1JWtsBe7eUI2TZRYj8nUi/T15QoiBY1psJkCV6i0PICGemgZMEdZoAZGBADXNAHNFn9SxWvCri0OnvTL5WYcjuWVr7sxoWWiEKIc7cKdW5We4vj4VJHvvFAi0B5aGbcZQaYgSVigAv6Ek1mP4dSVVoIfSImdNRAm5hntpRLKqe0RAIkJoVDyQn8tmIyr7aA7Dc3BmDu+ID73OgeeiAu6EOfwZ7mT50Tt6VrK2+UjpbTGlsOqI6CQo1rCC142NGF1JxwslztTnjUSJBNFsYATJq8LiwRDjxEBrigD3HWepBzs2IhnjPXzCEdYeLTxrEmQRk09eMjVava6mwoC6xU43kWlhSUcMNUmKyMUGpd8ZQg3+d/+iU3c2rBFFStc0qFwywnA/yvejnndTajKmuChI8KEz2tkdy1plo+NSXRbR6H8qDkROBM3MrL4oSpUhmhwcT2lIW2y6fLVAZbTQOYF3ldTRZ41HNkgAv6HMletlBN6wi9l25DsukQRhua5wh2N7s2xyi3xT52KcpaTZHQXfG2WAKscXxjBCxAGQBi9RU1ZCEzMDsGuKDPjtsVQsbLBC6tpoXyo+QUYrvyRUSRxFKzCF3IikahohuJLe6A5Y5bArzQZErdpugXDTod1hAMAHdVK+HKYmZgngxwQZ8n2xzLwgBRcRJxwwPxBJQlePF9jdvk3+a4lpK2SIOCqpA3i9TMuiL0Mqrz6c63yzhGHtNSMsAFfSmntftBxW520pWsBriilJatquzAkrJuLq/woNRZkopa6kjNYjiFrGgUKgxNUpoOIDGl4IJLabmkoVylTJa+mRNr2/aABDm9HqTDKQyEAS7oA5moRafpT50vYjlU1QhdT59HB3TdOouYiAkdlpQFijKvdmkYnxqLCNQUyebQGCsBa+5l463XOhiqvPY0WTnFFZqdns7GcNPigj7cuZtr5nEc37P166J7+lVVkVaFuuE81EfDzqPXCVYVAW5b8+C2tSrDOsH6ZgNjkte+5ZflI6e4jNPQU9qXPi0u6Es/xR0NMD/kDnDaN5DWNQLqevteeuqu+/TmlarG6GwCuiQX4ysaNhyhy+zSjepUyCwPmdHRYTrp7HTrHvRhkHXWgaTaKE1XnPDihRmowQAX9BoksYn4Lo3juf+tqGVrxrNQK5hqpPa0/KxKzTbp4g5tiy6OJgKRCiynBcogT3ldYCq20HKKedtm30Yn3rZ2uI0f+6weA3P/kl49ipdjxGKP7m5HHKqlFvgyo6oF9kVH76WnSDiaLUqSgPqRQTUpimWuZR4KaMVeMOaFyZTxUQZKYNHJ7DDzVCY+MWXpmiGCEaz0fGaGs9vkKVDb2UVuhEyll8sbgbU09sLR51u6stuKMRCs2Hh5uC0ZcOP4yy1dNTf4KlxgIdGyqdulsqbkCS6ppBSmHCSwtGHMREuxqKKfabvf5IPoHrlTxL6mueaFhzodKIMtLQO8h760U9vtwFw3Um8GJ7/9cAUurc6R8msub+oBuRE+hDgfDabGZLl9uy2FSMnJ0bQLT3lBeH2lbBcsH0iaTuTxOfQF/6kMJjzvoQ9mqhabqLiEarO7DOCr1LbPSegTMaGjkmtintlSLqmc0jZNoD4OnDKQr0mkIs1FDmkPYBlImgNgklMcEgO8hz6k2Vpgrm60/mmjBjf81lR38esNxhaC0tFyWqNnQ1mmdkJrN9DhqvsN8VJzzEnIKs7zVyeTWQC8vtZ2nq/hQNJsRor4zTuJJj94YHrvRjNHtl5VBrigr+rMNxy3F3jwnWldKg0U77avVM2/uhWw7jrZIOxjUbVqT0slUVIW2OV6uG1hiauToJgKk8F96MkePxR+MKBWbSiL6lLpyfJF5TbLuDBPTux+d23N56vcZ0n0EmFzQV+iyZzlUA5t3ndkOpncnXzJVAaCr1p8oTW4PUi73rPHI1GZUXIcJZdiXpgst0+2FgNMhclSPKEhlLnY8/r7Tx9ylFeFoxXriNtFg837J/2drBWbj74Pl/9Q+j5DPcnvyNjZiFzn+8Zhdy2/vGBoYrJb5/Y107lhlIbmeTzMrZSVLbBXezlCtk2UtIWpMSVpjEyOq5NgmAqTaRnOrQu5VK1zS6bngZIjKW78vU3XPdLzVDm9njDABb0nE9H3NEZj74j4Y7nb1f9iyGqBK3Bp9egpP0pOIRaHrikDVE5EIcQ5BKbGZLl9uy2FKI5rECpC3C68xQvi6KvFnFU6A+Lfmjg1ctc21+eCrnPDfZQB/esZNWIhMzC+y9kQh/+sD5fpniWi9CTihgfiCShbzpRLKodPysKGury6nJF8u7wjndPIBJHiZtHongd9/kObE+VDD8MFfegzOKf87wvWjkSu+x30YXHk1w2uKKVlq2oYYElZN5dXeFBqLEnJVmqalqRSUxTdolFgmZKcE0wDbpS8gKzdAKSqtTYYG6YMVBCaXa/ytdseuI0fLMN/M7UY4IJeiyY2uvWlt2460+gHtse/5ixVlRFdT59HzxGRbQKiIyF2sqihObhSxwFSqKaAtD2tkQcglWiLg0Wlgll6gCGvFlNW1WVAJrTOJImL3MXzH444B8g/w7qR2W5FGOCCviIT3cUwXc+/06H+Yup8QUlJlOZlS1KjzfqWpXtzn8zDcDQEZRBLC/MyZZpE68rw2DUAqTnmJGSZWNdC37bKMbldgwEbmbmuBoxsAkfDXNf7pizjNjNgY4D6erb5sG5FGfBi/3viPHqt0dezKqHovXQLUs1cyijtWpYMBKBda0ak7WmNiZJILA4WFQHG4kYMAMHy2si5prH4dvZd/wc1rdmMGSD3t5gaZsBgYOIcuXvz0DSqunXNcByqoEVVtLpYlRhJuAO2l455p7ISo2zR1qxBGADi9BUx61oUbUbRZBo92DUu4y0vA7yHvrxz2/3IQkecQ3ceqHMeHYKnBQQvI/n3o5xknb10Ey09y23KZWSpnRk2KYplrmqUtCc+K44UqF5pLphMyjInTxHZOhheKhOfmNIGtko64KZqXQAfcEHcdDOabDqH715AeA45UAa4oA904haR9mTi3y1eo3pv93voy1VxrKMhlZTClIPElC7iL2KAMXPy8m1fhwBPfY3jB2KPD7n3dYr6mBcX9D7OSk9zOvKDe78nLtO5F711DXImqwyuwKXU4FNr+FT8kk6pw7wVezDIBPReuuGRuxjwRWTTRbFV1YWXYgMd1c5QmwLFQelItpRcMlmGJgyzah3QOMVe+mF3I+ZD7gOas0WnygV90TMwoPif/vsv3SN2HO6DPfTuS0T3iJ1QO9e06gejf4zYR10/gh2nF1oYjLz2IqlukoAnMopTUD849MCD3+kGkVFWgQEu6Kswy12N8f3iTvQ4+ob1lLFWMbSukYmup8+jl666T3oO25CWDqJl1yqmWcf0SCWmPHUQckqlwyd2tHGhKRo6gNbP7NKN6lTIrJOm4fWhC4lXrX3Ic2Y5iDvQxfUq9+1w7p1ZCAZeOga4oC/dlM52QJvO5Ot54VJLRxdxu0fsIqt641VzV3tbzQJHi/LEGsLjaA1BujSHhPS1S/whYsE96OJo2Jde+SV+jvsQ529BOXNBXxDxQw0bxvG/xtM2JQH3yb/Hm/Jhf4IbjoZlYD90jXkANiXH4+ZSzAuT5fbJttJAsbZkJoAaYqnIHfYgD3ntEHpZoOIodjajzTuXZTw8jvkwwAV9PjwvTZRJHP+7GMy0yYCa1hH6sLsNyaZDsm1oniNgbqWsbIG92ssRsm2ixCxSmakxJUoMXJ0Es6i0pDroQrCqtYMwyw4BBX3qeHcs+zh5fN0ywAW9Wz6XHm1z4n1JDNJeI0gtrsCl1VRSfpScQrTvpdNeqKYiOKbGZCh2bSGFSB3XqA1sGkIoeTUtWNKGAcGpOIv+1Tau7LO6DHBBX925bzXyY8bOdyM3+lr2JqiKyt4mBFWMcixCn4gbFiwCKo+kbDNbyiWVU1oFqeyQ5pTClLf7MVKmYG1BuKrVCsDKLTAwFY+WuWML/uy6ggxwQV/BSd/KkO9cm246cfTFyocGm7XHGrZhKU6wbCEoHS2nNdbEMSUFhdnWkTXES80JJ9vV7uAir3VyY5vZMCB+qW1u+ryHPht2lxaVC/rSTu1sBnb9v94+ES9z/DfXE9fgNliI8kIi0OfRSZfsREDTSBY8QkX9+EgjU1oCjDzGUX/fuxhx0TBjoSoQyqvpxpJFMCD+aYnZ/8HJO7Z/exHhOeZwGeCCPty5W0jmB8S7mSPHu831y/BosQA1qkCFCVipKVtlFLxV37L0b+6TeRiOhqAMkrUwi7oyBQxzKmKYylRiypNJwcRKMO4skgE4nRWJw+13Tg43uvh0kTlz7H4wwAW9H/MwqCwCN/56LL5xmibdtI7Qe+klUtnKszEluQbdNjTPMexudm2OkWwTU9qe1igoZcfiYFGV/txaOANw9CuK3c/c+pJbDy88GU5gUAxwQR/UdPUj2QcnR74+OTL5rueXh92bFQvcGpdWj5nyo+QUYv2D3DICEUUSS83Csa6scIBG4oR5JodoFdPC3JBmGhwGtWbhfBmAx756jnuHuMy96fmb+SbK0XrHABf03k1J/xOKDjn3iD+cu+q+RnU2IyIqUiJu+D1IQNnyBhfMLZVRWgIRA0pMSQUBVFc8K9y68dnOyoD4nRxF4sJTXpiBhgxwQW9IGJs7zqeC2++OXe9OV9pDJ3lpWDtK87JFYi9C0TKtlm7ECE00kJhSwj0RN7O2IbGuQwZEMZ9sTDfFq1P5grgOaV0VKC7oqzLTXY7zpc7mdDq9PZo23BMWOZRlpGzJqelS+jw6eKXW8Kn4JZ1SJ+PnbcUehJmAPuxueOQuOWSxLSKbLoUNNFS12isN6YxKG62lQCkdLabmx93FMABTlK2euCAunjrfPjyNvrWYZDjqkBnggj7k2Vtg7m4QfVYU9Am8QSJf1NKRS8WWVEg2aLO1I4rWmbC3afU0sc6IXwIgmCJ9lYclLohz3fiu6YMP3iOLuc0M1GGAC3odltjGYGBj48hn3Nh90FDUEFSVHV1v30tPA+o+vXmlag0+EpNkAPTeeDG+olEBnNmlG9VJ7VXgsLo+A0Bs1VqBBhfExZF756c3vnR3hSmrmQGDAS7oBiUsqMPAx3d87l/E6zu/J44QKsvKFItaA1WN1J5CW4sOjkb/JGgRgl3sDMAUyKvdupY2Em8yjOLNf3fE8x5qObARMyAxwAVdIoObDRh4pjON4snH2l7pnpYjqiil35NyNvReeolhfgPaosjoWTuDalIUwQWLkkEJZdFCAua+enzdVItghyydM7u65qUjt5RCDQRia9c0iR/H8SSeTNzos11DM95qMMAFfTXmeTajjLzb5HPo1iCtq0prR2s6i1Jio8Fk9fIzPUFiSuuhrbRVTly+XRQZsfNguBn986LCc9xhM8AFfdjzt9Dsp5PNj8eReHHzlhbcHZdWB6L8msubekBuhA8hto2mhYsNjs6twmsp1UCuvvZgoHD2SqR15E7vyBd6kA6nMEAGuKAPcNL6knLkb35NnPP7jv6iFrIYkYqqEVU5EvpETOiokE3MM1vKJZVT2qYJ1MdpcsqAymLQcqDKtvZ1cHDLmjP54pde+aV7+5oi59VvBrig93t+ep3dg/7oLvEV9AU30K6M6yhr85x4NbCt7FE6Wk5r9Ewoy9ROaO0GOlx1vyFeat7QqTqLxVvAkPR18Vm1y0D8MxJPiLu1nTN7MQPwyGBemIGWDNz2/NsemETRZ/Ur3QGuTumoY1OmFjv0hXGlldFKLkprFsnAsAkyaHsEVav2UvBCljSKnhYZ2/fGbQtLXK3h9rgL+dvWHqfeNDX4dxRF3seb+rE9M5AzwAU9Z4K3LRmIb50emW5gRb0+IF11aA2N3vWePR6JyoyS4yg2aSWSxQBTYTJb/LnrIEF9nXsSCwooivl0M3n04r8uKAMOuwQMcEFfgklc5BCiycanRPzvbu32tfojoPfSbeXKpkNiNzTPETC3Ula2cntym5jS9rSGQGzsQOB0KYac9LVL/IFhJa9MdZyvbjpTfqDMwOauT+lyQe/TbAwwl3/c+bnPTaPp17Db19A6ggph4LgCl1YTRflRcgqxOHRNGaByIooklpoFQl1Z4VA0ME9gFJNjsgKouwaEsa3dRVoKJC8QL0x1nH+dfDb8zlIMiAexEAa4oC+E9iUKKh4w43rxP6C1Y+7DJIpVIm54IJ6Asg2Jcknl8ElZIKikKalAQOYoyoeXb+cYehlCiberiRPo8b/d+rZbN5dhPDyGxTDABX0xvC9VVPG6x79LvpDqjoqsSbiilJatqlBgSVk3l1d4UGosSclWamKW9WQFSNEo/ExJzgmmKdzUBpjWWVUv7lkYMOgUF6Bsbkw3pm70LxY3VjEDlQxwQa+kiA2qGIg33FvF61S/6ba8Mq6qvOh6+jy6JdMEREey2IOqoTm4UMcBUqimgJQ9fjAd4pOLBqV1SzdQyGup4VZLBuBvQl5lepN5EMfaBeffm0RTvmWtJcfsljLABZ3/ErbMwH8cP/2BAPkodj968oWFRSAVmLFcW+s71rcsYzb3yTwMR0NQBrG0MC9MpkBYDMQLdBRT6MDRlGg6FQ1RSUAtr4Y1C2wMyNRBWy7cedvmn+iSaZj++8fu/sznKm3ZgBmwMMAF3UIOq+oxcPszb98QReIW14ddjXYLfBk2Wei9dAtSxYtSmsS32VoyEG52rYKbmNL2tEZBKTuZA2xgbT9bJeSqtfIinW9zLvNtKz6EczyNPynesDZp5c9OzEDGABd0/lPoiIH4tsmhzQf0x8ACOHzZrcTSYqCYCyar5C9xwj1bHKCvDLeMBsCevuaFO9/OYtxwxGQjcj4yC2zGXC0GuKCv1nzPbLTfuvf+z4hdvs9vfS+dKkrmD4M6e+kmWiox5QQ1mWGTogguWJRC1uRIQRFfzy9T6GLu12YAGKxaa4O1NITrTuLp9D8clx/52pJCdpMY4IIukcHN9gzACyXEhXGfqXr/txKhdU1q7SjCb8VXyb6zDpYRJqsX0PQEiSmth7YsVjD+fC873+a85NuFjFV8A8ex+0lvcg8/UGYhE7BcQbmgL9d8LnQ0cRD/j2gST7Z+chYvP7iUGnJqbXxZJ+JSh3mnWkmTCei9dMODLKBFZNNFCqg3Cy9NQWekGZbdRnFLtz63YEjymhdseduXYcNRJXn1xQNlxAGbv//Yq79xqM8cc27DYIAL+jDmaRBZfvue73xUJPofWLLkFyqpwFBkWWtHGaT79iLTssRuUfq756YjRLlQQxuGLa8dhekERi7exikicVXi9MgkiqeTT3cSjEFWngEu6Cv/J9AdAV96xbe/N40mf72V8+hV2VhqFuk6Hx8zSiox5WmiohRRKnIky68ASvRVL+B9ZUEv3kYB1xJPnt8+db7qxIf4hSwaN9xtxwAX9Ha8sRfGAFzfM4n+3CNuX6tTv+rYlKHrv1JVwU0uSlMkJWQXrQy6SQTMtpAljaJnZKhoLLbFXrriYMDNVQCpVK1zTYgIhhVrXUa4kuL0h2/876eefuFXSSNWMAMNGOCC3oAsNq1mQLyo5TOTI5PvbWUvPa03eNXJv/yrM1EtcDT7TjLmUxRFFT7rYR6gaipHwRMhhUR7lJrCVzSiidjvncON6BBTXvW9bVkH7b4sWy3WdcYh5iCeepO/e/8z3y+e8sMLM7B1Brigb51DRpAYuO/O+MvJVbviYp/ayxa/yelDmyqwrVeZq+pcaZ4bYG6YDOwxeSFLGkUvhy+8TI0poWJIYK2bEE1foXjrstYBOnTUizXW7zAcAiVYEUHjKD5yZOPQXyMGLGIGWjHQ4Fu3FT47rRgDtx+4fSOaTD4abU6jre8BQjkwF1xq2tWVNMWz76VTUbEoQoaJKYhM3sKlArG5umpPuw85wqjmX6wxLk224LUH4v7zO77vRbdhHixjBtowwAW9DWvsY2VgGh35iyiK73G3XtGtceopidKSiOGLtsFCQNkQKBdKbsOii38rtMpQgJqvekmyOi9QqRfw2aeSM5RvdaaIvzHxzRt50S3i+Q0bs8+RI6wKA1zQV2Wm5zjOf3zR5z4rzqX/M1bP4WsPXTSF1jVcyq/JKsvS1WZJ6Wg5rUkiUuoynawlRlLb1nDGBQVe0SjssKMLYKWXIZDJawGw4IZesPX+bNPrjilxhbu4NNP/84zm2abN6CvDABf0lZnq+Q40njrv3MqFcU2zhS/2OotilnQUSR2Ixjbljw/VtV1kygsr1Wq8vAcIcgGnEHP7RW31Yl13jtvnC0zoa/dMwb8Lcf/5HdGhQ/x2tfaTxZ4IA1zQEVJYtHUGNqfTvxfn0r/a6GUtWmVJu5pQSq3UlC1JjTbrW5buzX0yD8PREGRBSnnZssfH7EoP0bIYQOmHF4IscsGKtS6bbX4wfnmFwi3383b3WXjwdDjH/fTpZ3zuG92jM+IqM8AFfZVnf4Zjn0ThdzY3ow97wRzujcrGQe/BwZcztdh0iE9D8xyhpVvuXm4TIBqN1kgQopiLaxxKwRxa8y3W2IDkPW2seGM+s5HBBaPRdPLx9z/T4dvVZkPxyqJyQV/ZqZ/twG996a2b0zj60HQyPQJvlNKXZuUEt8aleiSzT/lRchMhldQ/yC0jYFGETNpjJixkkKSN2SlGiUGlleLSpqMXa6zfBreeD4xPX/XiDf1+LOnT4aK7Dk8P/2k/MuIslokBLujLNJs9G8tGuHFrBI+27MVfGVHYEnHDL3wCykZ/XnJ0mxZQaf3SgZJ+KzQUySbUC7bNtnsdjFEu2Dmz8rb7qF0iiqMj//KpX/jiV7rEZCxmABjoxVctT8VyMnDr8z73rXiyeUuj0TWsSaV52aqKl3/1Y3b1UTBvRNYSEHPDZEhERNTeUy/e0J/tAgHkVS7e0J55ArMdnjhYNXGm75ttEEZfVQa4oK/qzM9p3Eem8U3ilaqtzxWWX99lS05dl9oLjm6dISViQiebIIHpw+4mnilJAVO5+KQM5LhFmzKmMypcswZWrHWZ7tNtH8ZQtXYbcZFocOopmk6/502cjywyD469vAxwQV/eue3FyO6/c/pPkTv9B+wWNqokNSts8jBJRNkoade3LF3b+DQL1jpCmaTeQiDhCnf7Dx8dpG0fgssrtrct65Fk24buoZ8XioIex3916ukRX93ew/lZhpS4oC/DLPZ4DMmjYDej96TP4GyXaNXXvK5vVaySi9J0pHb5ll4mXiox5akPJS8Ri1ZiSu+N25DEM8QLmO4agCmv+eFxWdZdtMEhiUPt0VTcXTCN/vb9z7ydnw43uAkcRsJc0IcxT4POMg6jj8ST+JuN7kmfw4ih5GDLLMpdm6MOWB6YDBuDIkucWnkqMGUHsKr2tktrbolnynviYTKT6OuH4uktzAczMCsGuKDPilnGLRj4h+fd9gXxqpa/d7fw15aWI7wogRTXFCnMtEHvJ9vCEhlLt6/ZvGUdgbQFTnJG8y1WvOUMuF3FANy46UbOrbe+6vavVdmynhloy8AWvmLbhmS/VWRgsjl5d7QRHcGe747yQVUp1FgWpo70YXcVmOqp8hJfkSud0sbWAhfMDZMBDiYvZEVDj0gpMDnIsIIN8nzV8bnflAFxqN0Rf/7/vakf2zMDTRjggt6ELbZtzcA/Pnj/30yi6Wexh8w0A8WKEl74muFuzZreS8fzTaNhOiHDxBXpNXFJH/uaF/EmnhVJsBpnQOyeT6fx19wdk7/EDVjKDHTDABf0bnhklCoGXvmlI+KSoDe7vmlIlhRSYWKokirHUl+2BELSKSVly4JOGakuaS+zpVwoOQZVyigvTS51YW+RlxkwABwjqy+e3S4U7/6Hr3/hgRlEZUhmoGCAC3pBBTdmzoA3+dvJZHondgtbndhSTULNF12m2u2lY0MRI6kaLOaGyDqCQZBXXIQUbowReOrx9Mj0iHg63IedA8m5DcyMZcxAJwxwQe+ERgapw8BHn3f71+Np9KFkLx2uEpKW7gtP/Xutldg1b19TfKRxVDYzxyY/PrBYhSxpFD0tvCa32mquq94FrmxrTX6SN6u5zicPff+uf6rpwmbMQGsGuKC3po4dGzPgOnG0sfm+6Eh0T9tz6WmJSj+x+LQGs05lbXxoNEpDRWkqp/DpnXozgimhUVdAA3Toa0fDhtMb8ebkw7ce+OaDHUEyDDNAMsAFnaSGFbNg4KMv/uxHps7k47Wvdt9iEnWvdlfDNCx4Dc3zWJgbJgN7Sp5gJUqrRR4y2cIDTlZ6geHL66zISC+G++6DcczPbp8Vx4yrMMAFXaGDO3NgIN6cer+PPa0MLTOoELLEFbi0elSUHyWnEOnz6JQHyLEoQlZxTzrhZQuU6NKr3CvNhmkApFStcxpZ+qrU6V9+6hc+85U5heQwK84AF/QV/wNYxPDHzj23RHH0f/vi2daLXbCSKDJKxE3Ocuc+zUZDREfLOyBT9klUUkkqmiXbV2sYnrz2Jc/kT1scbHc239OXlDiP5WeAC/ryz3HvRnjLT99xeDrd/MNpFE9rnUvXalLZLVvyIEtp2ZL1WBssTetUYspTBFpOaxJPSm0kJgxr2xrOiqCAKRqKup8dyLVq7WfmDlwMN9mMPh19f+NTPU2R01pCBrigL+GkDmFIh44c/n+iSfS5trew2cao1yz6PLoFRQexmBaqFj7UcYAWUCINykuV9/aQO6QprwWxA2uIvfNYnFOKoulffeLAl+4dWPac7oAZ4II+4Mkbcuq3vvSL35tOp38iXiepVBulIw+QVMhGWLu+Y33LMk4bn8S7tWMZG1ptYMStgyrIInqQuL4uIo8ZxISjTtPN6KubRzbfOwN4hmQGSAa4oJPUsGLWDIjD7r8fbU6+hr2FrSp2VSHT9fReum4pRVZ/a0iKrTTNeKnElKdRVLna0/JIlPRleVZfDWpLXQhUtW4pQM+dYQ89iv7yE7/0uX/reaac3pIxwAV9ySZ0SMP52Ituv0ecRn+nfth9boUHIcuMnUpMOeLcVNQRaEcwTbMv7SEBeS01K9mKptMjhyabb13JwfOgF8oAF/SF0s/Bj2wceZ94E9s39aJeh5m0kOHlLK8vMk6rvfSmB7WzdOj9ZDmjtF3mqo4l7YlP7UiBaqXhZUrTJpWIR5DqcBqA1gW3qlVzWeWuH3qO+JH6vu0Xn/SFVeaBx74YBrigL4Z3jpox8MmXfP7fppPJB2u9K92sUjV5rO+Y1y4MmEKh5BjGrGR1c9B+G5jp5ATkW9OCJRQD4lD7ZBJtxhP3j2+54pYJZcZyZmBWDHBBnxWzjFuXAXGz7vRtkyOT78KLLNoteDnDpW0itEOi99Kb4gn7pi5imJUuYKCvbehhn4QBL3AdcefGp7575PA/MiXMwCIY4IK+CNY5psLAJ1782dvETT43O35Z0cliRCoUSKRT5Vjqy5aAUToIbCZSzJQO7ZNoMlvKhZLbUSkvKRhlYgdmrYWBeBKJMxqTd33hl79wn8WMVczAzBjggj4zahm4CQOTB+67Ybox+XbTK96r6lKVvl6OgNINUhnPxEslpjz1EbeaUaoS1N4Sh0DEBVviHPpWgexhVlELf7ficPuXvv/9b/Otaqv4B9CTMXNB78lErHoaV9315a+Id6W/xRWHLfOl+7LT9pWqeUb2mto638yxiT9mW8iSRtErk9/yLwIJipsKA3C4XTD+1tsP3HW/ouAOMzBHBrigz5FsDkUzcOCAOP24ufE+cS79W02veE9LF1bA0gKMa+hcQGP6mBI7Qqqlz6PjUXIvHLt5Ds098MgspRlIHvN6ZPrlDSf6E9qKNczA7Bnggj57jjlCTQY+8bLP/dvm5vSGyiPCW6xSdW9fo8JQcmWYtYwUj6SDuWEyMMbkhSxpFL0E2xXvrBVnefmQe8JGRx/igJI4hQE3A978iVfe9o2OUBmGGWjFABf0VrSx06wYmASH3yRuY/ta0730NB+1gOU54tJc22Tb7pGp9r10Kj6WtZBhYgoikysulb+WKsBYrTCQPOZ1Gn37P+47dLOi4A4zsAAGuKAvgHQOSTPwyRd8/m5xqfB/SyzK0+m0Q2ONUt4Qb0JPiBGAUtTCh3Kh5GUwpNXKCcFhEcpAQi9caBhPDv7zr3z+DtSIhczAHBnggj5HsjlUPQa+98Chd00n09vg3CRZkzSF1jUCVekNByHAfVIprqN8QF7hQamNxIRhbVvDWTxjXLhvwd9EXA0JcCav4hi744hivimecjjZmL55NVjgUfadAS7ofZ+hFczv8y///N2b7uYfiId0dDZ6tYZt/Wr3zhJDgKhRp2PQR4IAKCLNHir6Vn4RKNjL0QGG5BWKtb7KemjD4vrCbjp5x8deffuXUgl/MgOLZYAL+mL55+gEA9+c3HuTuNToI3AuPf8CNUw1RdrVhJITrZGMtKbpY0o0Fzpf3bDoZ5gGtCHIPCh5qsa0mKwIv0IN4EHe08badeiA+86nG9E3o+jBd9exZxtmYB4McEGfB8scozEDd/z0HYePbGz8jthL32z/SFh72LpXu9tRKrQtK2kTN6ttokwt4IEyyQ56RcrLpIaCLe9tJwVcDBAYydc2403ePRBNbvrYq7/Me+dtCGSfmTDABX0mtDJoJwzsvOcj02n0P92R5Vx6J4HsIGk5lG1SiSmXbRbbpnJbtqfEwTjlVS7e0KZ42NLsiIs1xStYvnHoyL1v2hIOOzMDHTPABb1jQhmuOwY+9kzxnTmZvC7amN7d7JGw+Ne4KlV7ZtaEPhETOhMklWTm9IVxpiO4pG5qrEIGu5rSovYkBTQzpdVGc+ljVy/WScEWg0r2urPtPPKGV6ROnMnrP/VLd3x7HvE4BjNQlwEu6HWZYruFMPDJF9/2P8VVxH9M3pdOVilcgUvtQwMfyq+p3B7JEqjS0TQwcrMNxHSfqyRPTd7qBXyuCRHB4BGv4mmGn/c3pvxUOIIjFi+OAS7oi+OeI9dkwJ9O/+tkMvk8WdQlHKOISTpoqvqqq91V6wIqERO6wkhrZOb0XrqJZ0pSzFQuPikDLXTulZxDF7uz8MS4RS6QtrxXTbUXmSMaGw61TyPxfpvJm//f13z266gNC5mBBTLABX2B5HPoegzc8uLbvrFxZPN34RGbaC1qVNjqxdSt2oRo4/P/t3flUXIc5b2PmdlLlm+MMbYTyPUgBxjndCB5/JNHCM6JXxJj44NgE8AYbAyOY6IYDI/ggBOOEIcXQsjFI4BDIC8JPmTL0koWsqSV1pYS2ZIsRZasW9rdmekz31fVNd09Mz3TMztH98yvVz1d9VXVV1/9Sru/+arrEPV2XbDe6mzEmbCj3rYgcDKNm6nubFja2gp+7UNHpM5pB6yvtM6JVCAwHARA6MPBHbV2iIA3sfR1x3bFMrZ2RdvxYX168mz3FjUxK3XmIrdQppLqLVM1NMplifiK9aRcIi8lsodOu/DRAmpV3/KfgpyFbtYv7yh5c5j+5f4S++C7nu9q2l1r/wznnee+Q0e0ASD0Ee3YUWvWhrftOuW61Y96rl9OT0i9pZI4fYYI97aWQG+PlMbVUEx8EQlt7zTUjKy5jujdqc485DdK5J17/sMnjtsP5cFe2DieCIDQx7Pfc9nqtTfOP+o69leX+y5dkc/yQWBNnV/J79EbdYW2JtTVCUEnqIjWqupTz3oCj+YdmzD9lXSqbtnWrc/Or5q3xqbdaGjuEACh567Lxttgy698wrPd53if99iVSFbNE0KpDCUPu4c5ub54LLQglTwpU6gmdShJVTO5kNEwu5oUpypRQ+TqKYbHKbOKd/JdQekcxafB78597Wvrj85/ZxTbhzaNDgJ1fxVHp2FoyWgisP76HXtoxvtn6FzvZtw1hEZ3Z0ayl96oL5SEobChJGsmDjOEIcrn0nsD5XVzsegdZkRIIcAT4RzLPlg9uXiPtkpLeuuisuMJBIaKAAh9qPCj8m4QOLbCeYCWD31bpzXBsSstsQWFwuxhKKavFgnTwxAlxiIN0SalG8vUMjUL1Omvz9ImOZ6dMtM74PTTD+KlxzPG/73odn3t40/evXP3eIKAVucJARB6nnoLtgoE5q+atxYWT/6pa7uHW+0g147w2qWng5u1dKepEy+9tWtIqSlM4CF3XOkRMEyDtnj1Npc8HQewpIcNOYeIAAh9iOCj6u4R+P67dm32Pfcz4pCMOke9O63tNpkJtcZoMRYJ8wwzlGQS+LyzXnEd17bd6qdWv3/Lic5KIjcQGA4CIPTh4I5ae4CA45Y/Z1ft9QYdsZp0SXJLorhUjm2D6kZtjZL6Qu1zJJSIFJTBiCBWJEkuM3EqLfnr6Rr0WPUjFuEtXmnCwbdmT85/bcSahuaMMAIg9BHu3FFv2tobd562Pfcu1/ErvXo5nHa2+7Kwbc29HalOUpUk70j5mGbmL4j0Oue4r9t/iolwY/qfIKfNBqHntONgtkRg3Q1zj1iO/ena0HsikzVPaC5tj25jOSlplLfWlfwevbFcqDsMhblI1mZMnSYShtkRao4AOeY8I4GgvH/NLfNPN88EKRDIJgIg9Gz2C6zqAIHKiernXNfd2rA2vQMdMmszoowqSUgX4oS0aPFouMPs0aL14SRV9XJMiqtHrjFuGDQRzrI37tix/9ONqZAAgWwjAELPdv/AuhQIbHr/My9UfOse2utdbgtbz2Q1Hc0TuvFbWVNzbZ3La+YlBSIVRYJJuZPlyyqcrHZkUsRrc3dJM5yPHP7C4YWRaRcaMjYIgNDHpqtHu6Hrr93+Tc9x/6LZBLnOeCz9bPcYoqKSzmpS3wiSh90b9TVKpBVSTp9JGSgbnfwZMxkRiQDPm+Cbd4RzytVPr3nP/H8DGyCQRwRA6HnsNdjcFIHFCePPaZ3RZqNIrlYLYmtWuMPsQsWgynRdWaShXpv365GsIx1U5B19coP5fADPduarpvcFmmDZTdeONG5oXD4QAKHno59gZQoENv3+piO2Xf0w7Yh2rP4Al07/QvMf/OZXYgJ9iWiR1lxZCmmjTilplEtlcTnHeARgxp/QDJ++6Iz4FSXqZuGk5tP/Gd9xnY/w65ukPJADgawjAELPeg/Bvo4QWHfj9v+2bOf+ZBc9TnhKuSQ+FUv/bK4tufb0mpvkTKqsSdZ60YRWJMdztAi9E8KuxyMa5zXnnuM9sPbk9gejcoSBQN4QAKHnrcdgb1sElnYf+nPLsv/VLJmxvOn5UObsykvv9PyOwKjk9+ixJogIF5HFgsJBlpqsbqTAo9xT2qRm0E9ermZkXS/rRVuMoqG5lrezumj/Cdac9wJR6BgmAvn5DR8mSqg7VwhsWnVgiUhsFW0O8nz90LtsSJwIVeOaS1Vq8yeXSSrXqbx5Db2RFjUz0/55P8i6LXI0YEETKW1Xs+/ZcNf2Q23zIwMQyDgCIPSMdxDM6w6BtddtnS/b1Xs8dxi7qSRReeu2JHvpjfoaJVHdlBrJwMFpb1IMuUfE0QIDDw+FwOtaqeviaNS/e+J92/6pLglRIJBLBEDouew2GJ0Ggdk9c18mQv8iD6umvULCC0PNy4bpYYhyxiLNS7I0li0WSS4jUtrkbZ7sa6ZuaiuN6fqa21TWeXI9USfFO9fc2xJiqN1xnzlRXri7t5qhDQgMD4H0f+mGZyNqBgLdIbCKNv3S/I+7ljMnDtsgLc0Jrzv1yaW4ll7X1KhPripvlEu7eANTGeLHjD+pTeklKejhZz1h91B1/1TRXz3XcitV3717+127MdTeP6ShecAIgNAHDDiqGywCs2/f+n/lSvV9ju0ciZ+d3pwIWRqmpN9kJiwTUxDR1djuWJnG5GRJhwU5e4EmxHVYTNRfT9j18WQjs5vCQ+2u7X1yw61z38iulbAMCHSOAAi9c8xQImcIrP+D7avpRLZ76CWyyzPDuiG2dk1u1NkoaaeD05Pfo8vUeh2ylqS6WJtP89uLdJe0ol5s2fZ6sub4qF3BSWoPl23zM6PWNrQHCIDQ8X9gLBBwZia/RF76V5ttDdsOgGRi6yHj9VGVQd9iDJrlvsKYoqaGFdUTeDsc8p5umLREzfaOWAun79j04U0n894e2A8E6hEAodcjgvhIIjB71Wx56fSxO62KvUW9T4+SW7TRIeVFpe3DjeVav+VO0tjaS4+XCusMQ2EO0kRr0ot+USv5BWqufIWgiDzMNx4hwsJ1NPfu9Xftemo8WoxWjhsCIPRx6/Exbu/Gd+85aHvarZ7tH42/T28EJaTHMNSYiyUJ6Qni5joCaSdl2uSNJhfIOy/Qz6TR+0lxLduToUTej8CxrC+vPb71gQyZBVOAQE8RAKH3FE4oyzoCszdsfsz27ds92ry7FalHCTFtm5qXkdLmaYlfB+hrQvoSSTnZbtZTJO98ggldn0jUmraNecxn8m5wtju35FbuxG5weexB2JwWARB6WqSQb2QQWHPNlq/Q1rAPhEPv7ZqWfrZ7TFMrpo1l7DIS6E+qRsppDTq9Qzf5LTqtRR+3i7+0OY572NadWzbd/j9Hxq39aO94IQBCH6/+RmsZAToeU/cX73Yq9jqdXi0nXUlEmZSf5d2cON5NPa1siKaxh84Hs0zS50pzRrxTj6aPetijy3Wde2dv2fbYqLcV7QMCIHT8HxhLBNbcsOuw59o3uq67R5yfngKF7ma7d0jXqbI3ZpKSRjmfsFai4XYmdg6P2olryd1GIxMlGmr3nM8+cXzus8n5kAIERgcBEPro9CVa0iECq6/ftqNatu+kXcOWmh1E1kiP6SpoLJdEt+n0LScXL1mboLPQmdBLtA59xpwU4eXozGZZxji8dToS1bbstZZpfRTvzbPZY7Cq9wiA0HuPKTTmCIF175j7F8uuvl+Y3PK48EaajjczIV2IE9LiCsJYkJ1JuO1Vy6sm2MXLsEc+w4RObTNohzQ+QjWeo20NGcnAVre6QzPljHb3wGK5esuT79lxNExBCAiMNgIg9NHuX7QuBQJP3LDtb2jo/T6j0Pjr0O078STS7FSewvyWWZjAeZc4vko0YWCKlq7x2vRsX82IO53FPAmO2lexK5X3brrjGaw3Twcbco0IAo1/wUakYWgGEOgAAV9b4d5rW9Z3W898bzfbPYEohTghLcnIIHuylx7RV8vbqIwJfUabosl6vlYgQudh92SdjeV7L2Fj291d1ipGWHyaGuF8dP2HdnyzSy0oBgRyiwAIPbddB8N7icDq39xyYvHUyXfZlrO5ntQj1Jm6ykGVaWUQ28BD7lM0w51JvEDL1pjQB3vVk3f/ahdD7a77j8dOuPf1rxZoBgLZRQCEnt2+gWUDRmDju5/dZ9nWu13HO1hP6lFTkme7R3PVhxWx1cuXE2/82iAlSs5r0MMh9yIvX6PNZbyuFtelsVO1MfpMU275ecT55pazzfLcD86vmreWrxEagED+EACh56/PYHEfEVh347ZZx3Pf7Xn+abWTnKKnTqtVtCrKRSKRYCqVqYbIE5TyOejsp/M/Qze0aZrlzs/uLq6k1d2d1lSlWlRr8OYxlv2/5YWlazfcuh3nm6cCFJlGEYFuf7NHEQu0CQgIBB6/9qlvuo7zESLSCk0Mb3ole+khs4YhpaJRolJ69VS8p+a884YyYRNoqoA+RX56mh3jlKbos1dWptATrZbDCRd/6fJc/widonbrxrv+d0tCNoiBwFggAEIfi25GIztFYPU1T/0FDb1/jEashXcbckoYSqMzKXcqeSRTKi+9ziAuvoLmuMvNZIj4yLueMafFu3RfDLtzjqS7Tlkvo0lVRuUp6hMz2jW/TF++3rv2tm3/kaIIsgCBkUYAhD7S3YvGdY0ArX7SnlvxSbvi/C1vUtLZxcyUdLVKSyrTSt6oL5T42jQNuTOhcwtYvpIIvTjoiXFccfRu1ZwO0uhLiV91qp9a84G5r3VQDFmBwMgiAEIf2a5Fw5aLwOpVq53y4tIdVtl+OE7qIWV2VEc3xTopU5eXvfppmuMu2JwYnTaw186g/dx5tnvfLrah/u5DZTxpkVYk/P2ptfP3BjX2oRaoBAL5QgCEnq/+grUDRoB3GqueOH41bQ/7pDER/3VJfo8eGlnHsUR2iu0k74U5w1BDmSApedi9sQRviMNe+QwNufP2rzJGBG9M0rD7lODcQG36hzK91TO9tq5z8t77lm3/+4lTB98z/3UNM9q7RhIFRw2B+F+oUWsd2gMEeoDAhlt3H6q41XfYVXdb6Kk3kmhSVelzJmnoQB5UxuQ/QTvEFcXBLKo8v0fwtbPNlUrQ+llP3K1zDyRVLE+zvdnFSvXm+VWHFwZSKSoBAjlBAITso6IpAAAZjklEQVSek46CmcNFYPb6bdss3b3ec71D0TXqyV56SONhSLWhUaJS1LN9DpVTPeMlmLiZzOWMdnqHzk56cJ1XOEsTdnORVrcqkJGnJHN3vbV46trNH9p5ICNmwQwgkBkEQOiZ6QoYknUEnrj6qU2OZ9/suv4hXvs8sCvO1amq5SLSQ6ed4QR7K3t17azCGcJTT6UoI5l4n33bdvfZnnXL7J3P7sqIWTADCGQKARB6proDxmQdgdXXbHnQ0ey3OWLjmXbWhkwchqiMiEhJTN5OnSiargR76LwGvUj7t6tLZzedyP2cwpnapCG3g1VpWX7ylq6u4+61bPeqdbfOb8yyrbANCAwTARD6MNFH3blEYPXVmx+qWtX30fB71SCy6e5KR8w13Z1kp7ziHbov36HXdIiALkieST37p67R7nZM5q63VKlYt224bW59vC2IAQEgEEUAhB5FA2EgkBKBJ27Y+uWKZd/men5ZeL5tyjEfJ3Fy5/L2JXhm+wx56Or88+jXDl6Hfk5hpdhopo3ZQ01mXF3PW6hWq+/ZcMf8N4ZqDCoHAjlAAISeg06CidlE4Ikbt3yeyOYWz/NsHhbu6BKcnETMCZo6yG76pjatTwpPXQ61B9vLkJkTRlG7oHgubcvSzWnvCbb1WCyG2X1vqVy13rnhg09/ucfqoQ4IjCQCIPSR7FY0alAIrLlhy5fohLb7fd/z23nqHfBxzfzOy/Bgu08L1graGf60CNeUie8c8ovH2TTkzge1cN6sXRJH3/Us66NP3j7/z1mzD/YAgawiAELPas/ArtwgYO7d8kfWUuUe4fE2OOotCFNsMtOfZpp0AMsM7RLnB/bIzV9lhPd0P7O4QltB28B6fbShq5aRiTTi4VmVyoef2DD/qa50oBAQGFME+rgH5JgiimaPHQJ7Vmve3ssOPf7yled5hWLhl+OrvhmOOMvHYpEF4jF5BMWYPBKRJB3JGATZ656mOe4/of2QZtJRqezxSq9Xp6NTaXMZ0jFF3vmz5X3acefUMo5Tbax7ORJpp0+OuXXnutufvk97um8Hty/HTJQFAplFAB56ZrsGhuUKgVWat2Z66732UvV+JtQIT1MzWnjpfeIsXrJGi9ZiNYvvAkzu9GPSdLmXlM4VzyzgzHh55JtXK9bH190uPPNWoGXBZNgABDKHADz0zHUJDMotAl/X/L2vPfjwy8843zQL5ht08o5DRo241tTAWkyybK3JNXlNIgMxeSSS5KVfpL1Eu0R7qcZHjPLFtihPXT0Nw9R2lp8LTZRVDfxTHINKQ/+OVf1j8sw/RgaAzAfeC6hwFBAAoY9CL6IN2UGAh99fc3A1kfpMoWD8Qu0ltrAwIFcKRzg5iIRpzRoTy88ZAkESob9Cu0h7qX5OTTcPtfOwgcFfMkSQlrXRIS3PLD2nVbwqiRpqaGZGz2XBmea2VbU+QWR+D1UAMu85ylA4LghgyH1cehrtHBwCNPxuXLrlzmrZupdGtslLjlfdDWN1WuYMPjY1IGnmciZz8R49IHO2yDQK2qWTFw1t+RqTOW0ac6pcrty0bmH+T9gmXEAACHSPADz07rFDSSCQiMCer5Cn/tqDqy9eeX6RhrZ/Vufx7QgrN/jDQtDaT46VCSLNSrDsdfqP0bS4UkDk/JCEXntSniIROr23Ji99d3DEamJzep4g1pl7Xtly7HdsuH3+H7TVUXR6Xh0UAoGxQACEPhbdjEYOBQEiqb0PHnzk5W85vxK8Uy9EaStO0BxrRs+h5fH8Ul5fgifkrSDv/Mf0HxSnrUmvPCRzOeQu4xw2aa/33ZV92pJbETPgw9r6FxKeuectWRX79vUf3P53/asJmoHAeCFQNxg4Xo1Ha4HAIBB4/Lot91WqtPe75zrq6NWIsx6YICWN8tDCWFoQqd8YhteYn62vjJA5f00IPHQO8T/21knG3vm5pbO0iycuFOGwpv6F2DMv6qUTZ5XOumb9Hdv/qn81QTMQGD8EQOjj1+do8RAQeOK6LQ84tn0LHehylD3U/l0+bSgzTfvEqcE3SeKiPlFtULd8sU5iX/vhmUu1KXH6Wn+s4u8evH+NGGa33f10ato1l938yIP9qQ1agcD4IgBCH9++R8sHjMBj123+K9d13k47yh0xikZ09J15lS7pdsvPFMYFGaNeuvDQtTPEiWqcLOmbPfIgRI+A0oWnzl76K6cv0c4rnU21p6450Tgm7ujtBXGd2us63pztWleuvvXJ76zS9OxuJJ/YOiQAgWwjAELPdv/AuhFD4NFrNn3Xcq2bXdvdy6Qev5ZHqFyaD0xdST46XzUnXESYyJnKmdFDgucyBZoc95ozXyWZmPOmvLgsE3b0Zln0ZlVGUdfsqvVIxbGunb3t6c0swwUEgEDvEaj/i9L7GqARCACBGAJrrtn8jYpdebPjuN83SpFfQWbCNl66yBLTJiPsXfPPBFH6lD4RaOE0Im/F7BHvXJB6jdh97UdXvEK7eOplmuu7Ne1RT5vDUeJWnnctc5OAqtYqW//g+cfe+uRt81ubZIMICACBHiEQ+WvSI41QAwSAQFsE1l63db5sLf6uXbXXxEi9bclWGXya314Ss9x9nalfDa6rUNw7F5pIxHu7ryys0F571qtouFyvETdriN6taq5PE/MEdN21HeeLz+8//s7ZD+w/Vp8HcSAABHqLAAi9t3hCGxBIjcC667Y/a1va1Xa5+j1aMyaGwtMUZpJtdrGHPqNPEamzhy5zSe+ccrN6VSioqhanFJfepf8Ieekvm7qACH15r7d58hvVT2vMq3fPfmDuXfs/s7+sqsYTCACB/iEAQu8fttAMBNoi8PgNG/dV7IXfdizrn3WDD3VJousEVZHstLGrdjZNiFND7GLIm4qpuBhmF7TOVC5ZndP45i8AKwrT2hXnvm5Zp68ZROae475gW87Ns+/f/okEqyEGAkCgDwiotS19UA2VQAAIpEFg37ePWpf//gsPlp0LiZONK2i4ujYFPvSi45pi8iBiEkm/Wn8lrUM/Q/jnTNRq73a1lzsPhQsSp7ySzNWhLfTdnvScP3mudtpe0PaXX+iY2HmSn207G5eqi9dt/OAz341bjBgQAAL9RgCE3m+EoR8IpEDgaTqp7blvHnj04itfesw0jTfQVrElZuUYcUf0NMhJQPu+aT9tvJqWrBXZGWfKFqetyWdI3JLI+bsDy4zgKQm+aBa1C6cv0J5deF47ZZ9OR+pcF3vmlvO1qn3y7Zs+9NyOiKkIAgEgMCAEMOQ+IKBRDRBIg8Dqa7//+fJS9XdoE5r9DWvVIwoiI+1CykPm7JnzpDh5McvSzVfwEEEW10SRhCATvz8/l9akv/miN2rTham279P1Ag3Xe55lW9bHHP/o9Rvv2HOQ68EFBIDA4BGAhz54zFEjEGiJwPP/9sKzl7757DW+b/5coVTgWWpN80fpmAn9Uv1C7RK6a8PrROjqHHQ19K7i7LVzPjUsL7x29tjp5tpeMnUuHd5S0nYv7BNL2Ti9/hKT3zz/BWLzD62/bft9+//rlFOfB3EgAAQGhwAIfXBYoyYgkBqBPd9+8cB5V77swQlde7lRMH5cEGoTXlc0y7PUf9L4Ee18nXZ8I6EgaCJt8c5cPYmUFYnzma5M3jUiF2k0/B6Rv2LlJdp0cVrbu7BfnJkuvhRQC1gn2aT5rjdbsa3fe/L2+f9I3TBkBAJAoG8IgND7Bi0UA4HlIXDg3w4sXPKWwnc9fbJIs8cvI++6KNzniFomdN7udYoOS/0J45Vi2VqM0IUXHhC3Imsm+Bq5M4kz8XMeJnmZJr5AkPwHzrhYu3jmZdrh8lHtWPWkSKfvFUtO1friycrxP9h8x649EXMQBAJAYIgIqC/4QzQBVQMBINAGAf2X/v41vzNhTt1nlsxLPDtcJ86/wA6tIr9If4n2K+bP0Rv0kiRlIm3+J4fa1QQ49tAlcRN7xybFKblhynSeMMdHuPOzaJa0086CNntkkzZ3ZP7wkaVj73rovRu+0cZmJAMBIDBgBEDoAwYc1QGBbhF449++7jJzsvTXhZJxuW/TLm60Hyv/Aovhdv2HtNebr9Uc3ZWetiD0gLQpLD3vYEY7xwWh00I3ReyBhy5InEhfzIAnmalIvSC/KBxbPHnbG1//u5/utg0oBwSAQP8QwCz3/mELzUCgpwg8csOmp+zTR99UXqjez1PLmaR5uH2CDmS52KC5c2I8nshakDm/Rw+qpycTt7hZxAl1tyil8tQ9KbNWLBU013Uf0J0df9nTRkEZEAACPUMA79B7BiUUAYH+I7DnO0eX9hQPPHTpj170ou7rV/imP3mWv0KsP2eCZ/Jl4mbCFt43edsyzEPpLAufaoKcWo/OafJ9OuXjiW+cl7z0yYkJjQ6S+Z+KVX3nG97wh8f730rUAASAQDcIwEPvBjWUAQLDRODrmvvw2zZ84RL//JvP08+0f8C4SDN1+d2cKV046CJQFw7SmOA5j7xVRsH74oPoXPxwOpO9S0ewlavl+6+44rf3sgpcQAAIZBOBQjbNglVAAAi0Q+DmxV/9zy1n7ptbWVrxOt/h9+nSG1dsLTx1oYQ98+CWVC0+BW0rOT+DH0n4nN/QCqZJ3rn17xMTR7/Uzh6kAwEgMFwE4KEPF3/UDgS6RuDym246ebY3/fCEXvQFYQea2AFXV1QuZJwoboqJfPwhqVzJFfnz8DtNvCvTEemfuvzym2gaHi4gAASyjAAIPcu9A9uAQBsEyp7zr1XLPspD40zITMaCoDksGFsSuCR2JZFpirhFmSB/mE/XpqYnNdexvzpzpvX9NmYgGQgAgQwgAELPQCfABCDQLQK7dnmbaPXaFkHK9UqYy6MyJntxk5CfQaoIBVFB+ZRm0FB7tWKfdh3/q69+9VVWVA3CQAAIZBMBEHo2+wVWAYFUCKxatcpzNf9bnFn634qmg+KCw1WKUsnsLfPJFMnmisw5ZhKhu5639fkDzpMiMz6AABDIPAIg9Mx3EQwEAq0RmHCr/+m5boUd7trwOXnZ0muX5M0euRhOF8/GfGGazOd5tBud7nzlqqvgnbdGH6lAIDsIgNCz0xewBAh0hUBppXbQ943HikW5aCWgcKFLELXw3WPSQKLIXnrrgvSpFL+Pp2H8U7Zt4dCVrnoEhYDAcBAAoQ8Hd9QKBHqGwFvesmrJ972HCgUmdCJp5Y1zmC+K12RBWlKcdpLR+IuB57kPTU7+8GGpAJ9AAAjkAQEQeh56CTYCgTYIlArmpmrVKptit7ggM5M3BQNaV0KKS7kQMNlzPJK3WCzRRvHa45dffjmWqgWo4QEE8oAACD0PvQQbgUAbBJas8i567b3fMAsBXQc0zoQt/wm5kPKHkIsYJwcXEbvYGc51dFPfoaR4AgEgkA8EQOj56CdYCQRaIrBzp/N/xMW7hYdODC35Wvriwh9XBE7P2g+Ha7fc4513hqtWqy/SO/R9LStEIhAAAplDAISeuS6BQUCgcwR4+Zrn+uvpEBUqLFxwqUQEFYUz0TPbB1nEg+OczhFdLFejPEemXO8Ii3ABASCQHwRA6PnpK1gKBFoiULHcxzzfcwRnC5KWRC4KCRJXxE5PThe3JHkVNwt0yIuuH/jW9+ZA6C3RRiIQyB4CIPTs9QksAgJdIXD69OIcLTo7zbQtLvVQ5E5P6Z2HxM5eeSAUBO95fMiLtp89/q6MQCEgAASGhgAIfWjQo2Ig0GsEDpykd99beZc3RdlM2ILgFakHKULOMnXT7HgOO7aj6b62p9eWQR8QAAL9RwCE3n+MUQMQGAgCN930gK0X9O2GSb/WgePNJM1hjipZGJeZRBoJOa+v0Wmpmr9/IAajEiAABHqKAAi9p3BCGRAYLgK+6z1lMqGLS1K1ZPQwLEle0ThlVF66ZHzHdbVDgQI8gAAQyBEC6jc/RybDVCAABJIQMAz9GavqWLx9KxN30zvwxnXaFa6WzjI57G55no4la0kAQw4EMowACD3DnQPTgECnCFiWdYIOVjliEqHXX0TZwgeXH2oYnj11usU/OjZVN2zbXoCHXg8e4kAgBwg0/tbnwGiYCASAQHMEJqs2kbG+n5efCe+bmFp54RSgJEnrRNw1uUznON+ae/hw4Xhz7ZACASCQZQRA6FnuHdgGBDpE4NeuvvMEbdv6omnQenK+mMSDi0NM3qEsIHhB8jLN9/WTb32rKoEnEAACeUIAhJ6n3oKtQKA9Aj752Xt9Wr8WDLALEhfhgNwFxTOJM58rfRSR79295zXtrViDrnDBEwjkCAEQeo46C6YCgTQI0Pavz9uO4weT3ASxq2H3cHid2VwNs/O7cyZ4kvFYPC4gAARyiQB+eXPZbTAaCCQjYLj+Ttf1KoK82QevueFcRsbZY2f+lhIOBITu6S/WEmQyPoEAEMgJAiD0nHQUzAQCaRFwTPN5Gj4v8yQ3yd+SrGteuhCyzBAOuZLzkDuN1L9A9E77y+ACAkAgbwiA0PPWY7AXCLRB4GD15HOC0JXXza64cMeJxGtkHipRhM556B/+JoTQIAQEcoUAfnlz1V0wFgi0R+Cmqz580nPdY+IdekDqirTDp/TO1btzJef9aNrXgBxAAAhkEQEQehZ7BTYBgeUioOt7maTlxU/lnddCQZJME665mA9nHg4K4QEEgEDOEACh56zDYC4QSIOArxl7RT4eRqcA3/whh9yDCMfEMLske/bW6SX6QU7FBQSAQP4QKOTPZFgMBIBAOwRoHfpBJmixoJyJOiBu9YwSeS1Me7mLk9raKUc6EAACmUQAHnomuwVGAYHlIaDr3l5B3nVeOHvqwh+PELwieX7iAgJAIL8IgNDz23ewHAi0QKDwgtgjhok7+JHEzZvJkKTpTX8O1JaxLTQjCQgAgWwiAELPZr/AKiCwLAQmJgoHicf5n/zgMHvgcQELBd3Lp6YFO8Avq24UBgJAYDgIgNCHgztqBQJ9RaDklcq25Zzkd+I1D51qFGHhnQsuZx4XJM9y3gqWXPS+2gXlQAAI9A8B/Pb2D1toBgJDQ4C2crcMQz/aeEwqUbcgdCZ6eas82MZ9aN2FioFATxAAofcERigBAtlCwDYXLDpv7Thv5yrc8MjQurA08MzZMWcXPRyOx6B7tnoS1gCB9AiA0NNjhZxAIDcI+L5XIZ5+UQy5C4888MyZvHk7uGAfd+Gd03K1Whx8nps+hqFAoB4BEHo9IogDgRFAYGmp4BFNO8LzVu1RxE5x4ZgLOeXimPDY+QN/EhRceAKBvCGA39689RjsBQIpELhy875F3df38ZC7pGxB2yFxK3JXT0nr4PMU2CILEMgqAiD0rPYM7AICy0BAX7XK0wzfURPeahPhaKhdhongxVA7PZnUg2H4ZVSJokAACAwZARD6kDsA1QOBviHg60tM2sTYwR046OyNM4kHT06XI+70aeIlet/6A4qBQJ8RAKH3GWCoBwLDQoCWre03aee3mkce9c6ZxGtxOUmO84HOh9VbqBcILB8BEPryMYQGIJBJBAzd9GreN1nIXjjHpYwJXcblg+O0Mt0o+pwNFxAAAvlDAISevz6DxUAgHQLE0HzimvTE1bvz6DPwzIP355yPjl+cSKccuYAAEMgaAiD0rPUI7AECPULA97wjS0u0HF28RyelTO7iEfXOWcZxTqFJ7ob+gyKADyAABHKHAAg9d10Gg4FAOgSMYnHJ83yXyVr9SFIXtE4yNQJPISnSaLy9lE47cgEBIJA1BGiEDRcQAAKjioAgc0Xo/FR3ZJidh9p5eZvYy13X8Q59VP8zoF0jjwA89JHvYjRwXBHgGevKO2fPXHjn6qnSBMGLiEgXe7+PK2BoNxDIOQLw0HPegTAfCCQjQL/egsdDMmeCl5vNxCfHKQ+dT2DDBQSAQD4RwG9vPvsNVgOBtgjQXDh6f24ES9eC4XbJ8OHQu3h3LtNYoWEWLtV8n6W4gAAQyBkCIPScdRjMBQJpEai61mFyyE/x0jUx3K7InBUEMnbh2WtXl1kwVuIlukIDTyCQLwRA6PnqL1gLBFIjYOumQ3ztyXXoakKcXHvOJC9umhwnhtuDSXIUBp+nRhgZgUC2EAChZ6s/YA0Q6BkCvP6MaDzunYuolHGq9NT5EXjq9AWgZwZAERAAAgNFAJPiBgo3KgMCg0WACV0MqQdErrz1mHcu9nTn7/a0l7tuXkoBjriDtRS1AQEgsFwEQOjLRRDlgUBGESgWyTD2vNkTF8EgzO/M+Wa5CMq4JH79bJnAJXABASCQJwRA6HnqLdgKBDpCQAy602txImx6Mx565+F7c35/znL1JFLnIXe8R+8IZ2QGAtlAAO/Qs9EPsAII9AEB16ah9WM8vD41NakVCvIoVeGwCy+dSV4OyQvvnBJoY5nC4ou7z+uDMVAJBIBAnxEAofcZYKgHAsNC4Gd+5sp5T3N/w7adOytl+3uu6x2ZJGIvFUtyZntt2D0kdd/XilZRu2BYNqNeIAAEukeAxuJwAQEgMOoIPProo4ULLzRfVTAmft40jV83TPP1xWJpxeTEJDVdToijOA+/n7Yc5xfPOefiuVHHBO0DAqOGAAh91HoU7QECbRCYn58vzZgLFxWmp3/LNM03FYsTPz4zM30BE7pl21XP0X99xZkX/FcbNUgGAkAgYwiA0DPWITAHCAwagUP7d/5UYaZ0WcmceFOhUHija/vvI0L/x0HbgfqAABAAAkAACACBHiCwb9++qUrl0CuPHz/Aa9FxAQEgAASAABAAAkAACAABIDBoBP4f5Bwpz5gdyJQAAAAASUVORK5CYII=;" vertex="1" parent="1">
          <mxGeometry x="130" y="630" width="170" height="170" as="geometry" />
        </mxCell>
        <mxCell id="RxBK489CV4HZndgK19Fy-21" style="edgeStyle=none;shape=flexArrow;rounded=0;orthogonalLoop=1;jettySize=auto;html=1;entryX=0;entryY=1;entryDx=0;entryDy=0;strokeColor=default;align=center;verticalAlign=middle;fontFamily=Helvetica;fontSize=11;fontColor=default;labelBackgroundColor=default;endArrow=classic;endSize=34.7;width=104;endWidth=102.9591836734694;fillColor=#7EA6E0;opacity=30;" edge="1" parent="1" source="RxBK489CV4HZndgK19Fy-11" target="RxBK489CV4HZndgK19Fy-8">
          <mxGeometry relative="1" as="geometry" />
        </mxCell>
        <mxCell id="RxBK489CV4HZndgK19Fy-22" value="Primary translator" style="edgeLabel;html=1;align=center;verticalAlign=middle;resizable=0;points=[];fontFamily=Helvetica;fontSize=17;fontColor=default;labelBackgroundColor=default;" vertex="1" connectable="0" parent="RxBK489CV4HZndgK19Fy-21">
          <mxGeometry x="-0.0029" y="3" relative="1" as="geometry">
            <mxPoint as="offset" />
          </mxGeometry>
        </mxCell>
      </root>
    </mxGraphModel>
  </diagram>
</mxfile>
